<svg width="50" height="50" viewBox="0 0 50 50" fill="none" xmlns="http://www.w3.org/2000/svg">
<path fill-rule="evenodd" clip-rule="evenodd" d="M26.8814 0.0242895L22.2239 0.111312C21.9289 0.116148 21.6629 0.241848 21.4694 0.444898C21.276 0.647948 21.1551 0.923526 21.1599 1.21844L21.2034 3.69858C21.2131 4.30775 20.7972 4.86856 20.1781 5.0136C19.0125 5.294 17.8759 5.67594 16.7877 6.15457C15.6898 6.6332 14.6355 7.20851 13.6391 7.87083C13.1313 8.20926 12.4348 8.16091 11.9753 7.72096L10.2584 6.06275C10.2294 6.03857 10.2004 6.00956 10.1713 5.98056L10.1762 5.97572C9.96337 5.78234 9.6877 5.68565 9.41686 5.69048C9.16052 5.69531 8.90419 5.79201 8.70589 5.97572C8.68655 5.9999 8.6672 6.01923 8.64302 6.03857L8.63818 6.03374L5.42187 9.36478C5.2139 9.58233 5.11234 9.86274 5.11718 10.1432C5.12202 10.4187 5.23326 10.6943 5.44606 10.8974L7.20657 12.5943C7.66603 13.0149 7.7821 13.7208 7.44356 14.272C6.81965 15.2872 6.28764 16.3557 5.84747 17.4773C5.4122 18.5795 5.07364 19.7157 4.83665 20.8712C4.73025 21.49 4.1934 21.9686 3.54527 21.9783L1.06417 22.0218C0.769147 22.0266 0.503145 22.1523 0.309674 22.3554C0.116215 22.5584 -0.00470096 22.834 0.000140153 23.1289L0.0871966 27.7846C0.0920328 28.0795 0.217784 28.3454 0.420913 28.5388C0.624042 28.7322 0.899725 28.8531 1.19475 28.8482L3.67585 28.8047C4.28525 28.7951 4.84627 29.2108 4.99137 29.8297C5.27188 30.9948 5.65397 32.131 6.13278 33.2187C6.61159 34.3162 7.18713 35.3702 7.84971 36.3661C8.18826 36.8738 8.1399 37.5699 7.69978 38.0293L6.04092 39.7456C6.01674 39.7746 5.98772 39.8036 5.9587 39.8326H5.95387C5.76041 40.0453 5.66367 40.316 5.66852 40.5868C5.67335 40.843 5.77008 41.0992 5.95387 41.2975C5.97805 41.3168 5.9974 41.3361 6.01674 41.3603L6.01191 41.3651L9.34422 44.5802C9.56186 44.7881 9.84238 44.8896 10.1229 44.8848C10.3986 44.88 10.6743 44.7688 10.8774 44.556L12.575 42.7962C12.9958 42.3369 13.7019 42.2209 14.2533 42.5593C15.269 43.183 16.3427 43.7148 17.4598 44.1548C18.5625 44.5899 19.6991 44.9283 20.855 45.1652C21.4741 45.2716 21.9529 45.8034 21.9626 46.4561L22.0061 48.9362C22.011 49.2312 22.1367 49.4971 22.3398 49.6904C22.543 49.8838 22.8186 50.0047 23.1137 49.9999L27.7712 49.9128C28.0662 49.908 28.3322 49.7823 28.5257 49.5793C28.7191 49.3762 28.84 49.1006 28.8352 48.8057L28.7917 46.3256C28.782 45.7164 29.1979 45.1556 29.817 45.0106C30.9826 44.7302 32.1192 44.3482 33.2074 43.8696C34.3053 43.391 35.3596 42.8156 36.356 42.1533C36.8638 41.8149 37.5602 41.8632 38.0198 42.3032L39.8044 44.0243C40.0221 44.2322 40.3026 44.3337 40.5831 44.3289C40.8588 44.324 41.1345 44.2128 41.3376 44.0001L44.5055 40.7175C44.5297 40.6885 44.5587 40.6594 44.5877 40.6304L44.5925 40.6353C44.786 40.4226 44.8827 40.147 44.8779 39.8762C44.8731 39.62 44.7763 39.3638 44.5925 39.1656C44.5684 39.1462 44.549 39.1269 44.5297 39.1027L44.5345 39.0979L42.7934 37.4154C42.334 36.9948 42.2179 36.2889 42.5564 35.7377C43.1804 34.7225 43.7124 33.654 44.1525 32.5325C44.5878 31.4302 44.9264 30.294 45.1634 29.1337C45.2698 28.5149 45.8066 28.0363 46.4547 28.0266L48.9358 27.9831C49.2309 27.9783 49.4969 27.8525 49.6903 27.6495C49.8838 27.4464 50.0047 27.1709 49.9999 26.876L49.9128 22.2203C49.908 21.9253 49.7822 21.6594 49.5791 21.4661C49.376 21.2727 49.1003 21.1518 48.8053 21.1566L46.3242 21.2002C45.7148 21.2098 45.1537 20.7941 45.0086 20.1752C44.7281 19.0101 44.346 17.8739 43.8672 16.7861C43.3884 15.6887 42.8129 14.6347 42.1503 13.6388C41.8117 13.1311 41.8601 12.435 42.3002 11.9756L44.022 10.1916C44.2299 9.97409 44.3315 9.69369 44.3267 9.41327C44.3218 9.13769 44.2106 8.86213 43.9978 8.65907L40.7139 5.49239C40.6849 5.46821 40.6558 5.43921 40.6268 5.4102L40.6317 5.40537C40.4189 5.21198 40.1432 5.11528 39.8723 5.12012C39.616 5.12496 39.3597 5.22165 39.1614 5.40537C39.142 5.42954 39.1227 5.44888 39.0985 5.46822L39.0937 5.46338L37.4105 7.20378C36.9898 7.66306 36.2836 7.77909 35.7323 7.44068C34.7166 6.81701 33.6477 6.28521 32.5257 5.84521C31.423 5.4101 30.2864 5.07167 29.1257 4.83477C28.5066 4.72841 28.0278 4.1966 28.0181 3.5439L27.9746 1.06375C27.9698 0.76884 27.844 0.502939 27.6409 0.309555C27.4378 0.116171 27.1621 -0.00469915 26.8671 0.000140099L26.8814 0.0242895ZM33.2753 16.448C35.4662 18.5607 36.8542 21.5098 36.9123 24.7926C36.9703 28.0801 35.6935 31.0775 33.58 33.2725C31.4665 35.4626 28.5163 36.8501 25.2322 36.9082C21.9435 36.9662 18.9448 35.6898 16.749 33.5771C14.5581 31.4644 13.1701 28.5153 13.112 25.2326C13.054 21.9451 14.3308 18.9476 16.4443 16.7526C18.5578 14.5626 21.508 13.175 24.7921 13.117C28.0808 13.059 31.0794 14.3353 33.2753 16.448ZM24.7486 10.4531C28.7677 10.3805 32.4385 11.9421 35.1228 14.5287C37.8071 17.1151 39.5047 20.7266 39.5773 24.7538C39.6498 28.7714 38.0877 32.4408 35.5001 35.1241C32.9126 37.8073 29.2997 39.5043 25.271 39.5768C21.2519 39.6493 17.581 38.0878 14.8968 35.5012C12.2125 32.9147 10.5149 29.3032 10.4423 25.276C10.3698 21.2584 11.9319 17.589 14.5195 14.9058C17.107 12.2225 20.7198 10.5256 24.7486 10.4531ZM17.9389 26.3248C17.3585 25.8703 17.2569 25.0291 17.7164 24.449C18.171 23.8689 19.0126 23.7673 19.5929 24.2266L23.6942 27.4513L30.2573 19.8755C30.741 19.3195 31.5825 19.2567 32.1387 19.7401C32.6949 20.2236 32.7578 21.0648 32.2741 21.6207L24.9275 30.1007L24.9178 30.1104C24.4632 30.6905 23.6216 30.792 23.0413 30.3328L17.9437 26.3248L17.9389 26.3248Z" fill="black"/>
</svg>
