<svg width="24" height="24" viewBox="0 0 24 24" fill="none" xmlns="http://www.w3.org/2000/svg">
<g clip-path="url(#clip0_225_28168)">
<path d="M23.5 12C23.5 18.3513 18.3513 23.5 12 23.5C5.64873 23.5 0.5 18.3513 0.5 12C0.5 5.64873 5.64873 0.5 12 0.5C18.3513 0.5 23.5 5.64873 23.5 12Z" stroke="#909090"/>
<path d="M17.8847 7.00075C17.6373 7.0086 17.4027 7.11257 17.2307 7.29059C14.8699 9.65652 12.3428 12.3675 9.98417 14.7601L6.61734 11.9878C6.52312 11.8955 6.41073 11.8238 6.28731 11.7772C6.16388 11.7306 6.03212 11.7102 5.9004 11.7173C5.76867 11.7244 5.63986 11.7588 5.52213 11.8183C5.40441 11.8778 5.30035 11.9612 5.21656 12.063C5.13277 12.1649 5.07109 12.2831 5.03543 12.4101C4.99976 12.5372 4.9909 12.6702 5.0094 12.8008C5.02791 12.9314 5.07337 13.0567 5.1429 13.1689C5.21243 13.281 5.30452 13.3774 5.4133 13.452L9.45648 16.7817C9.6388 16.9325 9.87078 17.01 10.1071 16.999C10.3435 16.988 10.5673 16.8893 10.7348 16.7222C13.2912 14.1604 16.0659 11.1587 18.5834 8.63586C18.7221 8.50192 18.8168 8.32901 18.855 8.14003C18.8932 7.95104 18.8731 7.75491 18.7974 7.57761C18.7216 7.40031 18.5938 7.2502 18.4308 7.14719C18.2678 7.04417 18.0774 6.9931 17.8847 7.00075Z" fill="#909090"/>
</g>
<defs>
<clipPath id="clip0_225_28168">
<rect width="24" height="24" fill="white"/>
</clipPath>
</defs>
</svg>
