<svg width="50" height="39" viewBox="0 0 50 39" fill="none" xmlns="http://www.w3.org/2000/svg">
<path fill-rule="evenodd" clip-rule="evenodd" d="M50 3.32775L33.2445 19.4996L50 35.6715V3.32775ZM49.1628 38.1894C48.6959 38.6908 48.072 39 47.3919 39H2.60814C1.93028 39 1.30855 38.6934 0.843925 38.1973L18.493 21.1628L21.1887 23.766C22.2504 24.7896 23.6397 25.2987 25.0224 25.291C26.4028 25.2832 27.7944 24.7636 28.8629 23.7296L31.5227 21.1628L49.1628 38.1894ZM0 35.685L16.7716 19.4999L0 3.31471V35.685ZM0.843983 0.802739C1.3086 0.303936 1.93033 0 2.6082 0H47.3919C48.0743 0 48.6982 0.309151 49.1629 0.810588L30.8317 18.5048L30.8071 18.5282L27.4537 21.7652C26.7893 22.4069 25.905 22.729 25.0161 22.7342C24.1295 22.7394 23.2519 22.4276 22.601 21.8016L19.2117 18.5308L19.1825 18.5022L0.843983 0.802739Z" fill="black"/>
</svg>
