<svg width="601" height="148" viewBox="0 0 601 148" fill="none" xmlns="http://www.w3.org/2000/svg">
<path d="M0.693359 25.1523H26.376V38.5012H26.7194C32.1989 28.4015 39.3909 23.0977 50.69 23.0977C53.6015 23.0977 56.8522 23.2671 59.2507 23.9533V47.4016C55.6569 46.3765 52.0587 45.6902 48.2912 45.6902C28.7708 45.6902 26.376 56.9882 26.376 73.5866V108.329H0.693359V25.1483V25.1523Z" fill="white"/>
<path d="M155.73 25.1522H179.358V36.1072H179.701C183.638 30.1171 193.568 23.1016 205.214 23.1016C229.871 23.1016 246.137 40.9027 246.137 66.0623C246.137 89.1676 231.753 110.392 208.126 110.392C197.509 110.392 187.579 107.481 181.757 99.4364H181.413V147.358H155.73V25.1522ZM199.904 87.7951C212.745 87.7951 220.45 79.2377 220.45 66.7445C220.45 54.2516 212.745 45.6942 199.904 45.6942C187.063 45.6942 179.358 54.2516 179.358 66.7445C179.358 79.2377 187.063 87.7951 199.904 87.7951Z" fill="white"/>
<path d="M298.183 49.6257C294.418 45.004 289.45 42.6101 283.287 42.6101C279.008 42.6101 273.871 44.4913 273.871 49.4562C273.871 61.7796 317.189 51.3374 317.189 83.0038C317.189 104.228 296.642 110.388 278.834 110.388C267.192 110.388 254.35 107.478 246.133 99.0936L261.712 81.8048C266.506 87.6258 272.159 90.875 279.864 90.875C285.688 90.875 291.504 89.3331 291.504 84.885C291.504 71.5361 248.188 82.8303 248.188 51.1676C248.188 31.6551 265.653 23.0977 283.117 23.0977C294.078 23.0977 306.235 25.8345 313.939 34.0527L298.183 49.6297V49.6257Z" fill="white"/>
<path d="M381.013 45.6888H358.412V73.4158C358.412 82.3165 359.441 88.8193 370.568 88.8193C373.312 88.8193 378.789 88.4764 381.017 86.4218V107.815C375.367 109.87 369.03 110.382 363.037 110.382C345.916 110.382 332.731 103.367 332.731 85.2228V45.6848H316.293V25.1472H332.731V0.5H358.416V25.1472H381.017V45.6848L381.013 45.6888Z" fill="white"/>
<path d="M440.542 97.8907H440.199C434.549 106.791 424.273 110.384 413.829 110.384C398.246 110.384 384.205 101.483 384.205 84.7112C384.205 55.9592 419.136 55.4424 440.538 55.4424C440.538 46.3722 433.003 40.5516 424.096 40.5516C415.706 40.5516 408.687 44.3176 403.207 50.4774L389.512 36.4423C398.928 27.5419 412.626 23.0938 426.154 23.0938C456.117 23.0938 464.165 38.3275 464.165 66.0545V108.329H440.538V97.8907H440.542ZM434.206 71.8751C426.332 71.8751 408.864 72.5613 408.864 83.8556C408.864 90.0154 415.37 92.9258 421.024 92.9258C431.126 92.9258 440.546 87.6215 440.546 77.3487V71.871H434.209L434.206 71.8751Z" fill="white"/>
<path d="M469.877 25.1523H494.536V36.4466H494.879C498.302 29.9434 506.692 23.0977 519.192 23.0977C530.835 23.0977 540.425 27.8891 544.876 37.9885C550.866 27.3764 558.917 23.0977 571.243 23.0977C593.844 23.0977 600.693 39.0136 600.693 59.2126V108.333H575.012V59.8948C575.012 52.193 572.099 45.6902 563.708 45.6902C551.891 45.6902 548.129 54.0779 548.129 64.347V108.333H522.448V64.347C522.448 58.1871 522.791 45.6902 510.974 45.6902C497.62 45.6902 495.565 56.1325 495.565 66.914V108.333H469.881V25.1523H469.877Z" fill="white"/>
<path d="M222.027 144.584L223.388 142.203C225.177 143.607 228.198 144.713 231.347 144.713C235.599 144.713 237.348 143.269 237.348 141.057C237.348 135.227 222.839 139.821 222.839 130.977C222.839 127.32 225.989 124.6 231.691 124.6C234.586 124.6 237.732 125.407 239.606 126.682L238.285 129.108C236.326 127.748 233.988 127.195 231.691 127.195C227.649 127.195 225.86 128.769 225.86 130.897C225.86 136.935 240.369 132.386 240.369 140.976C240.369 144.847 236.964 147.354 231.133 147.354C227.431 147.354 223.857 146.163 222.027 144.588V144.584Z" fill="white"/>
<path d="M267.084 135.951C267.084 129.314 271.934 124.596 278.488 124.596C285.044 124.596 289.846 129.318 289.846 135.951C289.846 142.582 285.036 147.35 278.488 147.35C271.938 147.35 267.084 142.586 267.084 135.951ZM286.788 135.951C286.788 130.719 283.251 127.231 278.488 127.231C273.723 127.231 270.149 130.719 270.149 135.951C270.149 141.182 273.723 144.669 278.488 144.669C283.251 144.669 286.788 141.182 286.788 135.951Z" fill="white"/>
<path d="M319.412 115.579H322.433V147.141H319.412V115.579Z" fill="white"/>
<path d="M374.431 124.766V147.14H371.536V143.055C369.961 145.776 367.07 147.35 363.496 147.35C357.794 147.35 354.047 144.161 354.047 137.739V124.766H357.067V137.44C357.067 142.204 359.535 144.629 363.791 144.629C368.471 144.629 371.407 141.61 371.407 136.504V124.766H374.428H374.431Z" fill="white"/>
<path d="M418.083 145.775C416.892 146.841 415.103 147.35 413.359 147.35C409.147 147.35 406.805 144.968 406.805 140.843V127.316H402.807V124.765H406.805V119.873H409.825V124.765H416.634V127.316H409.825V140.673C409.825 143.309 411.186 144.758 413.698 144.758C414.933 144.758 416.165 144.375 417.017 143.608L418.083 145.775Z" fill="white"/>
<path d="M446.291 117.706C446.291 116.556 447.272 115.579 448.504 115.579C449.736 115.579 450.717 116.516 450.717 117.662C450.717 118.897 449.78 119.874 448.504 119.874C447.228 119.874 446.291 118.893 446.291 117.702V117.706ZM446.973 124.766H449.994V147.141H446.973V124.766Z" fill="white"/>
<path d="M479.562 135.951C479.562 129.314 484.412 124.596 490.966 124.596C497.52 124.596 502.33 129.318 502.33 135.951C502.33 142.582 497.52 147.35 490.966 147.35C484.412 147.35 479.562 142.586 479.562 135.951ZM499.265 135.951C499.265 130.719 495.732 127.231 490.966 127.231C486.201 127.231 482.627 130.719 482.627 135.951C482.627 141.182 486.201 144.669 490.966 144.669C495.732 144.669 499.265 141.182 499.265 135.951Z" fill="white"/>
<path d="M552.491 134.162V147.136H549.471V134.461C549.471 129.738 547.003 127.317 542.747 127.317C537.938 127.317 534.917 130.291 534.917 135.398V147.136H531.896V124.761H534.784V128.887C536.4 126.166 539.428 124.592 543.3 124.592C548.748 124.592 552.491 127.74 552.491 134.162Z" fill="white"/>
<path d="M580.99 144.584L582.351 142.203C584.14 143.607 587.161 144.713 590.31 144.713C594.566 144.713 596.311 143.269 596.311 141.057C596.311 135.227 581.802 139.821 581.802 130.977C581.802 127.32 584.951 124.6 590.653 124.6C593.545 124.6 596.695 125.407 598.568 126.682L597.248 129.108C595.289 127.748 592.951 127.195 590.653 127.195C586.611 127.195 584.822 128.769 584.822 130.897C584.822 136.935 599.332 132.386 599.332 140.976C599.332 144.847 595.927 147.354 590.096 147.354C586.393 147.354 582.82 146.163 580.99 144.588V144.584Z" fill="white"/>
<path d="M73.0702 86.4471C72.3595 87.101 71.8465 87.9041 71.5518 88.7921C71.5396 88.8245 71.5315 88.8568 71.5193 88.8892C71.4426 89.1435 71.3781 89.3979 71.3338 89.6603C71.2246 90.2859 71.2165 90.9438 71.3176 91.6179C71.3176 91.6422 71.3257 91.6664 71.3298 91.6947C69.8799 89.8176 68.5474 87.7306 67.2834 85.3654C67.2591 85.325 67.2351 85.2805 67.2108 85.236C66.0638 83.1373 65.0584 81.0301 64.7637 79.916C65.1874 80.1704 65.5673 80.4405 65.9789 80.6346C66.4071 80.8323 66.8634 80.9937 67.3236 81.0867C67.7843 81.1793 68.2686 81.1753 68.741 81.1914C69.2138 81.2076 69.6863 81.1914 70.2111 81.1914C70.3362 81.4256 70.4656 81.6638 70.5866 81.9141L70.6353 81.8898L73.0662 86.4431L73.0702 86.4471Z" fill="white"/>
<path d="M80.6096 91.3224C80.4278 92.8444 79.0266 94.3378 77.0804 94.1441C75.4771 94.1077 73.9063 92.5699 74.0435 90.5233C74.1686 88.7028 75.8002 87.4594 77.6819 87.5604C79.1557 87.6413 80.8881 88.9612 80.6137 91.3183L80.6096 91.3224Z" fill="white"/>
<path d="M75.9372 84.9195C75.8321 84.9438 75.731 84.9721 75.6303 85.0004C75.5577 85.0206 75.4891 85.0408 75.4201 85.065C75.4083 85.065 75.4083 85.0772 75.3961 85.0731C75.3596 85.0853 75.3275 85.0974 75.291 85.1136L72.9608 80.7378C72.7996 80.4309 72.6381 80.1325 72.4766 79.8256C74.5722 77.7022 75.3921 75.341 73.9098 72.4873C75.2102 71.3368 76.5148 70.1743 77.8432 68.9915C78.2187 69.1649 78.6104 69.2903 79.0183 69.3708C79.7128 69.5163 80.4397 69.5244 81.1748 69.3991C81.3765 69.3748 81.5746 69.3303 81.7804 69.2741C81.9013 69.2418 82.0186 69.2094 82.1355 69.169C82.362 69.1006 82.58 69.0197 82.7939 68.9268C82.8223 69.0764 82.8503 69.2296 82.8828 69.3748C82.899 69.4395 82.9112 69.5001 82.9233 69.5604C82.9351 69.617 82.9473 69.6736 82.9595 69.7302C83.0443 70.154 83.1413 70.5738 83.2501 70.9854C83.2623 71.0461 83.2785 71.1027 83.2947 71.163C83.315 71.2357 83.3309 71.2924 83.339 71.3288C83.339 71.349 83.3471 71.3611 83.3471 71.3611C83.852 73.2014 84.5668 74.9657 85.4711 76.6124C85.9598 77.5166 86.5049 78.3844 87.115 79.2161V79.2283C87.115 79.2283 87.3934 79.6359 87.9345 80.2938C88.0193 80.3986 88.1163 80.5158 88.2214 80.6327C88.3586 80.7985 88.512 80.9598 88.6492 81.1171C89.3319 81.8681 90.2444 82.7803 91.3833 83.7128C91.1288 83.8418 90.8906 83.987 90.6685 84.1366C90.4664 84.2697 90.285 84.4193 90.1072 84.5685C89.3319 85.2507 88.7746 86.0942 88.4637 87.0307C88.4516 87.0631 88.4435 87.0954 88.4313 87.1278C88.3546 87.3818 88.29 87.6361 88.2454 87.8986C88.2011 88.165 88.1687 88.4315 88.1606 88.7101L83.218 89.2184C83.1734 89.045 83.117 88.8755 83.0565 88.702C82.7898 87.9754 82.4225 87.3417 81.9663 86.8087C81.5218 86.2839 80.997 85.852 80.4235 85.5252C80.3914 85.5091 80.363 85.4889 80.3305 85.4767C79.826 85.1941 79.2809 84.9963 78.7155 84.8754C78.3721 84.7986 78.021 84.7541 77.6695 84.7379C77.092 84.7096 76.5066 84.7662 75.9331 84.9074L75.9372 84.9195Z" fill="white"/>
<path d="M93.0443 85.9747C93.4478 85.8211 93.8598 85.7568 94.2596 85.7729C95.0916 86.2813 95.9838 86.7697 96.9612 87.2097C97.1633 87.4924 97.3167 87.8033 97.4215 88.1341C97.482 88.3157 97.5306 88.4896 97.555 88.663C97.8213 90.1443 97.0785 91.6016 95.5036 92.207C93.6459 92.9175 91.752 92.1342 91.0774 90.209C91.0774 90.209 91.0697 90.209 91.0697 90.1968C90.5124 88.5781 91.2109 86.6569 93.0403 85.9747H93.0443Z" fill="white"/>
<path d="M103.642 103.887C103.913 105.369 103.166 106.822 101.591 107.428C99.7336 108.142 97.8437 107.359 97.1651 105.434C97.1651 105.426 97.157 105.426 97.1651 105.422C96.6038 103.799 97.3064 101.877 99.1317 101.199C101.01 100.501 102.992 101.667 103.517 103.359C103.578 103.536 103.626 103.714 103.65 103.887H103.642Z" fill="white"/>
<path d="M98.3162 29.6244L95.8609 34.2666C95.5257 34.1858 95.1746 34.1332 94.8028 34.117C94.4838 34.1012 94.1607 34.117 93.8136 34.1575C93.7207 34.1696 93.6237 34.1858 93.5267 34.2019C93.4824 34.21 93.4418 34.2181 93.3976 34.2221C93.2844 34.2424 93.1715 34.2666 93.0623 34.2949C92.8886 34.3354 92.7193 34.3835 92.5497 34.4401C92.5375 34.4401 92.5375 34.4522 92.5253 34.4482C90.5223 35.1304 89.1816 36.5433 88.6446 38.2586L83.0275 35.7802C83.5081 33.5764 82.9468 31.6309 81.2428 29.9798C80.9964 29.7416 80.7095 29.556 80.3945 29.3138C80.7984 29.0352 81.1779 28.7687 81.5736 28.5144C81.9653 28.26 82.3651 28.0101 82.7609 27.7679C82.7771 27.7557 82.7933 27.7436 82.8136 27.7315C84.3966 26.7626 86.0116 25.8625 87.6957 25.0755C87.7399 25.0513 87.7886 25.031 87.8369 25.0108C90.0863 23.9695 92.9653 22.8353 96.281 21.9873C96.2002 22.1571 96.1313 22.3266 96.0748 22.5041C96.0627 22.5364 96.0546 22.5688 96.0428 22.6011C95.9657 22.8551 95.9011 23.1095 95.8569 23.3719C95.7477 23.9975 95.7396 24.6554 95.8406 25.3295C95.8488 25.3982 95.8609 25.471 95.8731 25.5438C95.9458 25.9595 96.0627 26.3873 96.2161 26.8071C96.2242 26.8313 96.2323 26.8515 96.2445 26.8758C96.4828 27.4852 96.7856 28.0303 97.1492 28.4982C97.4882 28.9382 97.8839 29.3178 98.3121 29.6244H98.3162Z" fill="white"/>
<path d="M80.6096 91.3224C80.4278 92.8444 79.0266 94.3378 77.0804 94.1441C75.4771 94.1077 73.9063 92.5699 74.0435 90.5233C74.1686 88.7028 75.8002 87.4594 77.6819 87.5604C79.1557 87.6413 80.8881 88.9612 80.6137 91.3183L80.6096 91.3224Z" fill="white"/>
<path d="M95.5056 92.2025C93.6478 92.913 91.7539 92.1297 91.0794 90.2044C91.0794 90.2044 91.0716 90.2045 91.0716 90.1923C90.5143 88.5736 91.2129 86.652 93.0422 85.9698C93.4461 85.8166 93.8577 85.7519 94.2575 85.768C95.344 85.7923 96.3535 86.3617 96.9591 87.2052C97.1612 87.4879 97.3146 87.7984 97.4194 88.1296C97.4802 88.3112 97.5285 88.4847 97.5529 88.6585C97.8192 90.1398 97.0764 91.5971 95.5015 92.2025H95.5056Z" fill="white"/>
<path d="M101.591 107.428C99.7336 108.142 97.8437 107.359 97.1651 105.434C97.1651 105.426 97.157 105.426 97.1651 105.422C96.6038 103.799 97.3064 101.877 99.1317 101.199C101.01 100.501 102.992 101.667 103.517 103.359C103.578 103.536 103.626 103.714 103.65 103.887C103.921 105.369 103.174 106.822 101.599 107.428H101.591Z" fill="white"/>
<path d="M74.4196 62.183C74.2987 62.8773 74.3027 63.6077 74.4359 64.3545C74.5085 64.7702 74.6258 65.1981 74.7792 65.6178C74.7874 65.6421 74.7951 65.6623 74.8073 65.6866C75.0455 66.296 75.3483 66.841 75.712 67.3093C74.5329 68.3105 73.3578 69.3074 72.1828 70.3086C69.497 68.1731 64.5139 69.0287 62.9273 73.1421C62.5839 72.7506 62.1358 68.4436 62.0993 66.6999C62.0587 64.5078 62.051 62.3161 62.3172 60.1324C62.5839 57.9605 62.8989 55.8052 63.5207 53.6377C64.6714 54.9859 65.98 55.9382 67.7367 56.0999C69.4609 56.2653 71.0033 55.789 72.3439 54.6992C72.6025 54.8686 74.8759 57.2986 76.2774 58.8607C75.4737 59.5671 74.9083 60.443 74.6015 61.42C74.5248 61.6743 74.4602 61.9287 74.4156 62.1911L74.4196 62.183Z" fill="white"/>
<path d="M71.8186 37.4425L73.1349 38.9565C72.7676 39.6427 72.3877 40.3451 72.0122 41.0512C71.5114 41.9877 71.0149 42.9283 70.5141 43.8648C70.3201 44.228 70.3164 44.228 69.9125 44.1515C69.0561 43.9939 68.2001 43.9214 67.336 44.1232C67.312 44.1273 67.2795 44.099 67.2109 44.0707C68.5313 41.7132 70.1224 39.5457 71.8145 37.4385L71.8186 37.4425Z" fill="white"/>
<g clip-path="url(#clip0_1442_755)">
<path d="M95.4529 95.0532L96.8906 99.2919C96.846 99.3198 96.8017 99.3481 96.7575 99.3805C96.5553 99.5139 96.3735 99.6631 96.1961 99.8124C95.4205 100.495 94.8636 101.338 94.5523 102.275C94.5405 102.307 94.5324 102.339 94.5202 102.372C94.4435 102.626 94.3789 102.88 94.3343 103.142C94.2255 103.768 94.2174 104.426 94.3181 105.1C94.3262 105.169 94.3384 105.242 94.3505 105.314C94.4232 105.73 94.5405 106.158 94.6939 106.578C94.702 106.602 94.7098 106.622 94.7219 106.646C94.8189 106.897 94.9281 107.135 95.0531 107.361C93.0663 106.824 91.0636 106.105 89.1332 105.145C85.507 103.349 82.3975 101.568 79.6679 99.6267C78.4441 98.7549 77.2975 97.8547 76.2109 96.898C76.5827 96.9586 76.9703 96.9789 77.3539 96.9627C77.6043 96.9465 77.8507 96.9182 78.1008 96.8778C78.3029 96.8535 78.5006 96.8094 78.7067 96.7528C78.8277 96.7205 78.945 96.6881 79.0619 96.6477C79.288 96.5793 79.5063 96.4985 79.7203 96.4055C79.8493 96.3492 79.9788 96.2846 80.0998 96.2158C80.5442 95.9776 80.9598 95.6832 81.3316 95.344C82.337 94.4357 83.0558 93.1967 83.3144 91.8283L88.5881 91.2832C88.5881 91.2832 88.6003 91.3236 88.6084 91.3439C88.6162 91.3681 88.6243 91.3883 88.6364 91.4126C88.8747 92.022 89.1775 92.5667 89.5411 93.035C90.0579 93.701 90.6878 94.2218 91.3904 94.589C91.4874 94.6375 91.5844 94.6861 91.6814 94.7265C92.0569 94.9 92.4485 95.0253 92.8565 95.1058C93.3127 95.2028 93.7892 95.2392 94.2657 95.219C94.5161 95.2028 94.7625 95.1745 95.0129 95.1341C95.1583 95.1179 95.3036 95.0896 95.4489 95.0492L95.4529 95.0532Z" fill="white"/>
<path d="M151.415 70.366C151.18 72.1016 150.821 73.8173 150.461 75.5246C150.219 76.6508 149.92 77.7528 149.565 78.8426C148.903 80.9012 148.071 82.8912 147.082 84.8209C145.482 87.9168 143.528 90.7786 141.23 93.3985C139.252 95.6469 137.075 97.6853 134.721 99.522C131.498 102.053 127.941 103.986 124.137 105.492C121.605 106.493 119.012 107.28 116.351 107.853C115.103 108.128 113.847 108.342 112.583 108.507C112.406 108.532 112.232 108.556 112.055 108.576C111.913 108.592 111.74 108.612 111.55 108.632C110.217 108.762 107.701 108.931 104.592 108.79C104.531 108.79 104.467 108.79 104.402 108.778C105.387 107.866 106.086 106.63 106.332 105.274C106.353 105.173 106.369 105.068 106.381 104.967C106.413 104.709 106.429 104.455 106.429 104.192C106.429 103.93 106.409 103.675 106.373 103.413C106.316 103.009 106.215 102.602 106.07 102.198C105.803 101.472 105.436 100.838 104.98 100.305C104.535 99.7804 104.01 99.3482 103.437 99.0214C103.405 99.0052 103.377 98.985 103.344 98.9729C102.839 98.6902 102.294 98.4925 101.729 98.3716C101.386 98.2947 101.034 98.2503 100.683 98.2341C100.227 98.2102 99.7622 98.2422 99.31 98.3271L97.8281 93.9513C97.9775 93.8425 98.1188 93.7253 98.2519 93.6043C99.2654 92.688 99.9924 91.4288 100.243 90.0442C100.263 89.9431 100.279 89.8384 100.291 89.7373C100.324 89.4789 100.34 89.2246 100.34 88.9625C100.34 88.7846 100.332 88.6111 100.307 88.4295C100.982 88.6232 101.68 88.7886 102.407 88.9261C102.577 88.9584 102.743 88.9864 102.916 89.0147C103.582 89.1804 104.447 89.3256 105.545 89.3903C105.783 89.4065 106.025 89.4186 106.28 89.4263C106.817 89.4465 107.346 89.4465 107.879 89.4263C108.101 89.4263 108.323 89.4146 108.545 89.3984C110.52 89.2812 112.442 88.9342 114.276 88.3689C123.66 85.5031 130.804 77.1393 131.616 66.7614C132.649 53.5216 122.986 41.9043 109.89 40.4109C109.595 40.3745 109.301 40.3462 109.001 40.3219C108.695 40.2977 108.392 40.2775 108.089 40.2697C108.089 40.2697 107.911 40.2576 107.608 40.2536C107.528 40.2536 107.435 40.2536 107.334 40.2536C107.104 40.2536 106.882 40.2617 106.651 40.2617C105.206 40.3017 102.847 40.4837 100.445 41.1618C100.465 41.0607 100.481 40.9556 100.493 40.8549C100.526 40.5965 100.542 40.3421 100.542 40.0797C100.542 39.4258 100.425 38.7517 100.186 38.0857C99.9883 37.545 99.7342 37.0566 99.427 36.6166C99.427 36.6166 99.4192 36.6085 99.407 36.5883C99.3908 36.5681 99.3705 36.5438 99.3425 36.5074C99.181 36.3056 98.793 35.8536 98.1955 35.3974L100.731 30.61C101.103 30.6706 101.49 30.6909 101.874 30.6747C102.124 30.6585 102.371 30.6302 102.621 30.5898C102.823 30.5659 103.021 30.5214 103.227 30.4648C103.348 30.4325 103.465 30.4001 103.582 30.3597C103.809 30.2913 104.026 30.2105 104.241 30.1178C104.37 30.0612 104.499 29.9965 104.62 29.9278C105.064 29.6896 105.48 29.3952 105.852 29.056C106.865 28.1397 107.592 26.8804 107.843 25.4958C107.863 25.3951 107.879 25.29 107.891 25.1889C107.923 24.9309 107.94 24.6765 107.94 24.4141C107.94 24.1517 107.919 23.8973 107.883 23.6349C107.826 23.2313 107.726 22.8237 107.58 22.4201C107.338 21.7581 107.011 21.1686 106.603 20.668C107.697 20.668 108.816 20.7327 109.946 20.8499C110.762 20.9344 111.485 21.0355 112.119 21.1484C113.205 21.2737 114.288 21.4431 115.362 21.653C117.151 22.0044 118.915 22.4444 120.644 23.0093C122.719 23.6794 124.735 24.4788 126.701 25.423C127.985 26.049 129.233 26.7312 130.46 27.4494C132.451 28.6079 134.297 29.9521 136.073 31.4175C137.883 32.9149 139.526 34.5741 141.061 36.3703C142.107 37.6013 143.161 38.8326 144.081 40.1727C145.628 42.4211 146.985 44.7624 148.091 47.2529C148.988 49.2793 149.731 51.3618 150.308 53.5014C150.91 55.7659 151.338 58.0587 151.507 60.4037C151.613 61.9056 151.685 63.4111 151.725 64.9085C151.766 66.729 151.641 68.5536 151.402 70.3498L151.415 70.366Z" fill="white"/>
<path d="M80.7293 60.0794C80.778 60.0794 80.8223 60.0875 80.8709 60.0996C82.6678 60.3418 83.9399 61.9403 83.7783 63.8013C83.629 65.4883 82.2238 66.7197 80.4711 66.6994C80.3258 66.7116 80.1761 66.6994 80.0267 66.6792C78.1166 66.4491 76.8932 64.8223 77.0507 62.9496C77.1798 61.4842 78.4884 59.8736 80.7293 60.0794Z" fill="white"/>
<path d="M68.1306 53.3879C66.5436 53.3353 64.9322 51.8298 65.1461 49.6984C65.332 47.8213 66.8825 46.5822 68.8332 46.7436C70.9207 46.9171 71.9224 48.8427 71.8052 50.3725C71.6558 52.3139 69.8346 53.6018 68.1347 53.3879H68.1306Z" fill="white"/>
<path d="M77.0341 37.9075C75.2896 37.8509 73.9087 36.5714 73.8966 34.6782C73.8844 32.6842 75.2815 31.1948 77.3288 31.2433C79.0412 31.2794 80.6079 32.6158 80.5998 34.5693C80.5917 36.5714 78.7948 38.0126 77.0341 37.9075Z" fill="white"/>
<path d="M94.536 36.8944C95.7959 36.9227 96.9629 37.649 97.4958 38.7994C97.5242 38.8641 97.5486 38.9247 97.5766 38.9891C97.73 39.3647 97.8148 39.7764 97.8148 40.2285C97.803 42.2265 96.0058 43.6717 94.245 43.5666C93.2883 43.5302 92.4522 43.1428 91.8787 42.4687C91.6972 42.2548 91.5398 42.0207 91.4184 41.7582C91.2207 41.3385 91.1156 40.8621 91.1075 40.3373C91.0953 38.3392 92.4928 36.8539 94.536 36.8944Z" fill="white"/>
<path d="M68.3897 78.4662C66.5888 78.4581 65.1024 76.7548 65.264 74.9586C65.4336 73.033 67.138 71.798 68.9308 71.9149C70.8328 72.0398 72.0886 73.7354 72.0078 75.3419C71.9352 76.8232 70.4894 78.7852 68.3897 78.4662Z" fill="white"/>
<path d="M80.6096 91.3224C80.4278 92.8444 79.0266 94.3378 77.0804 94.1441C75.4771 94.1077 73.9063 92.5699 74.0435 90.5233C74.1686 88.7028 75.8002 87.4594 77.6819 87.5604C79.1557 87.6413 80.8881 88.9612 80.6137 91.3183L80.6096 91.3224Z" fill="white"/>
<path d="M103.117 27.6626C101.255 28.3771 99.3653 27.5902 98.6871 25.6686C98.6871 25.6605 98.683 25.6605 98.683 25.6565C98.1257 24.0377 98.8243 22.1165 100.65 21.4384C102.527 20.74 104.514 21.9066 105.035 23.5978C105.096 23.7757 105.144 23.9532 105.168 24.1267C105.435 25.6039 104.692 27.0613 103.117 27.6666V27.6626Z" fill="white"/>
<path d="M101.591 107.428C99.7336 108.142 97.8437 107.359 97.1651 105.434C97.1651 105.426 97.157 105.426 97.1651 105.422C96.6038 103.799 97.3064 101.877 99.1317 101.199C101.01 100.501 102.992 101.667 103.517 103.359C103.578 103.536 103.626 103.714 103.65 103.887C103.921 105.369 103.174 106.822 101.599 107.428H101.591Z" fill="white"/>
<path d="M95.5056 92.2025C93.6478 92.913 91.7539 92.1297 91.0794 90.2044C91.0794 90.2044 91.0716 90.2045 91.0716 90.1923C90.5143 88.5736 91.2129 86.652 93.0422 85.9698C93.4461 85.8166 93.8577 85.7519 94.2575 85.768C95.344 85.7923 96.3535 86.3617 96.9591 87.2052C97.1612 87.4879 97.3146 87.7984 97.4194 88.1296C97.4802 88.3112 97.5285 88.4847 97.5529 88.6585C97.8192 90.1398 97.0764 91.5971 95.5015 92.2025H95.5056Z" fill="white"/>
</g>
<path d="M83.6133 57.465C83.6336 57.4004 83.6579 57.3357 83.6782 57.2754C83.6579 57.3357 83.6376 57.4004 83.6173 57.465H83.6133Z" fill="white"/>
<path d="M91.6053 45.7094C91.464 45.8227 91.3184 45.9517 91.1771 46.077C90.9632 46.2667 90.7533 46.4604 90.5553 46.642L90.5431 46.6541C90.4623 46.7268 90.3856 46.7993 90.313 46.868C90.2001 46.9731 90.095 47.0738 90.002 47.1628C89.9416 47.215 89.8848 47.2716 89.8324 47.3282C89.78 47.3767 89.7394 47.4171 89.7033 47.4531C89.6306 47.5219 89.5901 47.5623 89.5901 47.5623V47.5704C89.4813 47.6751 89.3721 47.7843 89.271 47.8971C87.3569 49.8956 85.7739 52.2284 84.6273 54.7998C84.5749 54.9086 84.5262 55.0178 84.486 55.1266C84.486 55.1266 84.4738 55.1549 84.4535 55.2075C84.1832 55.833 83.9449 56.4667 83.7347 57.1169C83.7148 57.1732 83.6945 57.2298 83.6742 57.2864C83.6539 57.3466 83.63 57.4113 83.6097 57.476C83.5411 57.6697 83.4765 57.8513 83.4197 58.0288C82.9152 57.7466 82.3701 57.5488 81.8047 57.4275C81.4613 57.3507 81.1098 57.3066 80.7587 57.2904C80.1812 57.2621 79.5958 57.3187 79.0223 57.4598C78.9172 57.4841 78.8162 57.5124 78.7155 57.5407C77.1082 55.8735 75.513 54.2265 73.8858 52.5515C74.4106 51.837 74.536 51.0456 74.5198 50.2425C74.4954 48.6278 74.0311 47.1749 72.9165 45.9638L72.63 45.6326C72.63 45.6326 72.6178 45.6007 72.6016 45.5279C73.5221 43.8004 74.467 42.028 75.3718 40.3247C75.6908 40.4218 75.9209 40.5144 76.1551 40.5548C77.3708 40.7526 78.558 40.5831 79.6644 40.0785C80.5931 39.6507 81.3521 39.0655 81.9216 38.3105L88.4714 41.2128C88.5441 41.6285 88.6614 42.0563 88.8148 42.4761C88.8229 42.5003 88.831 42.5205 88.8432 42.5448C89.4086 44.0224 90.4018 45.096 91.5972 45.7175L91.6053 45.7094Z" fill="white"/>
<path d="M87.9389 80.3036C87.3978 79.6453 87.123 79.2377 87.123 79.2377V79.2256C87.3775 79.5931 87.6519 79.9522 87.9389 80.3036Z" fill="white"/>
<defs>
<clipPath id="clip0_1442_755">
<rect width="90" height="88" fill="white" transform="translate(61.6934 20.5)"/>
</clipPath>
</defs>
</svg>
