<svg width="50" height="50" viewBox="0 0 50 50" fill="none" xmlns="http://www.w3.org/2000/svg">
<path d="M50 40.3846C50 45.6846 45.6872 50 40.3846 50C35.0821 50 30.7692 45.6846 30.7692 40.3846C30.7692 35.0846 35.0821 30.7692 40.3846 30.7692C45.6872 30.7692 50 35.0846 50 40.3846ZM17.7436 32.1538C14.7692 29.9487 12.8205 26.4359 12.8205 22.4359C12.8205 15.7179 18.2821 10.2564 25 10.2564C31.7179 10.2564 37.1795 15.7179 37.1795 22.4359C37.1795 24.3333 36.7436 26.1026 35.9487 27.6923C37.3333 27.1795 38.8205 26.9231 40.3846 26.9231C43.8718 26.9231 47.0256 28.2564 49.4103 30.4103C49.7949 28.6667 50 26.8718 50 25C50 11.2051 38.7949 0 25 0C11.2051 0 0 11.2051 0 25C0 31.7179 2.66667 37.7949 7 42.3077C9.12821 37.6923 13 34.0256 17.7436 32.1538ZM28.0769 34.9231C27.0769 34.7179 26.0513 34.6154 25 34.6154C18.1538 34.6154 12.3333 38.9231 10.0256 44.9744C14.2051 48.1026 19.3846 50 25 50C26.8718 50 28.6667 49.7949 30.4103 49.3846C28.2308 47 26.9231 43.8205 26.9231 40.3846C26.9231 38.4359 27.3333 36.5897 28.0769 34.9231ZM16.6667 22.4359C16.6667 27.0256 20.4103 30.7692 25 30.7692C29.5897 30.7692 33.3333 27.0256 33.3333 22.4359C33.3333 17.8462 29.5897 14.1026 25 14.1026C20.4103 14.1026 16.6667 17.8462 16.6667 22.4359Z" fill="black"/>
</svg>
