<svg width="683" height="683" viewBox="0 0 683 683" fill="none" xmlns="http://www.w3.org/2000/svg">
<g clip-path="url(#clip0_173_281)">
<mask id="mask0_173_281" style="mask-type:luminance" maskUnits="userSpaceOnUse" x="0" y="0" width="683" height="683">
<path d="M0 0.000366211H682.667V682.667H0V0.000366211Z" fill="white"/>
</mask>
<g mask="url(#mask0_173_281)">
<path d="M341.331 368C282.517 368 234.664 320.147 234.664 261.333C234.664 202.52 282.517 154.667 341.331 154.667C400.144 154.667 447.997 202.52 447.997 261.333C447.997 320.147 400.144 368 341.331 368Z" stroke="#0098AD" stroke-width="27.67" stroke-miterlimit="10" stroke-linecap="round" stroke-linejoin="round"/>
<path d="M142.199 602.627C142.213 602.454 142.226 602.28 142.253 602.107C151.919 500.667 237.358 421.334 341.333 421.334C445.306 421.334 530.731 500.654 540.426 602.094" stroke="#0098AD" stroke-width="27.67" stroke-miterlimit="10" stroke-linecap="round" stroke-linejoin="round"/>
<path d="M599.999 122.667C599.999 130.031 594.028 136 586.665 136C579.303 136 573.332 130.031 573.332 122.667C573.332 115.303 579.303 109.333 586.665 109.333C594.028 109.333 599.999 115.303 599.999 122.667Z" fill="#0098AD"/>
<path d="M621.893 171.21C652.001 220.796 669.332 279.02 669.332 341.333C669.332 447.72 618.812 542.2 540.425 602.093V602.106C485.239 644.293 416.239 669.333 341.332 669.333C266.439 669.333 197.439 644.293 142.253 602.106C63.8653 542.213 13.332 447.733 13.332 341.333C13.332 160.053 160.025 13.333 341.332 13.333C417.16 13.333 486.941 38.9996 542.467 82.1303" stroke="#0098AD" stroke-width="27.67" stroke-miterlimit="10" stroke-linecap="round" stroke-linejoin="round"/>
</g>
</g>
<defs>
<clipPath id="clip0_173_281">
<rect width="682.667" height="682.667" fill="white"/>
</clipPath>
</defs>
</svg>
