<svg width="600" height="100" viewBox="0 0 600 100" fill="none" xmlns="http://www.w3.org/2000/svg">
<rect x="0.5" y="0.5" width="599" height="99" fill="white"/>
<rect x="0.5" y="0.5" width="599" height="99" stroke="#E9EAF0"/>
<path d="M266.391 40H264.76L268.424 29.8182H270.199L273.863 40H272.232L269.354 31.6676H269.274L266.391 40ZM266.664 36.0128H271.954V37.3054H266.664V36.0128ZM278.3 32.3636V33.5568H274.129V32.3636H278.3ZM275.248 30.5341H276.734V37.7578C276.734 38.0462 276.777 38.2633 276.863 38.4091C276.95 38.5516 277.061 38.6494 277.197 38.7024C277.336 38.7521 277.487 38.777 277.649 38.777C277.768 38.777 277.873 38.7687 277.962 38.7521C278.052 38.7356 278.121 38.7223 278.171 38.7124L278.439 39.9403C278.353 39.9735 278.231 40.0066 278.072 40.0398C277.912 40.0762 277.714 40.0961 277.475 40.0994C277.084 40.1061 276.719 40.0365 276.381 39.8906C276.043 39.7448 275.77 39.5194 275.561 39.2145C275.352 38.9096 275.248 38.5268 275.248 38.0661V30.5341ZM283.509 32.3636V33.5568H279.338V32.3636H283.509ZM280.457 30.5341H281.943V37.7578C281.943 38.0462 281.986 38.2633 282.072 38.4091C282.159 38.5516 282.27 38.6494 282.406 38.7024C282.545 38.7521 282.696 38.777 282.858 38.777C282.977 38.777 283.082 38.7687 283.171 38.7521C283.261 38.7356 283.33 38.7223 283.38 38.7124L283.648 39.9403C283.562 39.9735 283.44 40.0066 283.281 40.0398C283.121 40.0762 282.923 40.0961 282.684 40.0994C282.293 40.1061 281.928 40.0365 281.59 39.8906C281.252 39.7448 280.979 39.5194 280.77 39.2145C280.561 38.9096 280.457 38.5268 280.457 38.0661V30.5341ZM287.376 40.169C286.892 40.169 286.454 40.0795 286.063 39.9006C285.672 39.7183 285.362 39.4548 285.134 39.1101C284.908 38.7654 284.796 38.3428 284.796 37.8423C284.796 37.4115 284.878 37.0568 285.044 36.7784C285.21 36.5 285.434 36.2796 285.715 36.1172C285.997 35.9548 286.312 35.8321 286.66 35.7493C287.008 35.6664 287.363 35.6035 287.724 35.5604C288.181 35.5073 288.552 35.4643 288.838 35.4311C289.123 35.3946 289.33 35.3366 289.459 35.2571C289.588 35.1776 289.653 35.0483 289.653 34.8693V34.8345C289.653 34.4003 289.53 34.0639 289.285 33.8253C289.043 33.5866 288.682 33.4673 288.201 33.4673C287.701 33.4673 287.306 33.5784 287.018 33.8004C286.733 34.0192 286.536 34.2628 286.426 34.5312L285.029 34.2131C285.195 33.7491 285.437 33.3745 285.755 33.0895C286.077 32.8011 286.446 32.5923 286.864 32.4631C287.281 32.3305 287.721 32.2642 288.181 32.2642C288.486 32.2642 288.809 32.3007 289.151 32.3736C289.495 32.4432 289.817 32.5724 290.115 32.7614C290.417 32.9503 290.664 33.2204 290.856 33.5717C291.048 33.9197 291.144 34.3722 291.144 34.929V40H289.693V38.956H289.633C289.537 39.1482 289.393 39.3371 289.2 39.5227C289.008 39.7083 288.761 39.8625 288.46 39.9851C288.158 40.1077 287.797 40.169 287.376 40.169ZM287.699 38.9759C288.11 38.9759 288.461 38.8946 288.753 38.7322C289.048 38.5698 289.272 38.3577 289.424 38.0959C289.58 37.8307 289.658 37.5473 289.658 37.2457V36.2614C289.605 36.3144 289.502 36.3641 289.35 36.4105C289.2 36.4536 289.03 36.4917 288.838 36.5249C288.645 36.5547 288.458 36.5829 288.276 36.6094C288.093 36.6326 287.941 36.6525 287.818 36.669C287.53 36.7055 287.267 36.7668 287.028 36.853C286.793 36.9392 286.604 37.0634 286.461 37.2259C286.322 37.3849 286.252 37.5971 286.252 37.8622C286.252 38.2301 286.388 38.5085 286.66 38.6974C286.932 38.883 287.278 38.9759 287.699 38.9759ZM296.341 40.1541C295.602 40.1541 294.965 39.9867 294.432 39.652C293.902 39.3139 293.494 38.8482 293.209 38.255C292.924 37.6617 292.781 36.9822 292.781 36.2166C292.781 35.4411 292.927 34.7566 293.219 34.1634C293.51 33.5668 293.921 33.1011 294.452 32.7663C294.982 32.4316 295.607 32.2642 296.326 32.2642C296.906 32.2642 297.423 32.3719 297.877 32.5874C298.331 32.7995 298.697 33.0978 298.976 33.4822C299.258 33.8667 299.425 34.3158 299.478 34.8295H298.031C297.952 34.4716 297.769 34.1634 297.484 33.9048C297.203 33.6463 296.825 33.517 296.351 33.517C295.937 33.517 295.574 33.6264 295.262 33.8452C294.954 34.0606 294.714 34.3688 294.541 34.7699C294.369 35.1676 294.283 35.6383 294.283 36.1818C294.283 36.7386 294.367 37.2192 294.536 37.6236C294.705 38.0279 294.944 38.3411 295.252 38.5632C295.564 38.7853 295.93 38.8963 296.351 38.8963C296.633 38.8963 296.888 38.8449 297.116 38.7422C297.348 38.6361 297.542 38.4853 297.698 38.2898C297.857 38.0942 297.968 37.8589 298.031 37.5838H299.478C299.425 38.0777 299.264 38.5185 298.996 38.9062C298.727 39.294 298.368 39.599 297.917 39.821C297.469 40.0431 296.944 40.1541 296.341 40.1541ZM302.554 35.4659V40H301.068V29.8182H302.534V33.6065H302.629C302.808 33.1955 303.081 32.8691 303.449 32.6271C303.817 32.3852 304.298 32.2642 304.891 32.2642C305.414 32.2642 305.872 32.3719 306.263 32.5874C306.657 32.8028 306.962 33.1243 307.178 33.5518C307.396 33.9761 307.506 34.5064 307.506 35.1428V40H306.019V35.3217C306.019 34.7616 305.875 34.3274 305.587 34.0192C305.298 33.7076 304.897 33.5518 304.384 33.5518C304.032 33.5518 303.718 33.6264 303.439 33.7756C303.164 33.9247 302.947 34.1435 302.788 34.4318C302.632 34.7169 302.554 35.0616 302.554 35.4659ZM313.314 40V29.8182H319.628V31.1406H314.85V34.2429H319.175V35.5604H314.85V40H313.314ZM321.398 40V32.3636H322.884V40H321.398ZM322.148 31.1854C321.89 31.1854 321.668 31.0992 321.482 30.9268C321.3 30.7512 321.209 30.5424 321.209 30.3004C321.209 30.0552 321.3 29.8464 321.482 29.674C321.668 29.4983 321.89 29.4105 322.148 29.4105C322.407 29.4105 322.627 29.4983 322.81 29.674C322.995 29.8464 323.088 30.0552 323.088 30.3004C323.088 30.5424 322.995 30.7512 322.81 30.9268C322.627 31.0992 322.407 31.1854 322.148 31.1854ZM326.371 29.8182V40H324.884V29.8182H326.371ZM331.662 40.1541C330.909 40.1541 330.261 39.9934 329.718 39.6719C329.177 39.3471 328.76 38.8913 328.465 38.3047C328.173 37.7147 328.027 37.0237 328.027 36.2315C328.027 35.4493 328.173 34.7599 328.465 34.1634C328.76 33.5668 329.171 33.1011 329.698 32.7663C330.228 32.4316 330.848 32.2642 331.557 32.2642C331.988 32.2642 332.406 32.3355 332.81 32.478C333.214 32.6205 333.577 32.8442 333.899 33.1491C334.22 33.4541 334.474 33.8501 334.659 34.3374C334.845 34.8213 334.938 35.4096 334.938 36.1023V36.6293H328.868V35.5156H333.481C333.481 35.1245 333.402 34.7782 333.243 34.4766C333.083 34.1716 332.86 33.9313 332.571 33.7557C332.286 33.58 331.952 33.4922 331.567 33.4922C331.15 33.4922 330.785 33.5949 330.473 33.8004C330.165 34.0026 329.926 34.2678 329.757 34.5959C329.592 34.9207 329.509 35.2737 329.509 35.6548V36.5249C329.509 37.0353 329.598 37.4695 329.777 37.8274C329.96 38.1854 330.213 38.4588 330.538 38.6477C330.863 38.8333 331.242 38.9261 331.676 38.9261C331.958 38.9261 332.215 38.8864 332.447 38.8068C332.679 38.724 332.88 38.6013 333.049 38.4389C333.218 38.2765 333.347 38.076 333.436 37.8374L334.843 38.0909C334.731 38.5052 334.529 38.8681 334.237 39.1797C333.949 39.4879 333.586 39.7282 333.148 39.9006C332.714 40.0696 332.218 40.1541 331.662 40.1541Z" fill="#1D2026"/>
<path d="M198.875 70H195.733V59.8182H199.015C200.002 59.8182 200.847 60.022 201.55 60.4297C202.253 60.834 202.791 61.4157 203.166 62.1747C203.54 62.9304 203.728 63.8352 203.728 64.8892C203.728 65.9498 203.539 66.8629 203.161 67.6286C202.783 68.3909 202.233 68.9775 201.51 69.3885C200.788 69.7962 199.91 70 198.875 70ZM196.966 68.9062H198.796C199.638 68.9062 200.335 68.7438 200.889 68.419C201.442 68.0942 201.855 67.6319 202.127 67.032C202.399 66.4321 202.535 65.7178 202.535 64.8892C202.535 64.0672 202.4 63.3596 202.132 62.7663C201.863 62.1697 201.462 61.7124 200.929 61.3942C200.395 61.0727 199.731 60.9119 198.935 60.9119H196.966V68.9062ZM205.497 70V62.3636H206.63V63.517H206.71C206.849 63.1392 207.101 62.8326 207.466 62.5973C207.83 62.362 208.241 62.2443 208.698 62.2443C208.785 62.2443 208.892 62.246 209.022 62.2493C209.151 62.2526 209.249 62.2576 209.315 62.2642V63.4574C209.275 63.4474 209.184 63.4325 209.042 63.4126C208.902 63.3894 208.755 63.3778 208.599 63.3778C208.228 63.3778 207.896 63.4557 207.605 63.6115C207.316 63.764 207.088 63.9761 206.919 64.2479C206.753 64.5163 206.67 64.8229 206.67 65.1676V70H205.497ZM212.813 70.179C212.329 70.179 211.89 70.0878 211.495 69.9055C211.101 69.7199 210.788 69.4531 210.556 69.1051C210.324 68.7538 210.208 68.3295 210.208 67.8324C210.208 67.3949 210.294 67.0402 210.466 66.7685C210.639 66.4934 210.869 66.2779 211.157 66.1222C211.446 65.9664 211.764 65.8504 212.112 65.7741C212.463 65.6946 212.816 65.6316 213.171 65.5852C213.635 65.5256 214.011 65.4808 214.299 65.451C214.591 65.4179 214.803 65.3632 214.936 65.2869C215.072 65.2107 215.14 65.0781 215.14 64.8892V64.8494C215.14 64.3589 215.005 63.9777 214.737 63.706C214.472 63.4342 214.069 63.2983 213.529 63.2983C212.969 63.2983 212.53 63.4209 212.211 63.6662C211.893 63.9115 211.669 64.1733 211.54 64.4517L210.427 64.054C210.625 63.59 210.891 63.2287 211.222 62.9702C211.557 62.7083 211.921 62.526 212.316 62.4233C212.714 62.3172 213.105 62.2642 213.489 62.2642C213.734 62.2642 214.016 62.294 214.334 62.3537C214.656 62.41 214.966 62.5277 215.264 62.7067C215.566 62.8857 215.816 63.1558 216.015 63.517C216.214 63.8783 216.313 64.3622 216.313 64.9688V70H215.14V68.9659H215.08C215 69.1316 214.868 69.3089 214.682 69.4979C214.497 69.6868 214.25 69.8475 213.941 69.9801C213.633 70.1127 213.257 70.179 212.813 70.179ZM212.992 69.125C213.456 69.125 213.847 69.0339 214.165 68.8516C214.487 68.6693 214.729 68.4339 214.891 68.1456C215.057 67.8572 215.14 67.554 215.14 67.2358V66.1619C215.09 66.2216 214.981 66.2763 214.812 66.326C214.646 66.3724 214.454 66.4138 214.235 66.4503C214.019 66.4834 213.809 66.5133 213.603 66.5398C213.401 66.563 213.237 66.5829 213.111 66.5994C212.806 66.6392 212.521 66.7038 212.256 66.7933C211.994 66.8795 211.782 67.0104 211.62 67.1861C211.461 67.3584 211.381 67.5937 211.381 67.892C211.381 68.2997 211.532 68.608 211.834 68.8168C212.138 69.0223 212.525 69.125 212.992 69.125ZM221.397 73.0227C220.83 73.0227 220.343 72.9498 219.935 72.804C219.528 72.6615 219.188 72.4725 218.916 72.2372C218.648 72.0052 218.434 71.7566 218.275 71.4915L219.209 70.8352C219.315 70.9744 219.45 71.1335 219.612 71.3125C219.774 71.4948 219.997 71.6522 220.278 71.7848C220.563 71.9207 220.936 71.9886 221.397 71.9886C222.013 71.9886 222.522 71.8395 222.923 71.5412C223.324 71.2429 223.525 70.7756 223.525 70.1392V68.5881H223.425C223.339 68.7273 223.216 68.8996 223.057 69.1051C222.902 69.3073 222.676 69.4879 222.381 69.647C222.09 69.8028 221.695 69.8807 221.198 69.8807C220.581 69.8807 220.028 69.7348 219.537 69.4432C219.05 69.1515 218.664 68.7273 218.379 68.1705C218.097 67.6136 217.956 66.9375 217.956 66.142C217.956 65.3598 218.094 64.6787 218.369 64.0987C218.644 63.5154 219.027 63.0646 219.518 62.7464C220.008 62.425 220.575 62.2642 221.218 62.2642C221.715 62.2642 222.109 62.3471 222.401 62.5128C222.696 62.6752 222.921 62.8608 223.077 63.0696C223.236 63.2751 223.359 63.4441 223.445 63.5767H223.564V62.3636H224.698V70.2188C224.698 70.875 224.549 71.4086 224.251 71.8196C223.956 72.2339 223.558 72.5372 223.057 72.7294C222.56 72.925 222.007 73.0227 221.397 73.0227ZM221.357 68.8267C221.828 68.8267 222.225 68.719 222.55 68.5036C222.875 68.2881 223.122 67.9782 223.291 67.5739C223.46 67.1695 223.545 66.6856 223.545 66.1222C223.545 65.572 223.462 65.0864 223.296 64.6655C223.13 64.2446 222.885 63.9148 222.56 63.6761C222.235 63.4375 221.834 63.3182 221.357 63.3182C220.86 63.3182 220.446 63.4441 220.114 63.696C219.786 63.9479 219.539 64.286 219.373 64.7102C219.211 65.1345 219.13 65.6051 219.13 66.1222C219.13 66.6525 219.213 67.1214 219.378 67.5291C219.547 67.9335 219.796 68.2517 220.124 68.4837C220.456 68.7124 220.867 68.8267 221.357 68.8267ZM232.75 70.179C232.266 70.179 231.827 70.0878 231.433 69.9055C231.038 69.7199 230.725 69.4531 230.493 69.1051C230.261 68.7538 230.145 68.3295 230.145 67.8324C230.145 67.3949 230.231 67.0402 230.404 66.7685C230.576 66.4934 230.806 66.2779 231.095 66.1222C231.383 65.9664 231.701 65.8504 232.049 65.7741C232.401 65.6946 232.754 65.6316 233.108 65.5852C233.572 65.5256 233.949 65.4808 234.237 65.451C234.529 65.4179 234.741 65.3632 234.873 65.2869C235.009 65.2107 235.077 65.0781 235.077 64.8892V64.8494C235.077 64.3589 234.943 63.9777 234.674 63.706C234.409 63.4342 234.007 63.2983 233.466 63.2983C232.906 63.2983 232.467 63.4209 232.149 63.6662C231.831 63.9115 231.607 64.1733 231.478 64.4517L230.364 64.054C230.563 63.59 230.828 63.2287 231.159 62.9702C231.494 62.7083 231.859 62.526 232.253 62.4233C232.651 62.3172 233.042 62.2642 233.426 62.2642C233.672 62.2642 233.953 62.294 234.272 62.3537C234.593 62.41 234.903 62.5277 235.201 62.7067C235.503 62.8857 235.753 63.1558 235.952 63.517C236.151 63.8783 236.25 64.3622 236.25 64.9688V70H235.077V68.9659H235.017C234.938 69.1316 234.805 69.3089 234.62 69.4979C234.434 69.6868 234.187 69.8475 233.879 69.9801C233.571 70.1127 233.194 70.179 232.75 70.179ZM232.929 69.125C233.393 69.125 233.784 69.0339 234.103 68.8516C234.424 68.6693 234.666 68.4339 234.828 68.1456C234.994 67.8572 235.077 67.554 235.077 67.2358V66.1619C235.027 66.2216 234.918 66.2763 234.749 66.326C234.583 66.3724 234.391 66.4138 234.172 66.4503C233.957 66.4834 233.746 66.5133 233.541 66.5398C233.339 66.563 233.175 66.5829 233.049 66.5994C232.744 66.6392 232.459 66.7038 232.194 66.7933C231.932 66.8795 231.72 67.0104 231.557 67.1861C231.398 67.3584 231.319 67.5937 231.319 67.892C231.319 68.2997 231.469 68.608 231.771 68.8168C232.076 69.0223 232.462 69.125 232.929 69.125ZM239.425 65.4062V70H238.252V62.3636H239.385V63.5568H239.485C239.664 63.169 239.936 62.8575 240.3 62.6222C240.665 62.3835 241.135 62.2642 241.712 62.2642C242.229 62.2642 242.682 62.3703 243.069 62.5824C243.457 62.7912 243.759 63.1094 243.974 63.5369C244.19 63.9612 244.297 64.4981 244.297 65.1477V70H243.124V65.2273C243.124 64.6274 242.968 64.16 242.657 63.8253C242.345 63.4872 241.918 63.3182 241.374 63.3182C241 63.3182 240.665 63.3994 240.37 63.5618C240.078 63.7242 239.848 63.9612 239.679 64.2727C239.51 64.5843 239.425 64.9621 239.425 65.4062ZM252.982 70.1591C252.346 70.1591 251.784 69.9983 251.297 69.6768C250.81 69.352 250.429 68.8946 250.154 68.3047C249.878 67.7114 249.741 67.0104 249.741 66.2017C249.741 65.3996 249.878 64.7036 250.154 64.1136C250.429 63.5237 250.811 63.0679 251.302 62.7464C251.792 62.425 252.359 62.2642 253.002 62.2642C253.499 62.2642 253.892 62.3471 254.181 62.5128C254.472 62.6752 254.694 62.8608 254.847 63.0696C255.002 63.2751 255.123 63.4441 255.21 63.5767H255.309V59.8182H256.482V70H255.349V68.8267H255.21C255.123 68.9659 255.001 69.1416 254.842 69.3537C254.683 69.5625 254.456 69.7498 254.161 69.9155C253.866 70.0779 253.473 70.1591 252.982 70.1591ZM253.141 69.1051C253.612 69.1051 254.01 68.9825 254.335 68.7372C254.659 68.4886 254.906 68.1456 255.075 67.7081C255.244 67.2673 255.329 66.7585 255.329 66.1818C255.329 65.6117 255.246 65.1129 255.08 64.6854C254.915 64.2545 254.669 63.9197 254.345 63.6811C254.02 63.4392 253.619 63.3182 253.141 63.3182C252.644 63.3182 252.23 63.4458 251.899 63.701C251.57 63.9529 251.323 64.2959 251.158 64.7301C250.995 65.161 250.914 65.6449 250.914 66.1818C250.914 66.7254 250.997 67.2192 251.163 67.6634C251.332 68.1042 251.58 68.4555 251.908 68.7173C252.24 68.9759 252.651 69.1051 253.141 69.1051ZM258.654 70V62.3636H259.788V63.517H259.867C260.006 63.1392 260.258 62.8326 260.623 62.5973C260.987 62.362 261.398 62.2443 261.856 62.2443C261.942 62.2443 262.05 62.246 262.179 62.2493C262.308 62.2526 262.406 62.2576 262.472 62.2642V63.4574C262.433 63.4474 262.341 63.4325 262.199 63.4126C262.06 63.3894 261.912 63.3778 261.756 63.3778C261.385 63.3778 261.054 63.4557 260.762 63.6115C260.474 63.764 260.245 63.9761 260.076 64.2479C259.91 64.5163 259.827 64.8229 259.827 65.1676V70H258.654ZM266.593 70.1591C265.904 70.1591 265.299 69.995 264.778 69.6669C264.261 69.3388 263.857 68.8797 263.565 68.2898C263.277 67.6998 263.133 67.0104 263.133 66.2216C263.133 65.4261 263.277 64.7318 263.565 64.1385C263.857 63.5452 264.261 63.0845 264.778 62.7564C265.299 62.4283 265.904 62.2642 266.593 62.2642C267.282 62.2642 267.886 62.4283 268.403 62.7564C268.923 63.0845 269.327 63.5452 269.616 64.1385C269.907 64.7318 270.053 65.4261 270.053 66.2216C270.053 67.0104 269.907 67.6998 269.616 68.2898C269.327 68.8797 268.923 69.3388 268.403 69.6669C267.886 69.995 267.282 70.1591 266.593 70.1591ZM266.593 69.1051C267.117 69.1051 267.548 68.9709 267.886 68.7024C268.224 68.4339 268.474 68.081 268.636 67.6435C268.799 67.206 268.88 66.732 268.88 66.2216C268.88 65.7112 268.799 65.2356 268.636 64.7947C268.474 64.3539 268.224 63.9976 267.886 63.7259C267.548 63.4541 267.117 63.3182 266.593 63.3182C266.069 63.3182 265.638 63.4541 265.3 63.7259C264.962 63.9976 264.712 64.3539 264.55 64.7947C264.387 65.2356 264.306 65.7112 264.306 66.2216C264.306 66.732 264.387 67.206 264.55 67.6435C264.712 68.081 264.962 68.4339 265.3 68.7024C265.638 68.9709 266.069 69.1051 266.593 69.1051ZM271.704 72.8636V62.3636H272.838V63.5767H272.977C273.063 63.4441 273.182 63.2751 273.335 63.0696C273.491 62.8608 273.713 62.6752 274.001 62.5128C274.293 62.3471 274.687 62.2642 275.184 62.2642C275.827 62.2642 276.394 62.425 276.885 62.7464C277.375 63.0679 277.758 63.5237 278.033 64.1136C278.308 64.7036 278.446 65.3996 278.446 66.2017C278.446 67.0104 278.308 67.7114 278.033 68.3047C277.758 68.8946 277.377 69.352 276.89 69.6768C276.402 69.9983 275.841 70.1591 275.204 70.1591C274.714 70.1591 274.321 70.0779 274.026 69.9155C273.731 69.7498 273.504 69.5625 273.345 69.3537C273.186 69.1416 273.063 68.9659 272.977 68.8267H272.877V72.8636H271.704ZM272.858 66.1818C272.858 66.7585 272.942 67.2673 273.111 67.7081C273.28 68.1456 273.527 68.4886 273.852 68.7372C274.177 68.9825 274.574 69.1051 275.045 69.1051C275.536 69.1051 275.945 68.9759 276.273 68.7173C276.605 68.4555 276.853 68.1042 277.019 67.6634C277.188 67.2192 277.272 66.7254 277.272 66.1818C277.272 65.6449 277.19 65.161 277.024 64.7301C276.861 64.2959 276.614 63.9529 276.283 63.701C275.955 63.4458 275.542 63.3182 275.045 63.3182C274.568 63.3182 274.167 63.4392 273.842 63.6811C273.517 63.9197 273.272 64.2545 273.106 64.6854C272.94 65.1129 272.858 65.6117 272.858 66.1818ZM286.14 70.179C285.656 70.179 285.217 70.0878 284.823 69.9055C284.428 69.7199 284.115 69.4531 283.883 69.1051C283.651 68.7538 283.535 68.3295 283.535 67.8324C283.535 67.3949 283.621 67.0402 283.794 66.7685C283.966 66.4934 284.196 66.2779 284.485 66.1222C284.773 65.9664 285.091 65.8504 285.439 65.7741C285.79 65.6946 286.143 65.6316 286.498 65.5852C286.962 65.5256 287.338 65.4808 287.627 65.451C287.918 65.4179 288.13 65.3632 288.263 65.2869C288.399 65.2107 288.467 65.0781 288.467 64.8892V64.8494C288.467 64.3589 288.333 63.9777 288.064 63.706C287.799 63.4342 287.396 63.2983 286.856 63.2983C286.296 63.2983 285.857 63.4209 285.539 63.6662C285.22 63.9115 284.997 64.1733 284.867 64.4517L283.754 64.054C283.953 63.59 284.218 63.2287 284.549 62.9702C284.884 62.7083 285.249 62.526 285.643 62.4233C286.041 62.3172 286.432 62.2642 286.816 62.2642C287.062 62.2642 287.343 62.294 287.661 62.3537C287.983 62.41 288.293 62.5277 288.591 62.7067C288.893 62.8857 289.143 63.1558 289.342 63.517C289.541 63.8783 289.64 64.3622 289.64 64.9688V70H288.467V68.9659H288.407C288.328 69.1316 288.195 69.3089 288.009 69.4979C287.824 69.6868 287.577 69.8475 287.269 69.9801C286.96 70.1127 286.584 70.179 286.14 70.179ZM286.319 69.125C286.783 69.125 287.174 69.0339 287.492 68.8516C287.814 68.6693 288.056 68.4339 288.218 68.1456C288.384 67.8572 288.467 67.554 288.467 67.2358V66.1619C288.417 66.2216 288.308 66.2763 288.139 66.326C287.973 66.3724 287.781 66.4138 287.562 66.4503C287.347 66.4834 287.136 66.5133 286.931 66.5398C286.728 66.563 286.564 66.5829 286.438 66.5994C286.133 66.6392 285.848 66.7038 285.583 66.7933C285.321 66.8795 285.109 67.0104 284.947 67.1861C284.788 67.3584 284.708 67.5937 284.708 67.892C284.708 68.2997 284.859 68.608 285.161 68.8168C285.466 69.0223 285.852 69.125 286.319 69.125ZM298.84 62.3636V63.358H294.723V62.3636H298.84ZM295.956 70V61.3097C295.956 60.8722 296.059 60.5076 296.264 60.2159C296.47 59.9242 296.737 59.7055 297.065 59.5597C297.393 59.4138 297.739 59.3409 298.104 59.3409C298.392 59.3409 298.628 59.3641 298.81 59.4105C298.992 59.4569 299.128 59.5 299.218 59.5398L298.879 60.554C298.82 60.5341 298.737 60.5092 298.631 60.4794C298.528 60.4496 298.392 60.4347 298.223 60.4347C297.835 60.4347 297.555 60.5324 297.383 60.728C297.214 60.9235 297.129 61.2102 297.129 61.5881V70H295.956ZM300.344 70V62.3636H301.517V70H300.344ZM300.941 61.0909C300.712 61.0909 300.515 61.013 300.349 60.8572C300.187 60.7015 300.105 60.5142 300.105 60.2955C300.105 60.0767 300.187 59.8894 300.349 59.7337C300.515 59.5779 300.712 59.5 300.941 59.5C301.169 59.5 301.365 59.5779 301.527 59.7337C301.693 59.8894 301.776 60.0767 301.776 60.2955C301.776 60.5142 301.693 60.7015 301.527 60.8572C301.365 61.013 301.169 61.0909 300.941 61.0909ZM304.7 59.8182V70H303.526V59.8182H304.7ZM309.91 70.1591C309.175 70.1591 308.54 69.9967 308.006 69.6719C307.476 69.3438 307.067 68.8864 306.778 68.2997C306.493 67.7098 306.351 67.0237 306.351 66.2415C306.351 65.4593 306.493 64.7699 306.778 64.1733C307.067 63.5734 307.468 63.1061 307.981 62.7713C308.498 62.4332 309.102 62.2642 309.791 62.2642C310.189 62.2642 310.581 62.3305 310.969 62.4631C311.357 62.5956 311.71 62.8111 312.028 63.1094C312.346 63.4044 312.6 63.7955 312.789 64.2827C312.978 64.7699 313.072 65.3698 313.072 66.0824V66.5795H307.186V65.5653H311.879C311.879 65.1345 311.793 64.75 311.621 64.4119C311.451 64.0739 311.21 63.8071 310.895 63.6115C310.583 63.416 310.215 63.3182 309.791 63.3182C309.324 63.3182 308.919 63.4342 308.578 63.6662C308.24 63.8949 307.98 64.1932 307.797 64.5611C307.615 64.929 307.524 65.3234 307.524 65.7443V66.4205C307.524 66.9972 307.623 67.486 307.822 67.8871C308.024 68.2848 308.304 68.5881 308.662 68.7969C309.02 69.0024 309.436 69.1051 309.91 69.1051C310.219 69.1051 310.497 69.062 310.746 68.9759C310.997 68.8864 311.215 68.7538 311.397 68.5781C311.579 68.3991 311.72 68.1771 311.819 67.9119L312.953 68.2301C312.834 68.6146 312.633 68.9527 312.351 69.2443C312.07 69.5327 311.722 69.758 311.307 69.9205C310.893 70.0795 310.427 70.1591 309.91 70.1591ZM321.617 70.1591C320.927 70.1591 320.323 69.995 319.802 69.6669C319.285 69.3388 318.881 68.8797 318.589 68.2898C318.301 67.6998 318.157 67.0104 318.157 66.2216C318.157 65.4261 318.301 64.7318 318.589 64.1385C318.881 63.5452 319.285 63.0845 319.802 62.7564C320.323 62.4283 320.927 62.2642 321.617 62.2642C322.306 62.2642 322.909 62.4283 323.426 62.7564C323.947 63.0845 324.351 63.5452 324.64 64.1385C324.931 64.7318 325.077 65.4261 325.077 66.2216C325.077 67.0104 324.931 67.6998 324.64 68.2898C324.351 68.8797 323.947 69.3388 323.426 69.6669C322.909 69.995 322.306 70.1591 321.617 70.1591ZM321.617 69.1051C322.14 69.1051 322.571 68.9709 322.909 68.7024C323.247 68.4339 323.498 68.081 323.66 67.6435C323.823 67.206 323.904 66.732 323.904 66.2216C323.904 65.7112 323.823 65.2356 323.66 64.7947C323.498 64.3539 323.247 63.9976 322.909 63.7259C322.571 63.4541 322.14 63.3182 321.617 63.3182C321.093 63.3182 320.662 63.4541 320.324 63.7259C319.986 63.9976 319.736 64.3539 319.573 64.7947C319.411 65.2356 319.33 65.7112 319.33 66.2216C319.33 66.732 319.411 67.206 319.573 67.6435C319.736 68.081 319.986 68.4339 320.324 68.7024C320.662 68.9709 321.093 69.1051 321.617 69.1051ZM326.728 70V62.3636H327.862V63.517H327.941C328.08 63.1392 328.332 62.8326 328.697 62.5973C329.061 62.362 329.472 62.2443 329.93 62.2443C330.016 62.2443 330.124 62.246 330.253 62.2493C330.382 62.2526 330.48 62.2576 330.546 62.2642V63.4574C330.506 63.4474 330.415 63.4325 330.273 63.4126C330.134 63.3894 329.986 63.3778 329.83 63.3778C329.459 63.3778 329.128 63.4557 328.836 63.6115C328.548 63.764 328.319 63.9761 328.15 64.2479C327.984 64.5163 327.901 64.8229 327.901 65.1676V70H326.728Z" fill="#8C94A3"/>
<path d="M335.754 70V59.8182H336.927V63.5767H337.026C337.113 63.4441 337.232 63.2751 337.384 63.0696C337.54 62.8608 337.762 62.6752 338.05 62.5128C338.342 62.3471 338.737 62.2642 339.234 62.2642C339.877 62.2642 340.443 62.425 340.934 62.7464C341.425 63.0679 341.807 63.5237 342.082 64.1136C342.358 64.7036 342.495 65.3996 342.495 66.2017C342.495 67.0104 342.358 67.7114 342.082 68.3047C341.807 68.8946 341.426 69.352 340.939 69.6768C340.452 69.9983 339.89 70.1591 339.254 70.1591C338.763 70.1591 338.37 70.0779 338.075 69.9155C337.78 69.7498 337.553 69.5625 337.394 69.3537C337.235 69.1416 337.113 68.9659 337.026 68.8267H336.887V70H335.754ZM336.907 66.1818C336.907 66.7585 336.992 67.2673 337.161 67.7081C337.33 68.1456 337.577 68.4886 337.901 68.7372C338.226 68.9825 338.624 69.1051 339.095 69.1051C339.585 69.1051 339.994 68.9759 340.323 68.7173C340.654 68.4555 340.903 68.1042 341.068 67.6634C341.237 67.2192 341.322 66.7254 341.322 66.1818C341.322 65.6449 341.239 65.161 341.073 64.7301C340.911 64.2959 340.664 63.9529 340.332 63.701C340.004 63.4458 339.592 63.3182 339.095 63.3182C338.617 63.3182 338.216 63.4392 337.891 63.6811C337.567 63.9197 337.321 64.2545 337.156 64.6854C336.99 65.1129 336.907 65.6117 336.907 66.1818ZM344.15 70V62.3636H345.283V63.517H345.363C345.502 63.1392 345.754 62.8326 346.119 62.5973C346.483 62.362 346.894 62.2443 347.352 62.2443C347.438 62.2443 347.545 62.246 347.675 62.2493C347.804 62.2526 347.902 62.2576 347.968 62.2642V63.4574C347.928 63.4474 347.837 63.4325 347.695 63.4126C347.555 63.3894 347.408 63.3778 347.252 63.3778C346.881 63.3778 346.549 63.4557 346.258 63.6115C345.969 63.764 345.741 63.9761 345.572 64.2479C345.406 64.5163 345.323 64.8229 345.323 65.1676V70H344.15ZM352.089 70.1591C351.399 70.1591 350.794 69.995 350.274 69.6669C349.757 69.3388 349.353 68.8797 349.061 68.2898C348.773 67.6998 348.628 67.0104 348.628 66.2216C348.628 65.4261 348.773 64.7318 349.061 64.1385C349.353 63.5452 349.757 63.0845 350.274 62.7564C350.794 62.4283 351.399 62.2642 352.089 62.2642C352.778 62.2642 353.381 62.4283 353.898 62.7564C354.419 63.0845 354.823 63.5452 355.111 64.1385C355.403 64.7318 355.549 65.4261 355.549 66.2216C355.549 67.0104 355.403 67.6998 355.111 68.2898C354.823 68.8797 354.419 69.3388 353.898 69.6669C353.381 69.995 352.778 70.1591 352.089 70.1591ZM352.089 69.1051C352.612 69.1051 353.043 68.9709 353.381 68.7024C353.719 68.4339 353.97 68.081 354.132 67.6435C354.294 67.206 354.376 66.732 354.376 66.2216C354.376 65.7112 354.294 65.2356 354.132 64.7947C353.97 64.3539 353.719 63.9976 353.381 63.7259C353.043 63.4541 352.612 63.3182 352.089 63.3182C351.565 63.3182 351.134 63.4541 350.796 63.7259C350.458 63.9976 350.208 64.3539 350.045 64.7947C349.883 65.2356 349.802 65.7112 349.802 66.2216C349.802 66.732 349.883 67.206 350.045 67.6435C350.208 68.081 350.458 68.4339 350.796 68.7024C351.134 68.9709 351.565 69.1051 352.089 69.1051ZM358.67 70L356.344 62.3636H357.576L359.227 68.2102H359.307L360.937 62.3636H362.19L363.801 68.1903H363.88L365.531 62.3636H366.764L364.437 70H363.284L361.613 64.1335H361.494L359.824 70H358.67ZM373.584 64.0739L372.53 64.3722C372.464 64.1965 372.366 64.0258 372.237 63.8601C372.111 63.6911 371.939 63.5518 371.72 63.4425C371.501 63.3331 371.221 63.2784 370.88 63.2784C370.412 63.2784 370.023 63.3861 369.711 63.6016C369.403 63.8137 369.249 64.0838 369.249 64.4119C369.249 64.7036 369.355 64.9339 369.567 65.103C369.779 65.272 370.111 65.4129 370.562 65.5256L371.695 65.804C372.378 65.9697 372.887 66.2232 373.221 66.5646C373.556 66.9027 373.723 67.3385 373.723 67.8722C373.723 68.3097 373.598 68.7008 373.346 69.0455C373.097 69.3902 372.749 69.6619 372.302 69.8608C371.854 70.0597 371.334 70.1591 370.74 70.1591C369.962 70.1591 369.317 69.9901 368.807 69.652C368.296 69.3139 367.973 68.8201 367.837 68.1705L368.951 67.892C369.057 68.303 369.257 68.6113 369.552 68.8168C369.851 69.0223 370.24 69.125 370.721 69.125C371.267 69.125 371.702 69.009 372.023 68.777C372.348 68.5417 372.51 68.2599 372.51 67.9318C372.51 67.6667 372.418 67.4446 372.232 67.2656C372.046 67.0833 371.761 66.9474 371.377 66.858L370.104 66.5597C369.405 66.3939 368.891 66.1371 368.563 65.7891C368.238 65.4377 368.076 64.9986 368.076 64.4716C368.076 64.0407 368.197 63.6596 368.439 63.3281C368.684 62.9967 369.017 62.7365 369.438 62.5476C369.862 62.3587 370.343 62.2642 370.88 62.2642C371.635 62.2642 372.229 62.4299 372.66 62.7614C373.094 63.0928 373.402 63.5303 373.584 64.0739ZM378.551 70.1591C377.816 70.1591 377.181 69.9967 376.647 69.6719C376.117 69.3438 375.708 68.8864 375.419 68.2997C375.134 67.7098 374.992 67.0237 374.992 66.2415C374.992 65.4593 375.134 64.7699 375.419 64.1733C375.708 63.5734 376.109 63.1061 376.622 62.7713C377.139 62.4332 377.743 62.2642 378.432 62.2642C378.83 62.2642 379.222 62.3305 379.61 62.4631C379.998 62.5956 380.351 62.8111 380.669 63.1094C380.987 63.4044 381.241 63.7955 381.43 64.2827C381.619 64.7699 381.713 65.3698 381.713 66.0824V66.5795H375.827V65.5653H380.52C380.52 65.1345 380.434 64.75 380.262 64.4119C380.093 64.0739 379.851 63.8071 379.536 63.6115C379.224 63.416 378.856 63.3182 378.432 63.3182C377.965 63.3182 377.56 63.4342 377.219 63.6662C376.881 63.8949 376.621 64.1932 376.438 64.5611C376.256 64.929 376.165 65.3234 376.165 65.7443V66.4205C376.165 66.9972 376.264 67.486 376.463 67.8871C376.665 68.2848 376.946 68.5881 377.303 68.7969C377.661 69.0024 378.077 69.1051 378.551 69.1051C378.86 69.1051 379.138 69.062 379.387 68.9759C379.638 68.8864 379.856 68.7538 380.038 68.5781C380.22 68.3991 380.361 68.1771 380.46 67.9119L381.594 68.2301C381.475 68.6146 381.274 68.9527 380.992 69.2443C380.711 69.5327 380.363 69.758 379.948 69.9205C379.534 70.0795 379.068 70.1591 378.551 70.1591ZM390.556 62.3636V63.358H386.44V62.3636H390.556ZM387.673 70V61.3097C387.673 60.8722 387.775 60.5076 387.981 60.2159C388.186 59.9242 388.453 59.7055 388.781 59.5597C389.109 59.4138 389.456 59.3409 389.82 59.3409C390.109 59.3409 390.344 59.3641 390.526 59.4105C390.709 59.4569 390.844 59.5 390.934 59.5398L390.596 60.554C390.536 60.5341 390.453 60.5092 390.347 60.4794C390.245 60.4496 390.109 60.4347 389.94 60.4347C389.552 60.4347 389.272 60.5324 389.099 60.728C388.93 60.9235 388.846 61.2102 388.846 61.5881V70H387.673ZM392.06 70V62.3636H393.234V70H392.06ZM392.657 61.0909C392.428 61.0909 392.231 61.013 392.065 60.8572C391.903 60.7015 391.822 60.5142 391.822 60.2955C391.822 60.0767 391.903 59.8894 392.065 59.7337C392.231 59.5779 392.428 59.5 392.657 59.5C392.886 59.5 393.081 59.5779 393.244 59.7337C393.409 59.8894 393.492 60.0767 393.492 60.2955C393.492 60.5142 393.409 60.7015 393.244 60.8572C393.081 61.013 392.886 61.0909 392.657 61.0909ZM396.416 59.8182V70H395.243V59.8182H396.416ZM401.627 70.1591C400.891 70.1591 400.256 69.9967 399.723 69.6719C399.192 69.3438 398.783 68.8864 398.495 68.2997C398.21 67.7098 398.067 67.0237 398.067 66.2415C398.067 65.4593 398.21 64.7699 398.495 64.1733C398.783 63.5734 399.184 63.1061 399.698 62.7713C400.215 62.4332 400.818 62.2642 401.507 62.2642C401.905 62.2642 402.298 62.3305 402.686 62.4631C403.073 62.5956 403.426 62.8111 403.745 63.1094C404.063 63.4044 404.316 63.7955 404.505 64.2827C404.694 64.7699 404.789 65.3698 404.789 66.0824V66.5795H398.902V65.5653H403.595C403.595 65.1345 403.509 64.75 403.337 64.4119C403.168 64.0739 402.926 63.8071 402.611 63.6115C402.3 63.416 401.932 63.3182 401.507 63.3182C401.04 63.3182 400.636 63.4342 400.294 63.6662C399.956 63.8949 399.696 64.1932 399.514 64.5611C399.331 64.929 399.24 65.3234 399.24 65.7443V66.4205C399.24 66.9972 399.34 67.486 399.539 67.8871C399.741 68.2848 400.021 68.5881 400.379 68.7969C400.737 69.0024 401.153 69.1051 401.627 69.1051C401.935 69.1051 402.213 69.062 402.462 68.9759C402.714 68.8864 402.931 68.7538 403.113 68.5781C403.296 68.3991 403.436 68.1771 403.536 67.9119L404.669 68.2301C404.55 68.6146 404.349 68.9527 404.068 69.2443C403.786 69.5327 403.438 69.758 403.024 69.9205C402.609 70.0795 402.144 70.1591 401.627 70.1591Z" fill="#4E5566"/>
</svg>
