<svg width="22" height="21" viewBox="0 0 22 21" fill="none" xmlns="http://www.w3.org/2000/svg">
<path d="M11.0235 8.32739C10.5138 8.32739 10.025 8.52986 9.66466 8.89024C9.30427 9.25063 9.10181 9.73942 9.10181 10.2491C9.10181 10.7587 9.30427 11.2475 9.66466 11.6079C10.025 11.9683 10.5138 12.1708 11.0235 12.1708C11.5332 12.1708 12.0219 11.9683 12.3823 11.6079C12.7427 11.2475 12.9452 10.7587 12.9452 10.2491C12.9452 9.73942 12.7427 9.25063 12.3823 8.89024C12.0219 8.52986 11.5332 8.32739 11.0235 8.32739Z" fill="#002B79"/>
<path fill-rule="evenodd" clip-rule="evenodd" d="M11.0261 4.69751C8.79016 4.69751 6.77964 5.59515 5.33112 6.70717C4.60515 7.26403 4.00985 7.88239 3.5922 8.48366C3.18224 9.07469 2.91235 9.69475 2.91235 10.2491C2.91235 10.8034 3.1831 11.4234 3.5922 12.0136C4.0107 12.6157 4.60515 13.2341 5.33112 13.7901C6.77964 14.9038 8.79016 15.8006 11.0261 15.8006C13.2621 15.8006 15.2727 14.903 16.7212 13.7909C17.4471 13.2341 18.0424 12.6157 18.4592 12.0144C18.8692 11.4234 19.1399 10.8034 19.1399 10.2491C19.1399 9.69475 18.8692 9.07469 18.4592 8.48452C18.0424 7.88239 17.4471 7.26403 16.7212 6.70802C15.2727 5.5943 13.2621 4.69751 11.0261 4.69751ZM7.82333 10.2491C7.82333 9.39961 8.16077 8.58497 8.76142 7.98432C9.36206 7.38368 10.1767 7.04624 11.0261 7.04624C11.8756 7.04624 12.6902 7.38368 13.2909 7.98432C13.8915 8.58497 14.229 9.39961 14.229 10.2491C14.229 11.0985 13.8915 11.9131 13.2909 12.5138C12.6902 13.1144 11.8756 13.4519 11.0261 13.4519C10.1767 13.4519 9.36206 13.1144 8.76142 12.5138C8.16077 11.9131 7.82333 11.0985 7.82333 10.2491Z" fill="#002B79"/>
</svg>
