<svg width="24" height="24" viewBox="0 0 24 24" fill="none" xmlns="http://www.w3.org/2000/svg">
<path d="M20.443 18.6119L17.5107 15.6796L19.4356 14.996C19.4895 14.978 19.5255 14.96 19.5615 14.9241C19.6874 14.7981 19.7414 14.6002 19.6694 14.4204C19.6514 14.3664 19.6155 14.3124 19.5795 14.2584L19.5615 14.2405C19.4895 14.1685 19.3996 14.1325 19.3096 14.1145L13.0133 12.3696C12.9953 12.3696 12.9774 12.3696 12.9594 12.3516C12.9414 12.3516 12.9234 12.3516 12.9054 12.3516C12.7795 12.3516 12.6535 12.4055 12.5636 12.4955C12.4557 12.6034 12.4197 12.7293 12.4197 12.8733C12.4197 12.8912 12.4197 12.9272 12.4377 12.9452L14.5244 19.3495C14.5604 19.5114 14.6864 19.6373 14.8303 19.6913C15.0102 19.7632 15.208 19.7093 15.334 19.5833C15.3879 19.5294 15.4239 19.4754 15.4239 19.4034L15.8197 17.4966L18.698 20.3569C18.788 20.4468 18.9139 20.5008 19.0398 20.5008C19.1657 20.5008 19.2917 20.4468 19.3816 20.3569L20.461 19.2775C20.6409 19.0976 20.6409 18.7918 20.443 18.6119ZM19.0398 19.7452L15.8557 16.5611C15.7837 16.4891 15.7118 16.4532 15.6218 16.4532C15.5858 16.4532 15.5498 16.4532 15.5139 16.4712C15.3879 16.5071 15.298 16.6151 15.28 16.723L14.9562 18.378L13.2292 13.1251L18.5181 14.6002L16.7731 15.2119C16.6652 15.2479 16.5752 15.3378 16.5573 15.4637C16.5393 15.5717 16.5752 15.6976 16.6472 15.7876L19.8313 18.9717L19.0398 19.7452Z" fill="#A1A5B3"/>
<path d="M13.3913 19.5826C12.8876 19.6725 12.4198 19.7265 11.9521 19.7265C7.67063 19.7265 4.18067 16.2365 4.18067 11.9551C4.18067 7.67356 7.67063 4.1836 11.9521 4.1836C16.2336 4.1836 19.7236 7.67356 19.7236 11.9551C19.7236 12.2969 19.6876 12.6387 19.6336 13.0164C19.5976 13.1963 19.7236 13.3762 19.9215 13.4122C20.1014 13.4482 20.2812 13.3223 20.3172 13.1244C20.3892 12.7106 20.4072 12.3328 20.4072 11.9551C20.4072 7.29578 16.6114 3.5 11.9521 3.5C7.29285 3.5 3.49707 7.29578 3.49707 11.9551C3.49707 16.6143 7.29285 20.4101 11.9521 20.4101C12.4558 20.4101 12.9775 20.3561 13.5172 20.2482C13.6971 20.2122 13.823 20.0323 13.787 19.8524C13.7511 19.6725 13.5712 19.5466 13.3913 19.5826Z" fill="#A1A5B3"/>
<path d="M17.4929 12.7118C17.6728 12.7298 17.8526 12.5859 17.8706 12.406C17.8886 12.2081 17.9066 12.0282 17.9066 11.8483C17.9066 8.53826 15.2082 5.83984 11.8981 5.83984C8.58807 5.83984 5.88965 8.53826 5.88965 11.8483C5.88965 15.1584 8.58807 17.8568 11.8981 17.8568C12.168 17.8568 12.4558 17.8388 12.7256 17.8028C12.9055 17.7849 13.0495 17.605 13.0135 17.4251C12.9955 17.2452 12.8156 17.1013 12.6357 17.1372C12.3838 17.1732 12.15 17.1912 11.8981 17.1912C8.96585 17.1912 6.57325 14.7986 6.57325 11.8663C6.57325 8.93403 8.96585 6.54143 11.8981 6.54143C14.8304 6.54143 17.223 8.93403 17.223 11.8663C17.223 12.0282 17.205 12.1901 17.205 12.352C17.169 12.5319 17.295 12.6938 17.4929 12.7118Z" fill="#A1A5B3"/>
</svg>
