<svg width="512" height="512" viewBox="0 0 512 512" fill="none" xmlns="http://www.w3.org/2000/svg">
<g clip-path="url(#clip0_173_247)">
<path d="M230.4 294.4C230.4 299.112 234.221 302.933 238.934 302.933C243.646 302.933 247.467 299.112 247.467 294.4C247.467 266.171 221.355 242.841 187.734 239.411V230.4C187.734 225.687 183.913 221.866 179.2 221.866C174.487 221.866 170.667 225.687 170.667 230.4V239.411C137.046 242.824 110.934 266.171 110.934 294.4C110.934 322.628 137.046 345.958 170.667 349.388V426.086C146.492 423.031 128 407.253 128 388.266C128 383.553 124.18 379.733 119.467 379.733C114.754 379.733 110.934 383.553 110.934 388.266C110.934 416.494 137.046 439.825 170.667 443.255V452.266C170.667 456.979 174.487 460.8 179.2 460.8C183.913 460.8 187.734 456.979 187.734 452.266V443.255C221.355 439.842 247.467 416.494 247.467 388.266C247.467 360.038 221.355 336.708 187.734 333.277V256.58C211.909 259.635 230.4 275.413 230.4 294.4ZM128 294.4C128 275.413 146.492 259.635 170.667 256.58V332.219C146.492 329.164 128 313.386 128 294.4ZM230.4 388.266C230.4 407.253 211.909 423.031 187.734 426.086V350.446C211.909 353.501 230.4 369.28 230.4 388.266Z" fill="#0098AD"/>
<path d="M30.7206 257.476C26.4461 255.492 21.3726 257.349 19.3883 261.623C6.545 289.264 -0.0733727 319.387 0.000613536 349.866C0.000613536 457.446 60.2886 511.999 179.201 511.999C203.228 512.377 227.202 509.614 250.514 503.782C255.069 502.571 257.779 497.896 256.568 493.341C255.357 488.786 250.683 486.076 246.128 487.287C224.238 492.693 201.745 495.262 179.201 494.933C70.102 494.933 17.0673 447.479 17.0673 349.866C16.9137 321.857 22.9972 294.165 34.8763 268.799C36.8533 264.525 34.9934 259.457 30.7206 257.476Z" fill="#0098AD"/>
<path d="M486.4 213.333H298.666C284.528 213.333 273.066 224.795 273.066 238.933V486.4C273.066 500.538 284.528 512 298.666 512H486.4C500.538 512 512 500.538 512 486.4V238.933C512 224.795 500.538 213.333 486.4 213.333ZM494.933 486.4C494.933 491.113 491.113 494.933 486.4 494.933H298.666C293.954 494.933 290.133 491.113 290.133 486.4V238.933C290.133 234.22 293.954 230.4 298.666 230.4H486.4C491.113 230.4 494.933 234.22 494.933 238.933V486.4Z" fill="#0098AD"/>
<path d="M332.801 324.267H452.268C461.693 324.267 469.334 316.626 469.334 307.2V273.067C469.334 263.641 461.693 256 452.268 256H332.801C323.375 256 315.734 263.641 315.734 273.067V307.2C315.734 316.626 323.375 324.267 332.801 324.267ZM332.801 273.067H452.268V307.2H332.801V273.067Z" fill="#0098AD"/>
<path d="M349.868 349.866H324.268C319.555 349.866 315.734 353.687 315.734 358.4C315.734 363.112 319.555 366.933 324.268 366.933H349.868C354.581 366.933 358.401 363.112 358.401 358.4C358.401 353.687 354.581 349.866 349.868 349.866Z" fill="#0098AD"/>
<path d="M349.868 384H324.268C319.555 384 315.734 387.821 315.734 392.533C315.734 397.246 319.555 401.067 324.268 401.067H349.868C354.581 401.067 358.401 397.246 358.401 392.533C358.401 387.821 354.581 384 349.868 384Z" fill="#0098AD"/>
<path d="M349.868 418.133H324.268C319.555 418.133 315.734 421.953 315.734 426.666C315.734 431.379 319.555 435.199 324.268 435.199H349.868C354.581 435.199 358.401 431.379 358.401 426.666C358.401 421.953 354.581 418.133 349.868 418.133Z" fill="#0098AD"/>
<path d="M349.868 452.267H324.268C319.555 452.267 315.734 456.087 315.734 460.8C315.734 465.513 319.555 469.333 324.268 469.333H349.868C354.581 469.333 358.401 465.513 358.401 460.8C358.401 456.087 354.581 452.267 349.868 452.267Z" fill="#0098AD"/>
<path d="M409.602 349.866H384.002C379.289 349.866 375.469 353.687 375.469 358.4C375.469 363.112 379.289 366.933 384.002 366.933H409.602C414.315 366.933 418.135 363.112 418.135 358.4C418.135 353.687 414.315 349.866 409.602 349.866Z" fill="#0098AD"/>
<path d="M409.602 384H384.002C379.289 384 375.469 387.821 375.469 392.533C375.469 397.246 379.289 401.067 384.002 401.067H409.602C414.315 401.067 418.135 397.246 418.135 392.533C418.135 387.821 414.315 384 409.602 384Z" fill="#0098AD"/>
<path d="M409.602 418.133H384.002C379.289 418.133 375.469 421.953 375.469 426.666C375.469 431.379 379.289 435.199 384.002 435.199H409.602C414.315 435.199 418.135 431.379 418.135 426.666C418.135 421.953 414.315 418.133 409.602 418.133Z" fill="#0098AD"/>
<path d="M409.602 452.267H384.002C379.289 452.267 375.469 456.087 375.469 460.8C375.469 465.513 379.289 469.333 384.002 469.333H409.602C414.315 469.333 418.135 465.513 418.135 460.8C418.135 456.087 414.315 452.267 409.602 452.267Z" fill="#0098AD"/>
<path d="M469.333 349.866H443.733C439.02 349.866 435.199 353.687 435.199 358.4C435.199 363.112 439.02 366.933 443.733 366.933H469.333C474.045 366.933 477.866 363.112 477.866 358.4C477.866 353.687 474.045 349.866 469.333 349.866Z" fill="#0098AD"/>
<path d="M469.333 384H443.733C439.02 384 435.199 387.821 435.199 392.533C435.199 397.246 439.02 401.067 443.733 401.067H469.333C474.045 401.067 477.866 397.246 477.866 392.533C477.866 387.821 474.045 384 469.333 384Z" fill="#0098AD"/>
<path d="M469.333 418.133H443.733C439.02 418.133 435.199 421.953 435.199 426.666C435.199 431.379 439.02 435.199 443.733 435.199H469.333C474.045 435.199 477.866 431.379 477.866 426.666C477.866 421.953 474.045 418.133 469.333 418.133Z" fill="#0098AD"/>
<path d="M469.333 452.267H443.733C439.02 452.267 435.199 456.087 435.199 460.8C435.199 465.513 439.02 469.333 443.733 469.333H469.333C474.045 469.333 477.866 465.513 477.866 460.8C477.866 456.087 474.045 452.267 469.333 452.267Z" fill="#0098AD"/>
<path d="M53.9752 10.7771C31.507 31.3595 70.9822 94.8475 94.244 128H89.6019C81.675 127.971 74.0651 131.11 68.4648 136.721C62.8836 142.344 59.7466 149.943 59.7352 157.866C59.7719 168.5 65.477 178.306 74.7027 183.594C64.742 194.13 55.3587 205.197 46.5939 216.746C43.7662 220.516 44.5303 225.865 48.3006 228.693C52.0708 231.521 57.4195 230.756 60.2472 226.986C70.7876 213.196 82.188 200.086 94.3806 187.733H268.802C279.472 187.733 289.332 182.04 294.667 172.8C300.002 163.559 300.002 152.174 294.667 142.933C289.332 133.692 279.472 128 268.802 128H264.16C287.413 94.8475 326.888 31.3681 304.437 10.7771C294.112 1.32221 282.08 8.21714 271.473 14.2502C261.827 20.8559 250.597 24.7732 238.935 25.5995C229.678 25.58 220.853 21.6798 214.607 14.8475C205.269 5.35371 192.51 0.00683594 179.193 0.00683594C165.877 0.00683594 153.118 5.35371 143.78 14.8475C137.524 21.6907 128.681 25.5919 119.409 25.5995C107.754 24.7818 96.5289 20.8635 86.8968 14.2502C76.2984 8.20007 64.275 1.33074 53.9752 10.7771ZM277.873 148.804C281.544 152.466 282.643 157.982 280.656 162.772C278.669 167.562 273.988 170.679 268.802 170.666H89.6019C82.5326 170.666 76.8019 164.935 76.8019 157.866C76.8019 150.797 82.5326 145.066 89.6019 145.066H268.802C272.2 145.067 275.46 146.411 277.873 148.804ZM119.409 42.6662C132.731 42.6643 145.493 37.3114 154.831 27.8097C161.063 20.9633 169.892 17.0609 179.151 17.0609C188.409 17.0609 197.238 20.9633 203.471 27.8097C212.821 37.3187 225.599 42.6719 238.935 42.6662C253.587 41.8964 267.761 37.1981 279.972 29.0641C283.868 26.3142 288.275 24.3731 292.934 23.3553C301.689 31.3766 278.547 79.7521 243.168 128H221.869V85.3329C221.869 80.62 218.048 76.7995 213.335 76.7995C208.622 76.7995 204.802 80.62 204.802 85.3329V128H153.602V85.3329C153.602 80.62 149.781 76.7995 145.069 76.7995C140.356 76.7995 136.535 80.62 136.535 85.3329V128H115.27C79.891 79.7521 56.7486 31.3766 65.6232 23.2273C70.1854 24.4458 74.5117 26.4186 78.4232 29.0641C90.6154 37.197 104.773 41.8957 119.409 42.6662Z" fill="#0098AD"/>
</g>
<defs>
<clipPath id="clip0_173_247">
<rect width="512" height="512" fill="white"/>
</clipPath>
</defs>
</svg>
