<svg width="24" height="44" viewBox="0 0 24 44" fill="none" xmlns="http://www.w3.org/2000/svg">
<path d="M0.00785998 0.713825C0.00703698 0.573719 0.0477082 0.436503 0.124743 0.319473C0.201778 0.202442 0.311731 0.110834 0.440746 0.0561925C0.569761 0.00155089 0.712061 -0.0136792 0.849717 0.0124237C0.987373 0.0385265 1.11423 0.104794 1.21428 0.202873L23.1356 21.4926C23.2106 21.5552 23.2719 21.6326 23.3157 21.72C23.3594 21.8074 23.3846 21.9029 23.3897 22.0005C23.3948 22.0981 23.3796 22.1957 23.3452 22.2872C23.3109 22.3787 23.258 22.4621 23.1898 22.5321C23.1217 22.6022 23.0399 22.6575 22.9494 22.6944C22.8589 22.7314 22.7618 22.7493 22.6641 22.747C22.5664 22.7446 22.4702 22.7222 22.3816 22.6809C22.293 22.6397 22.2139 22.5806 22.1492 22.5074L0.227857 1.21768C0.159518 1.15255 0.104856 1.07444 0.0670811 0.987923C0.0293059 0.901406 0.00917234 0.808221 0.00785998 0.713825Z" fill="#E7E9ED"/>
<path d="M0.00714782 43.2932C0.00659247 43.1981 0.0251564 43.1039 0.0617289 43.0161C0.0983015 42.9284 0.152139 42.8488 0.220047 42.7823L22.1414 21.4926C22.2061 21.4193 22.2852 21.3603 22.3738 21.319C22.4624 21.2778 22.5586 21.2553 22.6563 21.253C22.754 21.2507 22.8511 21.2686 22.9416 21.3055C23.032 21.3425 23.1139 21.3978 23.182 21.4678C23.2501 21.5379 23.3031 21.6213 23.3374 21.7128C23.3718 21.8043 23.3869 21.9019 23.3818 21.9994C23.3768 22.097 23.3516 22.1925 23.3078 22.2799C23.2641 22.3673 23.2028 22.4448 23.1278 22.5074L1.20647 43.7971C1.10641 43.8952 0.979568 43.9614 0.841912 43.9875C0.704256 44.0136 0.56195 43.9984 0.432936 43.9438C0.303921 43.8891 0.193967 43.7975 0.116933 43.6805C0.0398979 43.5635 -0.000767864 43.4262 5.51514e-05 43.2861L0.00714782 43.2932Z" fill="#E7E9ED"/>
</svg>
