<svg width="24" height="24" viewBox="0 0 24 24" fill="none" xmlns="http://www.w3.org/2000/svg">
<path fill-rule="evenodd" clip-rule="evenodd" d="M4 8.36364C4 8.16291 4.16291 8 4.36364 8C4.56436 8 4.72727 8.16291 4.72727 8.36364V10.1818C4.72727 10.2785 4.76582 10.3709 4.83345 10.4393C4.90182 10.5069 4.99418 10.5455 5.09091 10.5455H9.45455C9.744 10.5455 10.0211 10.4305 10.2262 10.2262C10.4305 10.0211 10.5455 9.744 10.5455 9.45455V5.09091C10.5455 4.99418 10.5069 4.90182 10.4393 4.83346C10.3709 4.76582 10.2785 4.72727 10.1818 4.72727H5.09091C4.99418 4.72727 4.90182 4.76582 4.83345 4.83346C4.76582 4.90182 4.72727 4.99418 4.72727 5.09091V6.90909C4.72727 7.10982 4.56436 7.27273 4.36364 7.27273C4.16291 7.27273 4 7.10982 4 6.90909V5.09091C4 4.80145 4.11491 4.52437 4.31927 4.31927C4.52436 4.11491 4.80145 4 5.09091 4H10.1818C10.4713 4 10.7484 4.11491 10.9535 4.31927C11.1578 4.52437 11.2727 4.80145 11.2727 5.09091V9.45455C11.2727 9.93673 11.0815 10.3993 10.7404 10.7404C10.3993 11.0815 9.93673 11.2727 9.45455 11.2727H5.09091C4.80145 11.2727 4.52436 11.1578 4.31927 10.9535C4.11491 10.7484 4 10.4713 4 10.1818V8.36364ZM15.6364 4C15.8371 4 16 4.16291 16 4.36364C16 4.56436 15.8371 4.72727 15.6364 4.72727H13.8182C13.7215 4.72727 13.6291 4.76582 13.5607 4.83346C13.4931 4.90182 13.4545 4.99418 13.4545 5.09091V9.45455C13.4545 9.744 13.5695 10.0211 13.7738 10.2262C13.9789 10.4305 14.256 10.5455 14.5455 10.5455H18.9091C19.0058 10.5455 19.0982 10.5069 19.1665 10.4393C19.2342 10.3709 19.2727 10.2785 19.2727 10.1818V5.09091C19.2727 4.99418 19.2342 4.90182 19.1665 4.83346C19.0982 4.76582 19.0058 4.72727 18.9091 4.72727H17.0909C16.8902 4.72727 16.7273 4.56436 16.7273 4.36364C16.7273 4.16291 16.8902 4 17.0909 4H18.9091C19.1985 4 19.4756 4.11491 19.6807 4.31927C19.8851 4.52437 20 4.80145 20 5.09091V10.1818C20 10.4713 19.8851 10.7484 19.6807 10.9535C19.4756 11.1578 19.1985 11.2727 18.9091 11.2727H14.5455C14.0633 11.2727 13.6007 11.0815 13.2596 10.7404C12.9185 10.3993 12.7273 9.93673 12.7273 9.45455V5.09091C12.7273 4.80145 12.8422 4.52437 13.0465 4.31927C13.2516 4.11491 13.5287 4 13.8182 4H15.6364ZM8.36364 20C8.16291 20 8 19.8371 8 19.6364C8 19.4356 8.16291 19.2727 8.36364 19.2727H10.1818C10.3825 19.2727 10.5455 19.1098 10.5455 18.9091V14.5455C10.5455 14.256 10.4305 13.9789 10.2262 13.7738C10.0211 13.5695 9.744 13.4545 9.45455 13.4545H5.09091C4.99418 13.4545 4.90182 13.4931 4.83345 13.5607C4.76582 13.6291 4.72727 13.7215 4.72727 13.8182V18.9091C4.72727 19.0058 4.76582 19.0982 4.83345 19.1665C4.90182 19.2342 4.99418 19.2727 5.09091 19.2727H6.90909C7.10982 19.2727 7.27273 19.4356 7.27273 19.6364C7.27273 19.8371 7.10982 20 6.90909 20H5.09091C4.80145 20 4.52436 19.8851 4.31927 19.6807C4.11491 19.4756 4 19.1985 4 18.9091V13.8182C4 13.5287 4.11491 13.2516 4.31927 13.0465C4.52436 12.8422 4.80145 12.7273 5.09091 12.7273H9.45455C9.93673 12.7273 10.3993 12.9185 10.7404 13.2596C11.0815 13.6007 11.2727 14.0633 11.2727 14.5455V18.9091C11.2727 19.5113 10.784 20 10.1818 20H8.36364ZM20 15.6364C20 15.8371 19.8371 16 19.6364 16C19.4356 16 19.2727 15.8371 19.2727 15.6364V13.8182C19.2727 13.7215 19.2342 13.6291 19.1665 13.5607C19.0982 13.4931 19.0058 13.4545 18.9091 13.4545H14.5455C14.256 13.4545 13.9789 13.5695 13.7738 13.7738C13.5695 13.9789 13.4545 14.256 13.4545 14.5455V18.9091C13.4545 19.0058 13.4931 19.0982 13.5607 19.1665C13.6291 19.2342 13.7215 19.2727 13.8182 19.2727H18.9091C19.0058 19.2727 19.0982 19.2342 19.1665 19.1665C19.2342 19.0982 19.2727 19.0058 19.2727 18.9091V17.0909C19.2727 16.8902 19.4356 16.7273 19.6364 16.7273C19.8371 16.7273 20 16.8902 20 17.0909V18.9091C20 19.1985 19.8851 19.4756 19.6807 19.6807C19.4756 19.8851 19.1985 20 18.9091 20H13.8182C13.5287 20 13.2516 19.8851 13.0465 19.6807C12.8422 19.4756 12.7273 19.1985 12.7273 18.9091V14.5455C12.7273 14.0633 12.9185 13.6007 13.2596 13.2596C13.6007 12.9185 14.0633 12.7273 14.5455 12.7273H18.9091C19.1985 12.7273 19.4756 12.8422 19.6807 13.0465C19.8851 13.2516 20 13.5287 20 13.8182V15.6364Z" fill="#A1A5B3"/>
</svg>
