<svg width="51" height="51" viewBox="0 0 51 51" fill="none" xmlns="http://www.w3.org/2000/svg">
<path d="M48.1595 8.56641H45.6765V10.1427H48.1595C48.5813 10.1427 48.9237 10.4857 48.9237 10.9069V40.0841C48.9237 40.5059 48.5807 40.8483 48.1595 40.8483H30.5441H20.4559H2.84048C2.41866 40.8483 2.07629 40.5053 2.07629 40.0841V10.9069C2.07629 10.4851 2.41929 10.1427 2.84048 10.1427H9.35876V8.56641H2.84048C1.54981 8.56641 0.5 9.61622 0.5 10.9069V40.0841C0.5 41.3748 1.54981 42.4246 2.84048 42.4246H19.6677V48.9189H16.4206V50.4952H20.4559H30.5441H34.5794V48.9189H31.3323V42.4246H48.1595C49.4502 42.4246 50.5 41.3748 50.5 40.0841V10.9069C50.5 9.61622 49.4502 8.56641 48.1595 8.56641ZM29.756 48.9196H21.244V42.4252H29.756V48.9196Z" fill="white"/>
<path d="M9.16741 6.08469L15.6321 7.70071V16.6282C15.6321 17.5027 16.3433 18.214 17.2179 18.214H33.7815C34.6561 18.214 35.3673 17.5027 35.3673 16.6282V7.70071L39.844 6.58154V13.9838H41.4202V6.18746L41.832 6.08469C42.1825 5.99705 42.4291 5.68179 42.4291 5.31987C42.4291 4.95795 42.1832 4.64269 41.832 4.55505L25.6907 0.519738C25.5653 0.488212 25.4341 0.488212 25.3086 0.519738L9.16741 4.55505C8.81684 4.64269 8.57031 4.95795 8.57031 5.31987C8.57031 5.68179 8.81621 5.99705 9.16741 6.08469ZM33.791 16.6282C33.791 16.6333 33.7866 16.6377 33.7815 16.6377H17.2179C17.2128 16.6377 17.2084 16.6333 17.2084 16.6282V8.09478L25.3086 10.12C25.3717 10.1358 25.4354 10.1433 25.4997 10.1433C25.564 10.1433 25.6283 10.1358 25.6907 10.12L33.791 8.09478V16.6282ZM25.4997 2.09666L38.3912 5.31987L34.3881 6.3205L25.4997 8.54308L16.6113 6.32113L12.6081 5.31987L25.4997 2.09666Z" fill="white"/>
<path d="M11.1585 22.4717C11.1585 22.0367 10.8054 21.6836 10.3703 21.6836H6.33502C5.89996 21.6836 5.54688 22.0367 5.54688 22.4717V26.5071C5.54688 26.9421 5.89996 27.2952 6.33502 27.2952H10.3703C10.8054 27.2952 11.1585 26.9421 11.1585 26.5071V22.4717ZM9.58218 25.7189H7.12317V23.2599H9.58218V25.7189Z" fill="white"/>
<path d="M22.4701 23.6992H13.3906V25.2755H22.4701V23.6992Z" fill="white"/>
<path d="M33.3538 22.4717C33.3538 22.0367 33.0007 21.6836 32.5656 21.6836H28.5303C28.0953 21.6836 27.7422 22.0367 27.7422 22.4717V26.5071C27.7422 26.9421 28.0953 27.2952 28.5303 27.2952H32.5656C33.0007 27.2952 33.3538 26.9421 33.3538 26.5071V22.4717ZM31.7775 25.7189H29.3185V23.2599H31.7775V25.7189Z" fill="white"/>
<path d="M44.6654 23.6992H35.5859V25.2755H44.6654V23.6992Z" fill="white"/>
<path d="M10.3703 30.7617H6.33502C5.89996 30.7617 5.54688 31.1148 5.54688 31.5499V35.5852C5.54688 36.0202 5.89996 36.3733 6.33502 36.3733H10.3703C10.8054 36.3733 11.1585 36.0202 11.1585 35.5852V31.5499C11.1585 31.1148 10.8054 30.7617 10.3703 30.7617ZM9.58218 34.797H7.12317V32.338H9.58218V34.797Z" fill="white"/>
<path d="M22.4701 32.7773H13.3906V34.3536H22.4701V32.7773Z" fill="white"/>
<path d="M32.5656 30.7617H28.5303C28.0953 30.7617 27.7422 31.1148 27.7422 31.5499V35.5852C27.7422 36.0202 28.0953 36.3733 28.5303 36.3733H32.5656C33.0007 36.3733 33.3538 36.0202 33.3538 35.5852V31.5499C33.3538 31.1148 33.0007 30.7617 32.5656 30.7617ZM31.7775 34.797H29.3185V32.338H31.7775V34.797Z" fill="white"/>
<path d="M44.6654 32.7773H35.5859V34.3536H44.6654V32.7773Z" fill="white"/>
</svg>
