<svg width="20" height="20" viewBox="0 0 20 20" fill="none" xmlns="http://www.w3.org/2000/svg">
<path d="M7.41309 11.4086H12.2146" stroke="#6E7485" stroke-width="1.20038" stroke-linecap="round" stroke-linejoin="round"/>
<path d="M7.41309 9.00787H12.2146" stroke="#6E7485" stroke-width="1.20038" stroke-linecap="round" stroke-linejoin="round"/>
<path d="M12.2148 3.00598H15.2156C15.3748 3.00598 15.5274 3.06922 15.64 3.18177C15.7525 3.29433 15.8158 3.44699 15.8158 3.60617V16.2101C15.8158 16.3693 15.7525 16.522 15.64 16.6345C15.5274 16.7471 15.3748 16.8103 15.2156 16.8103H4.4122C4.25302 16.8103 4.10036 16.7471 3.9878 16.6345C3.87525 16.522 3.81201 16.3693 3.81201 16.2101V3.60617C3.81201 3.44699 3.87525 3.29433 3.9878 3.18177C4.10036 3.06922 4.25302 3.00598 4.4122 3.00598H7.41298" stroke="#6E7485" stroke-width="1.20038" stroke-linecap="round" stroke-linejoin="round"/>
<path d="M6.81299 5.40673V4.80655C6.81299 4.01065 7.12916 3.24734 7.69194 2.68456C8.25473 2.12177 9.01803 1.8056 9.81393 1.8056C10.6098 1.8056 11.3731 2.12177 11.9359 2.68456C12.4987 3.24734 12.8149 4.01065 12.8149 4.80655V5.40673H6.81299Z" stroke="#6E7485" stroke-width="1.20038" stroke-linecap="round" stroke-linejoin="round"/>
</svg>
