<svg width="22" height="17" viewBox="0 0 22 17" fill="none" xmlns="http://www.w3.org/2000/svg">
<path fill-rule="evenodd" clip-rule="evenodd" d="M11.4398 0.294434C8.99074 0.294434 7.02356 2.26161 7.02356 4.71067C7.02356 7.16046 8.99058 9.12779 11.4398 9.12779C13.889 9.12779 15.856 7.16046 15.856 4.71067C15.856 2.26161 13.8889 0.294434 11.4398 0.294434ZM11.4398 1.73193C13.095 1.73193 14.4185 3.05552 14.4185 4.71067C14.4185 6.3666 13.0951 7.69029 11.4398 7.69029C9.78454 7.69029 8.46106 6.3666 8.46106 4.71067C8.46106 3.05552 9.78465 1.73193 11.4398 1.73193ZM6.02894 1.19707C6.4259 1.19707 6.74769 1.51887 6.74769 1.91582C6.74769 2.31278 6.4259 2.63457 6.02894 2.63457C4.89009 2.63457 3.96645 3.55781 3.96645 4.69619C3.96645 5.83456 4.89009 6.7578 6.02894 6.7578C6.4259 6.7578 6.74769 7.0796 6.74769 7.47655C6.74769 7.87351 6.4259 8.1953 6.02894 8.1953C4.09632 8.1953 2.52895 6.62861 2.52895 4.69619C2.52895 2.76376 4.09632 1.19707 6.02894 1.19707ZM20.3622 4.69619C20.3622 2.76376 18.7949 1.19707 16.8622 1.19707C16.4653 1.19707 16.1435 1.51887 16.1435 1.91582C16.1435 2.31278 16.4653 2.63457 16.8622 2.63457C18.0011 2.63457 18.9247 3.55781 18.9247 4.69619C18.9247 5.83456 18.0011 6.7578 16.8622 6.7578C16.4653 6.7578 16.1435 7.0796 16.1435 7.47655C16.1435 7.87351 16.4653 8.1953 16.8622 8.1953C18.7949 8.1953 20.3622 6.62861 20.3622 4.69619ZM19.6424 9.99043C19.1822 9.88657 18.6904 9.81557 18.1904 9.78109C17.7944 9.75378 17.4512 10.0527 17.4239 10.4487C17.3966 10.8447 17.6955 11.1879 18.0915 11.2152C18.5194 11.2447 18.9388 11.3052 19.3465 11.397C19.9806 11.5214 20.394 11.7277 20.4966 11.9427C20.5738 12.105 20.5738 12.2958 20.4959 12.4601C20.3947 12.6729 19.9847 12.8781 19.3596 13.0067C18.9707 13.0866 18.7203 13.4667 18.8003 13.8555C18.8803 14.2443 19.2603 14.4947 19.6491 14.4147C20.6824 14.2023 21.4393 13.8234 21.7944 13.0768C22.0576 12.5218 22.0576 11.8781 21.7944 11.3245C21.4368 10.5751 20.6669 10.191 19.6424 9.99043ZM5.46677 10.4487C5.43946 10.0527 5.09628 9.75378 4.70027 9.78109C4.20022 9.81557 3.70843 9.88657 3.22852 9.99458L3.03068 10.0364C2.12254 10.2439 1.42971 10.6253 1.09716 11.3244C0.832801 11.8775 0.832801 12.5224 1.09744 13.0774C1.45099 13.8232 2.20786 14.2022 3.24156 14.4147C3.63038 14.4947 4.0104 14.2443 4.09035 13.8555C4.17031 13.4667 3.91992 13.0866 3.5311 13.0067C2.90619 12.8782 2.49662 12.6731 2.39568 12.4602C2.31704 12.2953 2.31704 12.1056 2.39471 11.9431C2.49724 11.7275 2.91025 11.5214 3.52442 11.4011L3.84377 11.3358C4.16211 11.2769 4.47823 11.2373 4.79917 11.2152C5.19519 11.1879 5.49408 10.8447 5.46677 10.4487ZM4.95114 13.4685C4.95114 11.182 7.31625 10.3779 11.4397 10.3779L11.7318 10.3792C15.683 10.4163 17.9282 11.2223 17.9282 13.4518C17.9282 15.6288 15.782 16.4624 12.0166 16.5369L11.4397 16.5424C7.30679 16.5424 4.95114 15.7525 4.95114 13.4685ZM16.4907 13.4518C16.4907 12.3875 14.7844 11.8154 11.4397 11.8154C8.09827 11.8154 6.38864 12.3966 6.38864 13.4685C6.38864 14.5329 8.09446 15.1049 11.4397 15.1049C14.7801 15.1049 16.4907 14.5232 16.4907 13.4518Z" fill="white"/>
</svg>
