<svg width="76" height="76" viewBox="0 0 76 76" fill="none" xmlns="http://www.w3.org/2000/svg">
<rect x="0.404175" y="0.40625" width="75.1552" height="75.1552" rx="37.5776" fill="white"/>
<mask id="mask0_411_23528" style="mask-type:alpha" maskUnits="userSpaceOnUse" x="21" y="21" width="34" height="34">
<rect x="21.2817" y="21.2852" width="33.4" height="33.4" fill="#D9D9D9"/>
</mask>
<g mask="url(#mask0_411_23528)">
<path d="M29.6317 40.7693C29.6317 41.9754 29.8753 43.1177 30.3623 44.1963C30.8494 45.2748 31.5453 46.22 32.4498 47.0318C32.4267 46.9158 32.4151 46.8114 32.4151 46.7186V46.4055C32.4151 45.6633 32.5542 44.9675 32.8326 44.318C33.1109 43.6686 33.5168 43.0771 34.0503 42.5436L37.9817 38.6818L41.9132 42.5436C42.4467 43.0771 42.8526 43.6686 43.1309 44.318C43.4092 44.9675 43.5484 45.6633 43.5484 46.4055V46.7186C43.5484 46.8114 43.5368 46.9158 43.5136 47.0318C44.4182 46.22 45.114 45.2748 45.6011 44.1963C46.0882 43.1177 46.3317 41.9754 46.3317 40.7693C46.3317 39.6095 46.1172 38.5136 45.6881 37.4815C45.259 36.4493 44.6385 35.5273 43.8267 34.7155C43.3628 35.017 42.8758 35.2432 42.3655 35.394C41.8552 35.5447 41.3333 35.6201 40.7998 35.6201C39.3618 35.6201 38.1151 35.1446 37.0597 34.1936C36.0044 33.2427 35.3955 32.0714 35.2332 30.6797C34.3286 31.4451 33.5284 32.2395 32.8326 33.0629C32.1367 33.8863 31.5511 34.7213 31.0756 35.5679C30.6001 36.4145 30.2406 37.2785 29.997 38.1599C29.7535 39.0413 29.6317 39.9111 29.6317 40.7693ZM37.9817 42.5784L35.9986 44.5268C35.7435 44.7819 35.5463 45.0718 35.4071 45.3966C35.268 45.7213 35.1984 46.0576 35.1984 46.4055C35.1984 47.1477 35.4709 47.7856 36.016 48.3191C36.5611 48.8525 37.2163 49.1193 37.9817 49.1193C38.7471 49.1193 39.4024 48.8525 39.9475 48.3191C40.4925 47.7856 40.7651 47.1477 40.7651 46.4055C40.7651 46.0344 40.6955 45.6923 40.5563 45.3792C40.4171 45.066 40.22 44.7819 39.9648 44.5268L37.9817 42.5784ZM37.9817 25.4609V30.0534C37.9817 30.842 38.2543 31.5031 38.7993 32.0366C39.3444 32.57 40.0112 32.8368 40.7998 32.8368C41.2173 32.8368 41.6059 32.7498 41.9654 32.5758C42.3249 32.4019 42.6438 32.1409 42.9221 31.793L43.5484 31.0276C45.2648 32.0018 46.6217 33.3586 47.619 35.0982C48.6164 36.8378 49.1151 38.7282 49.1151 40.7693C49.1151 43.8773 48.0365 46.5099 45.8794 48.667C43.7223 50.8241 41.0898 51.9026 37.9817 51.9026C34.8737 51.9026 32.2411 50.8241 30.084 48.667C27.9269 46.5099 26.8484 43.8773 26.8484 40.7693C26.8484 37.7772 27.8515 34.9359 29.8579 32.2453C31.8642 29.5548 34.5721 27.2933 37.9817 25.4609Z" fill="#EB9007"/>
</g>
</svg>
