<svg width="19" height="22" viewBox="0 0 19 22" fill="none" xmlns="http://www.w3.org/2000/svg">
<path d="M17.1079 6.46873C16.8008 6.62407 16.5237 6.75479 16.256 6.90445C16.2036 6.93476 16.1718 7.02759 16.1568 7.09768C15.9434 8.02595 15.7337 8.95611 15.524 9.88627C15.4154 10.3712 15.1664 10.752 14.7395 11.0172C13.7659 11.6197 12.7006 11.8129 11.5792 11.7466C10.8808 11.7049 10.2162 11.5249 9.57776 11.2237C8.90002 10.9036 8.51621 10.3978 8.37579 9.64757C8.19231 8.67195 7.95454 7.70768 7.73174 6.73963C7.71302 6.66007 7.64188 6.57292 7.5726 6.52746C7.12888 6.2414 6.6758 5.9705 6.23396 5.68065C6.10103 5.59351 5.98869 5.47037 5.8801 5.35102C5.46072 4.8831 5.43451 4.32424 5.88572 3.89042C6.25455 3.53616 6.67768 3.22358 7.11952 2.96973C8.57986 2.12861 10.1132 1.46177 11.7514 1.05068C12.2869 0.916176 12.798 1.02226 13.3054 1.1795C14.9679 1.69478 16.5612 2.37488 18.0234 3.33535C18.2836 3.50585 18.5327 3.71992 18.733 3.95862C19.1112 4.41139 19.0831 4.9172 18.6768 5.34534C18.5345 5.495 18.4877 5.64466 18.4896 5.84357C18.4971 7.08631 18.4933 8.32906 18.4896 9.57369C18.4896 9.89574 18.3211 10.1401 18.0346 10.2538C17.7875 10.3523 17.4786 10.2803 17.2932 10.0757C17.1566 9.92605 17.1023 9.74419 17.1023 9.54149C17.1041 8.61132 17.1023 7.67927 17.1041 6.74911C17.1041 6.67143 17.1041 6.59376 17.1041 6.47252L17.1079 6.46873ZM17.4486 4.62735C17.3325 4.544 17.2577 4.48338 17.179 4.43412C15.8198 3.59489 14.3725 2.95647 12.8467 2.49991C12.5209 2.4033 12.2045 2.36162 11.8656 2.45824C10.2761 2.91479 8.77832 3.57784 7.36853 4.44549C7.29364 4.49095 7.22624 4.54779 7.1345 4.61409C7.22062 4.67471 7.28428 4.72586 7.35355 4.76943C8.74087 5.64087 10.2293 6.28497 11.7926 6.75479C12.0791 6.84004 12.3618 6.86277 12.6613 6.78131C13.9944 6.41948 15.2488 5.86252 16.4657 5.21273C16.7915 5.03844 17.1023 4.83384 17.4505 4.62546L17.4486 4.62735ZM9.31378 7.37427C9.31378 7.39321 9.30629 7.41215 9.31003 7.4311C9.45794 8.09415 9.62457 8.75341 9.74814 9.42024C9.80056 9.70062 9.94472 9.84838 10.175 9.96205C10.864 10.3012 11.5942 10.4053 12.3468 10.3485C12.8935 10.3068 13.4196 10.1666 13.9045 9.89385C14.0543 9.81049 14.1479 9.7082 14.1835 9.52633C14.2677 9.10009 14.3782 8.68142 14.4755 8.25707C14.5223 8.05247 14.5616 7.84408 14.6085 7.61865C14.2714 7.73421 13.9588 7.82893 13.6555 7.94638C12.768 8.29117 11.8862 8.32337 10.9894 7.9729C10.4409 7.75883 9.88106 7.57318 9.31378 7.37048V7.37427Z" fill="white"/>
<path d="M0.0461938 11.0096C0.0461938 9.42202 0.0349604 7.8326 0.0499382 6.24507C0.0574272 5.47783 0.134189 4.71249 0.332645 3.96798C0.735175 2.45623 1.69937 1.53175 3.19903 1.18128C3.56037 1.09603 3.93108 1.04488 4.29991 0.993732C4.70805 0.936899 5.0619 1.22485 5.09935 1.62836C5.13492 2.01483 4.83911 2.33877 4.43471 2.38992C4.09209 2.43349 3.74947 2.48843 3.41434 2.56989C2.39959 2.81806 1.84166 3.50195 1.62449 4.51547C1.43726 5.39827 1.40918 6.29622 1.40356 7.19039C1.38858 9.76112 1.38484 12.3338 1.40918 14.9045C1.41667 15.7134 1.48968 16.528 1.5964 17.3293C1.71623 18.2349 2.12624 18.9927 3.02679 19.3166C3.51544 19.4928 4.04341 19.6064 4.56202 19.6424C7.08017 19.8167 9.60207 19.7258 12.1221 19.7201C12.9103 19.7201 13.7004 19.6803 14.4774 19.506C15.6438 19.2427 16.2841 18.5626 16.49 17.3597C16.681 16.2438 16.6791 15.1186 16.6828 13.9933C16.6828 13.8834 16.6903 13.7716 16.7165 13.6655C16.8064 13.3226 17.1116 13.1218 17.4636 13.1654C17.7968 13.2052 18.0683 13.478 18.0627 13.8209C18.0515 14.6525 18.0252 15.4861 17.9972 16.3177C17.9747 16.9618 17.8886 17.5984 17.7013 18.2159C17.237 19.7504 16.1773 20.5972 14.6515 20.906C13.7004 21.0974 12.7362 21.1258 11.772 21.1334C10.0346 21.1466 8.29899 21.1447 6.56156 21.1352C5.58426 21.1296 4.60695 21.1125 3.63901 20.9477C2.45763 20.745 1.4485 20.2562 0.795087 19.184C0.418768 18.5683 0.225928 17.8844 0.166017 17.1759C0.0817662 16.1851 0.0368326 15.1905 0.0124936 14.196C-0.0118454 13.1351 0.00687689 12.0742 0.00687689 11.0133C0.0181103 11.0133 0.0312159 11.0133 0.0424493 11.0133L0.0461938 11.0096Z" fill="white"/>
</svg>
