<svg width="22" height="23" viewBox="0 0 22 23" fill="none" xmlns="http://www.w3.org/2000/svg">
<mask id="mask0_310_4729" style="mask-type:alpha" maskUnits="userSpaceOnUse" x="0" y="0" width="22" height="23">
<rect y="0.5" width="22" height="22" fill="#D9D9D9"/>
</mask>
<g mask="url(#mask0_310_4729)">
<path d="M11.0001 21.1249C9.2126 21.1249 7.59051 20.6825 6.13382 19.7975C4.67714 18.9126 3.53455 17.7268 2.70603 16.2401V18.9743H1.33105V13.9327H6.3727V15.3076H3.76898C4.4318 16.6427 5.41134 17.7168 6.7076 18.5301C8.00388 19.3434 9.43471 19.75 11.0001 19.75C12.1224 19.75 13.1751 19.5426 14.1582 19.1277C15.1413 18.7129 16.0018 18.1467 16.7398 17.4292C17.4779 16.7118 18.0705 15.8644 18.5176 14.8872C18.9648 13.9101 19.206 12.8574 19.2413 11.7292H20.6163C20.5869 13.0313 20.3145 14.2523 19.7992 15.3923C19.2838 16.5322 18.5928 17.5282 17.7261 18.3802C16.8594 19.2323 15.8487 19.9027 14.6941 20.3916C13.5394 20.8805 12.3081 21.1249 11.0001 21.1249ZM10.3514 17.7403V16.5839C9.68035 16.4276 9.12242 16.1491 8.67761 15.7484C8.23278 15.3476 7.89168 14.807 7.65429 14.1266L8.81419 13.6542C9.03279 14.2512 9.34569 14.7048 9.75291 15.0151C10.1601 15.3253 10.6217 15.4804 11.1376 15.4804C11.6594 15.4804 12.1277 15.3503 12.5426 15.09C12.9574 14.8297 13.1649 14.4122 13.1649 13.8375C13.1649 13.3592 12.9865 12.9781 12.6298 12.6943C12.2732 12.4105 11.6077 12.0899 10.6335 11.7327C9.69092 11.3942 9.01106 11.0152 8.59387 10.5956C8.17667 10.1761 7.96806 9.62199 7.96806 8.93331C7.96806 8.34218 8.18137 7.801 8.60797 7.30976C9.03457 6.81852 9.63099 6.50532 10.3972 6.37017V5.25961H11.6488V6.37017C12.1635 6.41014 12.6374 6.60376 13.0705 6.95102C13.5036 7.2983 13.8159 7.71579 14.0075 8.20351L12.8757 8.65829C12.7183 8.31866 12.4932 8.03632 12.2006 7.81127C11.908 7.58621 11.5231 7.47368 11.0459 7.47368C10.476 7.47368 10.0291 7.60884 9.70531 7.87914C9.38153 8.14944 9.21964 8.50083 9.21964 8.93331C9.21964 9.36579 9.3777 9.70249 9.69383 9.94341C10.01 10.1843 10.6499 10.4693 11.6136 10.7984C12.7136 11.1956 13.4528 11.641 13.8312 12.1346C14.2096 12.6282 14.3988 13.1958 14.3988 13.8375C14.3988 14.2747 14.318 14.6584 14.1564 14.9886C13.9948 15.3188 13.7836 15.5965 13.5227 15.8215C13.2618 16.0466 12.9647 16.2243 12.6316 16.3548C12.2984 16.4852 11.9555 16.5769 11.603 16.6298V17.7403H10.3514ZM1.38395 11.2708C1.42509 9.93928 1.70626 8.70208 2.22746 7.55918C2.74866 6.4163 3.44556 5.42178 4.31815 4.57564C5.19076 3.72949 6.19997 3.06785 7.34579 2.59071C8.49162 2.11357 9.70972 1.875 11.0001 1.875C12.77 1.875 14.3921 2.31894 15.8664 3.20683C17.3407 4.09471 18.4833 5.2908 19.2942 6.79509V4.02568H20.6691V9.0673H15.6275V7.69235H18.2312C17.586 6.38078 16.6138 5.3125 15.3146 4.4875C14.0154 3.66248 12.5772 3.24998 11.0001 3.24998C9.90128 3.24998 8.8618 3.45446 7.88167 3.86343C6.90155 4.2724 6.03954 4.83269 5.29561 5.54428C4.55171 6.25587 3.95177 7.10026 3.49579 8.07744C3.03981 9.05464 2.79418 10.1191 2.75892 11.2708H1.38395Z" fill="white"/>
</g>
</svg>
