<svg width="24" height="24" viewBox="0 0 24 24" fill="none" xmlns="http://www.w3.org/2000/svg">
<path d="M17.6152 4.93933H16.3956V4.4473C16.3956 4.20129 16.1916 4 15.9422 4C15.6928 4 15.4888 4.20129 15.4888 4.4473V4.93933H8.51119V4.4473C8.51119 4.20129 8.30717 4 8.05781 4C7.80844 4 7.60442 4.20129 7.60442 4.4473V4.93933H6.38481C5.06999 4.93933 4 5.99497 4 7.29214V17.6472C4 18.9444 5.06999 20 6.38481 20H17.6152C18.93 20 20 18.9444 20 17.6472V7.29214C20 5.99497 18.93 4.93933 17.6152 4.93933ZM6.38481 5.83394H7.60442V6.32597C7.60442 6.57199 7.80844 6.77327 8.05781 6.77327C8.30717 6.77327 8.51119 6.57199 8.51119 6.32597V5.83394H15.4911V6.32597C15.4911 6.57199 15.6951 6.77327 15.9445 6.77327C16.1938 6.77327 16.3978 6.57199 16.3978 6.32597V5.83394H17.6175C18.4313 5.83394 19.0955 6.487 19.0955 7.29214V9.12385H4.90677V7.29214C4.90677 6.48924 5.57098 5.83394 6.38481 5.83394ZM17.6152 19.1054H6.38481C5.57098 19.1054 4.90677 18.4523 4.90677 17.6472V10.0207H19.091V17.6472C19.0932 18.4501 18.429 19.1054 17.6152 19.1054Z" fill="#A1A5B3"/>
<path d="M8.25041 11.2188H7.35951C6.77464 11.2188 6.29858 11.6884 6.29858 12.2654V13.0929C6.29858 13.67 6.77464 14.1396 7.35951 14.1396H8.25041C8.83528 14.1396 9.31133 13.67 9.31133 13.0929V12.2654C9.30907 11.6884 8.83528 11.2188 8.25041 11.2188ZM8.4023 13.0929C8.4023 13.1757 8.33429 13.245 8.24814 13.245H7.35724C7.27336 13.245 7.20309 13.1779 7.20309 13.0929V12.2654C7.20309 12.1827 7.2711 12.1134 7.35724 12.1134H8.24814C8.33202 12.1134 8.4023 12.1804 8.4023 12.2654V13.0929Z" fill="#A1A5B3"/>
<path d="M12.4443 11.2188H11.5534C10.9685 11.2188 10.4924 11.6884 10.4924 12.2654V13.0929C10.4924 13.67 10.9685 14.1396 11.5534 14.1396H12.4443C13.0291 14.1396 13.5052 13.67 13.5052 13.0929V12.2654C13.5052 11.6884 13.0291 11.2188 12.4443 11.2188ZM12.5984 13.0929C12.5984 13.1757 12.5304 13.245 12.4443 13.245H11.5534C11.4695 13.245 11.3992 13.1779 11.3992 13.0929V12.2654C11.3992 12.1827 11.4672 12.1134 11.5534 12.1134H12.4443C12.5281 12.1134 12.5984 12.1804 12.5984 12.2654V13.0929Z" fill="#A1A5B3"/>
<path d="M16.6403 11.2188H15.7494C15.1645 11.2188 14.6885 11.6884 14.6885 12.2654V13.0929C14.6885 13.67 15.1645 14.1396 15.7494 14.1396H16.6403C17.2252 14.1396 17.7012 13.67 17.7012 13.0929V12.2654C17.7012 11.6884 17.2252 11.2188 16.6403 11.2188ZM16.7945 13.0929C16.7945 13.1757 16.7264 13.245 16.6403 13.245H15.7494C15.6655 13.245 15.5952 13.1779 15.5952 13.0929V12.2654C15.5952 12.1827 15.6633 12.1134 15.7494 12.1134H16.6403C16.7242 12.1134 16.7945 12.1804 16.7945 12.2654V13.0929Z" fill="#A1A5B3"/>
<path d="M8.25041 15.1055H7.35951C6.77464 15.1055 6.29858 15.5751 6.29858 16.1522V16.9797C6.29858 17.5567 6.77464 18.0264 7.35951 18.0264H8.25041C8.83528 18.0264 9.31133 17.5567 9.31133 16.9797V16.1522C9.30907 15.5751 8.83528 15.1055 8.25041 15.1055ZM8.4023 16.9797C8.4023 17.0624 8.33429 17.1317 8.24814 17.1317H7.35724C7.27336 17.1317 7.20309 17.0647 7.20309 16.9797V16.1522C7.20309 16.0694 7.2711 16.0001 7.35724 16.0001H8.24814C8.33202 16.0001 8.4023 16.0672 8.4023 16.1522V16.9797Z" fill="#A1A5B3"/>
<path d="M12.4443 15.1055H11.5534C10.9685 15.1055 10.4924 15.5751 10.4924 16.1522V16.9797C10.4924 17.5567 10.9685 18.0264 11.5534 18.0264H12.4443C13.0291 18.0264 13.5052 17.5567 13.5052 16.9797V16.1522C13.5052 15.5751 13.0291 15.1055 12.4443 15.1055ZM12.5984 16.9797C12.5984 17.0624 12.5304 17.1317 12.4443 17.1317H11.5534C11.4695 17.1317 11.3992 17.0647 11.3992 16.9797V16.1522C11.3992 16.0694 11.4672 16.0001 11.5534 16.0001H12.4443C12.5281 16.0001 12.5984 16.0672 12.5984 16.1522V16.9797Z" fill="#A1A5B3"/>
<path d="M16.6403 15.1055H15.7494C15.1645 15.1055 14.6885 15.5751 14.6885 16.1522V16.9797C14.6885 17.5567 15.1645 18.0264 15.7494 18.0264H16.6403C17.2252 18.0264 17.7012 17.5567 17.7012 16.9797V16.1522C17.7012 15.5751 17.2252 15.1055 16.6403 15.1055ZM16.7945 16.9797C16.7945 17.0624 16.7264 17.1317 16.6403 17.1317H15.7494C15.6655 17.1317 15.5952 17.0647 15.5952 16.9797V16.1522C15.5952 16.0694 15.6633 16.0001 15.7494 16.0001H16.6403C16.7242 16.0001 16.7945 16.0672 16.7945 16.1522V16.9797Z" fill="#A1A5B3"/>
</svg>
