<svg width="77" height="77" viewBox="0 0 77 77" fill="none" xmlns="http://www.w3.org/2000/svg">
<path d="M27.0703 13.8359H26.4688C26.7996 13.8359 27.0703 13.5652 27.0703 13.2344V13.8359H49.9297V13.2344C49.9297 13.5652 50.2004 13.8359 50.5312 13.8359H49.9297V19.25H55.3438V13.2344C55.3438 10.58 53.1856 8.42188 50.5312 8.42188H26.4688C23.8144 8.42188 21.6562 10.58 21.6562 13.2344V19.25H27.0703V13.8359ZM64.9688 19.25H12.0312C10.7003 19.25 9.625 20.3253 9.625 21.6562V24.0625C9.625 24.3934 9.8957 24.6641 10.2266 24.6641H14.7684L16.6257 63.9912C16.746 66.5554 18.8665 68.5781 21.4307 68.5781H55.5693C58.141 68.5781 60.254 66.5629 60.3743 63.9912L62.2316 24.6641H66.7734C67.1043 24.6641 67.375 24.3934 67.375 24.0625V21.6562C67.375 20.3253 66.2997 19.25 64.9688 19.25ZM54.9903 63.1641H22.0097L20.1899 24.6641H56.8101L54.9903 63.1641Z" fill="#FF0000" style="mix-blend-mode:darken"/>
</svg>
