<svg width="24" height="24" viewBox="0 0 24 24" fill="none" xmlns="http://www.w3.org/2000/svg">
<path d="M12 3.25C10.2694 3.25 8.57769 3.76318 7.13876 4.72464C5.69983 5.6861 4.57832 7.05267 3.91606 8.65152C3.25379 10.2504 3.08051 12.0097 3.41813 13.707C3.75575 15.4044 4.58911 16.9635 5.81282 18.1872C7.03653 19.4109 8.59563 20.2442 10.293 20.5819C11.9903 20.9195 13.7496 20.7462 15.3485 20.0839C16.9473 19.4217 18.3139 18.3002 19.2754 16.8612C20.2368 15.4223 20.75 13.7306 20.75 12C20.7495 9.67951 19.8274 7.45422 18.1866 5.81339C16.5458 4.17256 14.3205 3.25052 12 3.25ZM12 19.8386C10.4497 19.8386 8.93417 19.3789 7.64512 18.5175C6.35607 17.6562 5.35138 16.432 4.7581 14.9997C4.16481 13.5674 4.00958 11.9913 4.31204 10.4708C4.61449 8.95023 5.36104 7.55353 6.45729 6.45728C7.55353 5.36104 8.95023 4.61449 10.4708 4.31203C11.9913 4.00958 13.5674 4.16481 14.9997 4.75809C16.432 5.35138 17.6562 6.35607 18.5175 7.64512C19.3789 8.93416 19.8386 10.4497 19.8386 12C19.8355 14.078 19.0086 16.0699 17.5393 17.5393C16.0699 19.0086 14.078 19.8355 12 19.8386Z" fill="#A1A5B3"/>
<path d="M12.4371 11.6368V9.13684C12.9132 9.21456 13.3598 9.41848 13.7304 9.72739C13.7652 9.75971 13.806 9.78485 13.8504 9.8014C13.8949 9.81795 13.9422 9.82557 13.9897 9.82384C14.0371 9.8221 14.0837 9.81104 14.1269 9.79128C14.1701 9.77152 14.2089 9.74346 14.2412 9.70869C14.2735 9.67392 14.2987 9.63313 14.3152 9.58864C14.3318 9.54415 14.3394 9.49684 14.3377 9.4494C14.3359 9.40197 14.3249 9.35534 14.3051 9.31218C14.2853 9.26902 14.2573 9.23018 14.2225 9.19786C13.722 8.75528 13.0985 8.4758 12.4351 8.39668V7.73527C12.4351 7.63868 12.3967 7.54605 12.3284 7.47776C12.2602 7.40946 12.1675 7.37109 12.0709 7.37109C11.9744 7.37109 11.8817 7.40946 11.8134 7.47776C11.7451 7.54605 11.7068 7.63868 11.7068 7.73527V8.39078C10.4666 8.51873 9.59259 9.3396 9.59259 10.4144C9.59259 11.6172 10.9705 12.001 11.7068 12.1861V14.9538C11.1418 14.8258 10.3583 14.4971 10.0473 14.2057C9.97971 14.1381 9.88801 14.1001 9.7924 14.1001C9.69678 14.1001 9.60509 14.1381 9.53748 14.2057C9.46987 14.2733 9.43188 14.365 9.43188 14.4607C9.43188 14.5563 9.46987 14.648 9.53748 14.7156C9.97448 15.1526 10.9961 15.5719 11.7028 15.6821V16.2845C11.7028 16.3811 11.7412 16.4737 11.8095 16.542C11.8778 16.6103 11.9704 16.6487 12.067 16.6487C12.1636 16.6487 12.2562 16.6103 12.3245 16.542C12.3928 16.4737 12.4312 16.3811 12.4312 16.2845V15.6939C13.3603 15.5837 14.5453 15.0384 14.5453 13.7983C14.5768 12.8396 13.8052 12.0561 12.4371 11.6368ZM11.7087 11.44C11.1182 11.2766 10.3308 11.003 10.3308 10.4183C10.3308 9.65259 11.006 9.23723 11.7087 9.12503V11.4361V11.44ZM12.4371 14.9833V12.4026C13.0926 12.6388 13.815 13.0778 13.815 13.8238C13.8406 14.627 12.9489 14.8809 12.4371 14.9715V14.9833Z" fill="#A1A5B3"/>
</svg>
