<svg width="3" height="12" viewBox="0 0 3 12" fill="none" xmlns="http://www.w3.org/2000/svg">
<path d="M2.93862 10.4418C2.93862 10.7748 2.80715 11.0941 2.57313 11.3296C2.33911 11.565 2.02171 11.6973 1.69075 11.6973C1.35979 11.6973 1.04239 11.565 0.808366 11.3296C0.574343 11.0941 0.442871 10.7748 0.442871 10.4418C0.442871 10.1089 0.574343 9.78955 0.808365 9.55411C1.04239 9.31867 1.35979 9.1864 1.69075 9.1864C2.02171 9.1864 2.33911 9.31867 2.57313 9.55411C2.80715 9.78955 2.93862 10.1089 2.93862 10.4418ZM2.93862 6.25706C2.93862 6.59002 2.80715 6.90934 2.57313 7.14478C2.33911 7.38022 2.02171 7.51249 1.69075 7.51249C1.35979 7.51249 1.04239 7.38022 0.808365 7.14478C0.574343 6.90934 0.442871 6.59002 0.442871 6.25706C0.442871 5.9241 0.574343 5.60477 0.808365 5.36933C1.04239 5.13389 1.35979 5.00163 1.69075 5.00163C2.02171 5.00163 2.33911 5.13389 2.57313 5.36933C2.80715 5.60477 2.93862 5.9241 2.93862 6.25706ZM2.93862 2.07228C2.93862 2.40525 2.80715 2.72457 2.57313 2.96001C2.33911 3.19545 2.02171 3.32772 1.69075 3.32772C1.35979 3.32772 1.04239 3.19545 0.808365 2.96001C0.574343 2.72457 0.442871 2.40525 0.442871 2.07228C0.442871 1.73932 0.574343 1.42 0.808365 1.18456C1.04239 0.94912 1.35979 0.816853 1.69075 0.816853C2.02171 0.816853 2.33911 0.94912 2.57313 1.18456C2.80715 1.42 2.93862 1.73932 2.93862 2.07228Z" fill="#A2A7B4"/>
</svg>
