<svg width="45" height="45" viewBox="0 0 45 45" fill="none" xmlns="http://www.w3.org/2000/svg">
<circle cx="22.5" cy="22.5" r="22.5" fill="#E4E4E4"/>
<path d="M18 22C18 22.5304 17.7893 23.0391 17.4142 23.4142C17.0391 23.7893 16.5304 24 16 24C15.4696 24 14.9609 23.7893 14.5858 23.4142C14.2107 23.0391 14 22.5304 14 22C14 21.4696 14.2107 20.9609 14.5858 20.5858C14.9609 20.2107 15.4696 20 16 20C16.5304 20 17.0391 20.2107 17.4142 20.5858C17.7893 20.9609 18 21.4696 18 22ZM25 22C25 22.5304 24.7893 23.0391 24.4142 23.4142C24.0391 23.7893 23.5304 24 23 24C22.4696 24 21.9609 23.7893 21.5858 23.4142C21.2107 23.0391 21 22.5304 21 22C21 21.4696 21.2107 20.9609 21.5858 20.5858C21.9609 20.2107 22.4696 20 23 20C23.5304 20 24.0391 20.2107 24.4142 20.5858C24.7893 20.9609 25 21.4696 25 22ZM32 22C32 22.5304 31.7893 23.0391 31.4142 23.4142C31.0391 23.7893 30.5304 24 30 24C29.4696 24 28.9609 23.7893 28.5858 23.4142C28.2107 23.0391 28 22.5304 28 22C28 21.4696 28.2107 20.9609 28.5858 20.5858C28.9609 20.2107 29.4696 20 30 20C30.5304 20 31.0391 20.2107 31.4142 20.5858C31.7893 20.9609 32 21.4696 32 22Z" fill="black"/>
</svg>
