<svg width="152" height="33" viewBox="0 0 152 33" fill="none" xmlns="http://www.w3.org/2000/svg">
<g clip-path="url(#clip0_1_700)">
<path d="M26.897 23.146L14.897 9.35599L18.5552 9.34406L30.5511 23.146" fill="url(#paint0_linear_1_700)"/>
<path d="M21.1788 23.1462L9.17871 9.35624H13.8363L25.8693 23.1475L21.1788 23.1462Z" fill="url(#paint1_linear_1_700)"/>
<path d="M27.6766 9.35611L23.5947 13.9309L25.3089 15.9009L31.1486 9.35611H27.6766Z" fill="url(#paint2_linear_1_700)"/>
<path d="M31.5378 4.36902H12.9889L14.927 8.13721H31.1981C31.1981 8.13721 38.5864 8.54555 38.5864 16.478C38.5864 24.4106 29.7866 24.2693 29.7866 24.2693L17.8762 24.274L19.3897 22.5235L17.6663 20.543L10.7271 28.3125H31.1981C31.1981 28.3125 42.9361 27.7092 42.9361 16.4287C42.9361 5.14855 31.5378 4.36902 31.5378 4.36902Z" fill="url(#paint3_linear_1_700)"/>
<path d="M31.4919 0.00105286H11.3409L13.279 3.76944H31.1525C31.1525 3.76944 43.7006 3.65698 43.7006 16.4786C43.7006 29.3003 29.5974 28.98 29.5974 28.98H8.92572L17.0992 19.8906L14.3788 16.7644L0 32.8579L31.4919 32.694C40.5284 32.694 47.8539 25.3753 47.8539 16.3476C47.8539 7.31957 40.5284 0.00105286 31.4919 0.00105286Z" fill="url(#paint4_linear_1_700)"/>
<path d="M21.0093 9.35636L20.3044 10.1463L22.9998 13.2437L26.4681 9.35636H21.0093Z" fill="url(#paint5_linear_1_700)"/>
<path d="M63.9102 10.2075C64.5261 9.61731 64.8344 8.78224 64.8344 7.70154C64.8344 6.6089 64.5261 5.76425 63.9102 5.16757C63.2942 4.57109 62.4454 4.27266 61.3643 4.27266H60.0819V11.0931H61.3643C62.4454 11.0931 63.2942 10.798 63.9102 10.2075ZM65.3153 1.90806C66.365 2.46718 67.1728 3.24906 67.7386 4.25369C68.3045 5.25871 68.5874 6.40806 68.5874 7.70154C68.5874 8.98289 68.3012 10.126 67.7292 11.1306C67.157 12.1358 66.346 12.9238 65.2964 13.4953C64.2465 14.0671 63.0301 14.3525 61.6471 14.3525H56.3855V1.06966H61.6471C63.0427 1.06966 64.2653 1.34932 65.3153 1.90806Z" fill="white"/>
<path d="M73.9408 6.92924H75.7703C76.273 6.92924 76.65 6.80975 76.9015 6.57116C77.1531 6.33276 77.279 5.987 77.279 5.53485C77.279 5.10812 77.1498 4.77194 76.8923 4.52689C76.6343 4.28204 76.2605 4.15962 75.7703 4.15962H73.9408V6.92924ZM76.9773 14.3525L74.3368 9.45382H73.9408V14.3525H70.2444V1.06966H76.0719C77.1406 1.06966 78.0455 1.25506 78.7876 1.62546C79.5293 1.99606 80.0886 2.50473 80.466 3.15167C80.8434 3.7986 81.0319 4.52396 81.0319 5.32774C81.0319 6.23224 80.7833 7.02663 80.2867 7.71112C79.7901 8.3958 79.064 8.88237 78.1086 9.17122L81.1071 14.3525H76.9773Z" fill="white"/>
<path d="M91.3233 10.1321C91.8702 9.51662 92.1437 8.69387 92.1437 7.66381C92.1437 6.60873 91.8702 5.77659 91.3233 5.1674C90.7763 4.55821 90.0315 4.25351 89.0883 4.25351C88.1327 4.25351 87.3847 4.55821 86.8442 5.1674C86.3036 5.77659 86.0334 6.60873 86.0334 7.66381C86.0334 8.70658 86.3036 9.53226 86.8442 10.1415C87.3847 10.7508 88.1327 11.0551 89.0883 11.0551C90.0315 11.0551 90.7763 10.7475 91.3233 10.1321ZM85.656 13.6082C84.6125 13.0241 83.7858 12.2139 83.1762 11.1778C82.5663 10.1415 82.2615 8.9704 82.2615 7.66381C82.2615 6.35762 82.5663 5.18618 83.1762 4.14986C83.7858 3.11355 84.6125 2.30664 85.656 1.72874C86.6996 1.15123 87.8438 0.861989 89.0883 0.861989C90.3455 0.861989 91.493 1.15123 92.5303 1.72874C93.5674 2.30664 94.388 3.11355 94.9915 4.14986C95.595 5.18618 95.8966 6.35762 95.8966 7.66381C95.8966 8.9704 95.595 10.1415 94.9915 11.1778C94.388 12.2139 93.5642 13.0241 92.5207 13.6082C91.4769 14.1922 90.3331 14.4844 89.0883 14.4844C87.8438 14.4844 86.6996 14.1922 85.656 13.6082Z" fill="white"/>
<path d="M104.29 5.4973C104.29 4.53002 103.768 4.04658 102.725 4.04658H101.254V6.92924H102.725C103.768 6.92924 104.29 6.45186 104.29 5.4973ZM107.505 7.69215C107.134 8.3516 106.575 8.87924 105.827 9.27487C105.079 9.6707 104.164 9.86842 103.083 9.86842H101.254V14.3525H97.5574V1.06966H103.083C104.152 1.06966 105.06 1.25799 105.808 1.63485C106.556 2.01151 107.119 2.53289 107.496 3.1986C107.873 3.86451 108.062 4.63054 108.062 5.4973C108.062 6.30127 107.876 7.0327 107.505 7.69215Z" fill="white"/>
<path d="M110.755 13.382C109.762 12.6473 109.228 11.5953 109.152 10.2261H113.094C113.132 10.691 113.27 11.0303 113.509 11.2435C113.747 11.4572 114.056 11.5638 114.433 11.5638C114.772 11.5638 115.052 11.4791 115.272 11.3096C115.492 11.14 115.602 10.9044 115.602 10.603C115.602 10.2138 115.42 9.91245 115.055 9.69869C114.69 9.48513 114.1 9.24654 113.283 8.98272C112.415 8.69387 111.714 8.4146 111.18 8.14432C110.645 7.87425 110.18 7.47881 109.784 6.95743C109.388 6.43604 109.19 5.75469 109.19 4.91297C109.19 4.05892 109.404 3.3275 109.831 2.71812C110.259 2.10873 110.85 1.64719 111.604 1.33331C112.358 1.01942 113.213 0.861989 114.169 0.861989C115.715 0.861989 116.951 1.2234 117.875 1.94563C118.799 2.66805 119.292 3.68207 119.355 4.98826H115.338C115.325 4.58637 115.203 4.285 114.97 4.08396C114.738 3.88331 114.439 3.78259 114.075 3.78259C113.798 3.78259 113.571 3.86434 113.396 4.02744C113.219 4.19093 113.132 4.42307 113.132 4.72444C113.132 4.97614 113.229 5.19263 113.424 5.3747C113.619 5.55678 113.861 5.71381 114.15 5.84563C114.439 5.97763 114.867 6.14406 115.432 6.34491C116.275 6.63396 116.97 6.91949 117.516 7.20208C118.063 7.48487 118.535 7.8805 118.931 8.38917C119.327 8.89784 119.525 9.54165 119.525 10.3204C119.525 11.1119 119.327 11.8214 118.931 12.4493C118.535 13.0777 117.962 13.5738 117.215 13.9379C116.466 14.3023 115.583 14.4844 114.565 14.4844C113.018 14.4844 111.748 14.1169 110.755 13.382Z" fill="white"/>
<path d="M133.14 1.06966V14.3525H129.444V9.02044H124.936V14.3525H121.24V1.06966H124.936V6.06249H129.444V1.06966H133.14Z" fill="white"/>
<path d="M138.948 1.06966V14.3525H135.251V1.06966H138.948Z" fill="white"/>
<path d="M147.796 5.4973C147.796 4.53002 147.274 4.04658 146.231 4.04658H144.76V6.92924H146.231C147.274 6.92924 147.796 6.45186 147.796 5.4973ZM151.011 7.69215C150.64 8.3516 150.081 8.87924 149.333 9.27487C148.585 9.6707 147.67 9.86842 146.589 9.86842H144.76V14.3525H141.063V1.06966H146.589C147.658 1.06966 148.566 1.25799 149.314 1.63485C150.062 2.01151 150.625 2.53289 151.002 3.1986C151.379 3.86451 151.568 4.63054 151.568 5.4973C151.568 6.30127 151.382 7.0327 151.011 7.69215Z" fill="white"/>
<path d="M62.7871 28.9258L61.1461 24.1858L59.5051 28.9258H62.7871ZM63.4045 30.7436H58.8877L58.1403 32.9026H55.752L59.8301 21.5564H62.4784L66.5565 32.9026H64.1519L63.4045 30.7436Z" fill="white"/>
<path d="M68.2844 24.2264C68.7881 23.3445 69.4758 22.6576 70.3478 22.165C71.2195 21.6728 72.1973 21.4266 73.2804 21.4266C74.5479 21.4266 75.6578 21.751 76.6113 22.4003C77.5645 23.0498 78.2304 23.948 78.6098 25.095H75.9937C75.7338 24.5539 75.3683 24.1481 74.8971 23.8774C74.426 23.6071 73.8816 23.4718 73.2642 23.4718C72.6033 23.4718 72.0157 23.6259 71.5014 23.9343C70.9868 24.2427 70.5859 24.6784 70.2991 25.2411C70.0119 25.8039 69.8684 26.4639 69.8684 27.2214C69.8684 27.9679 70.0119 28.6253 70.2991 29.1935C70.5859 29.7616 70.9868 30.1999 71.5014 30.5083C72.0157 30.8167 72.6033 30.971 73.2642 30.971C73.8816 30.971 74.426 30.8329 74.8971 30.5569C75.3683 30.281 75.7338 29.8727 75.9937 29.3316H78.6098C78.2304 30.4895 77.567 31.3903 76.6194 32.0341C75.6715 32.6781 74.5585 33 73.2804 33C72.1973 33 71.2195 32.754 70.3478 32.2614C69.4758 31.7691 68.7881 31.0846 68.2844 30.2079C67.7807 29.3316 67.5288 28.336 67.5288 27.2214C67.5288 26.1069 67.7807 25.1086 68.2844 24.2264Z" fill="white"/>
<path d="M86.8979 28.9258L85.257 24.1858L83.616 28.9258H86.8979ZM87.5154 30.7436H82.9986L82.2512 32.9026H79.8628L83.9409 21.5564H86.5891L90.6674 32.9026H88.2627L87.5154 30.7436Z" fill="white"/>
<path d="M98.8422 29.9969C99.4921 29.3478 99.817 28.4333 99.817 27.2538C99.817 26.0744 99.4921 25.1517 98.8422 24.4862C98.1921 23.8206 97.2715 23.488 96.0801 23.488H94.4714V30.971H96.0801C97.2715 30.971 98.1921 30.6462 98.8422 29.9969ZM99.3051 22.2704C100.21 22.7358 100.908 23.3986 101.401 24.2589C101.894 25.1192 102.14 26.1174 102.14 27.2538C102.14 28.3899 101.894 29.3828 101.401 30.2323C100.908 31.0821 100.21 31.7393 99.3051 32.2044C98.4008 32.6699 97.3527 32.9026 96.1612 32.9026H92.1968V21.5726H96.1612C97.3527 21.5726 98.4008 21.8053 99.3051 22.2704Z" fill="white"/>
<path d="M106.119 23.4068V26.2473H109.937V28.049H106.119V31.0521H110.425V32.9026H103.844V21.5564H110.425V23.4068H106.119Z" fill="white"/>
<path d="M124.854 21.5726V32.9026H122.579V25.5332L119.541 32.9026H117.819L114.764 25.5332V32.9026H112.49V21.5726H115.073L118.68 29.9969L122.287 21.5726H124.854Z" fill="white"/>
<path d="M136.109 21.5726L132.274 28.9582V32.9026H130V28.9582L126.149 21.5726H128.716L131.153 26.7505L133.574 21.5726H136.109Z" fill="white"/>
<path d="M148.245 32.9026L146.02 29.6725L144.119 32.9026H140.495L144.216 27.0428L140.365 21.459H144.119L146.28 24.6078L148.132 21.459H151.755L148.083 27.2214L151.999 32.9026H148.245Z" fill="white"/>
</g>
<defs>
<linearGradient id="paint0_linear_1_700" x1="14.8303" y1="16.387" x2="30.4377" y2="16.3298" gradientUnits="userSpaceOnUse">
<stop stop-color="#00C7CC"/>
<stop offset="1" stop-color="#009CD8"/>
</linearGradient>
<linearGradient id="paint1_linear_1_700" x1="9.10765" y1="16.3937" x2="25.7483" y2="16.3286" gradientUnits="userSpaceOnUse">
<stop stop-color="#00C7CC"/>
<stop offset="1" stop-color="#009CD8"/>
</linearGradient>
<linearGradient id="paint2_linear_1_700" x1="23.5626" y1="12.6958" x2="31.0939" y2="12.6677" gradientUnits="userSpaceOnUse">
<stop stop-color="#00C7CC"/>
<stop offset="1" stop-color="#009CD8"/>
</linearGradient>
<linearGradient id="paint3_linear_1_700" x1="10.5899" y1="16.5871" x2="42.7026" y2="16.4473" gradientUnits="userSpaceOnUse">
<stop stop-color="#00C7CC"/>
<stop offset="1" stop-color="#009CD8"/>
</linearGradient>
<linearGradient id="paint4_linear_1_700" x1="-0.203737" y1="16.7675" x2="47.5068" y2="16.5427" gradientUnits="userSpaceOnUse">
<stop stop-color="#00C7CC"/>
<stop offset="1" stop-color="#009CD8"/>
</linearGradient>
<linearGradient id="paint5_linear_1_700" x1="20.2782" y1="11.34" x2="26.4234" y2="11.3085" gradientUnits="userSpaceOnUse">
<stop stop-color="#00C7CC"/>
<stop offset="1" stop-color="#009CD8"/>
</linearGradient>
<clipPath id="clip0_1_700">
<rect width="152" height="33" fill="white"/>
</clipPath>
</defs>
</svg>
