<svg width="77" height="77" viewBox="0 0 77 77" fill="none" xmlns="http://www.w3.org/2000/svg">
<path d="M22.4531 54.5808L36.6115 54.5327L67.5142 23.9252C68.7269 22.7125 69.3943 21.1019 69.3943 19.3886C69.3943 17.6754 68.7269 16.0648 67.5142 14.8521L62.4257 9.76364C60.0002 7.33814 55.7685 7.35097 53.3622 9.75401L22.4531 40.3679V54.5808V54.5808ZM57.8892 14.3002L62.9872 19.379L57.8635 24.4546L52.7751 19.3694L57.8892 14.3002ZM28.8698 43.0437L48.216 23.8803L53.3045 28.9687L33.9614 48.1257L28.8698 48.1417V43.0437Z" fill="#0098AD"/>
<path d="M16.0417 67.375H60.9583C64.4971 67.375 67.375 64.4971 67.375 60.9583V33.1485L60.9583 39.5652V60.9583H26.1736C26.0902 60.9583 26.0035 60.9904 25.9201 60.9904C25.8143 60.9904 25.7084 60.9615 25.5993 60.9583H16.0417V16.0417H38.0091L44.4258 9.625H16.0417C12.5029 9.625 9.625 12.5029 9.625 16.0417V60.9583C9.625 64.4971 12.5029 67.375 16.0417 67.375Z" fill="#0098AD"/>
</svg>
