<svg width="15" height="14" viewBox="0 0 15 14" fill="none" xmlns="http://www.w3.org/2000/svg">
<path d="M2.17588 14C1.79088 14 1.4613 13.8631 1.18713 13.5893C0.912962 13.3154 0.775879 12.9863 0.775879 12.6017V2.81398C0.775879 2.42946 0.912962 2.10029 1.18713 1.82647C1.4613 1.55264 1.79088 1.41573 2.17588 1.41573H8.42338L7.02338 2.81398H2.17588V12.6017H11.9759V7.74282L13.3759 6.34457V12.6017C13.3759 12.9863 13.2388 13.3154 12.9646 13.5893C12.6905 13.8631 12.3609 14 11.9759 14H2.17588ZM4.97588 9.80524V6.83396L11.3984 0.419476C11.5384 0.27965 11.6959 0.174782 11.8709 0.104869C12.0459 0.0349563 12.2209 0 12.3959 0C12.5825 0 12.7605 0.0349563 12.9296 0.104869C13.0988 0.174782 13.2534 0.27965 13.3934 0.419476L14.3734 1.41573C14.5017 1.55556 14.6009 1.70995 14.6709 1.8789C14.7409 2.04786 14.7759 2.21973 14.7759 2.39451C14.7759 2.56929 14.7438 2.74116 14.6796 2.91011C14.6155 3.07907 14.5134 3.23346 14.3734 3.37328L7.95088 9.80524H4.97588ZM6.37588 8.40699H7.35588L11.4159 4.35206L10.9259 3.86267L10.4184 3.37328L6.37588 7.41074V8.40699Z" fill="#1C1B1F"/>
</svg>
