<svg width="512" height="512" viewBox="0 0 512 512" fill="none" xmlns="http://www.w3.org/2000/svg">
<path d="M504.5 328C504.5 305.835 486.603 287.772 464.5 287.503V240C464.5 208.852 439.156 183.5 408 183.5H360.5V135.504C360.5 121.357 353.165 108.563 340.887 101.266L340.887 101.266C328.348 93.8346 313.212 93.5556 300.665 100.405C300.662 100.406 300.659 100.408 300.656 100.409L288.5 106.464V81.1919C288.5 64.4655 279.238 49.852 264.327 43.0886L264.326 43.0885C249.986 36.5907 233.656 39.0559 221.726 49.5119L68.8039 183.5H64C32.8438 183.5 7.5 208.852 7.5 240V448C7.5 479.148 32.8438 504.5 64 504.5H408C439.156 504.5 464.5 479.148 464.5 448V400.497C486.603 400.228 504.5 382.165 504.5 360V328ZM308.519 115.471L308.527 115.467L308.535 115.463C316.021 111.379 324.873 111.528 332.209 115.886L332.464 115.456L332.209 115.886C339.284 120.086 343.5 127.412 343.5 135.504V183.5H172.091L308.519 115.471ZM257.305 58.5752L257.512 58.1199L257.305 58.5752C264.162 61.6862 271.5 69.2562 271.5 81.1919V114.939L134.002 183.5H94.6013L232.93 62.296C239.889 56.1987 248.992 54.802 257.305 58.5752ZM447.5 448C447.5 469.78 429.78 487.5 408 487.5H64C42.2201 487.5 24.5 469.78 24.5 448V240C24.5 218.22 42.2201 200.5 64 200.5H408C429.78 200.5 447.5 218.22 447.5 240V287.5H368C357.907 287.5 350.299 290.161 344.577 294.401C338.86 298.637 335.061 304.424 332.537 310.618C327.5 322.978 327.5 337.057 327.5 343.98V344V344.02C327.5 350.943 327.5 365.022 332.537 377.382C335.061 383.576 338.86 389.362 344.577 393.599C350.299 397.839 357.907 400.5 368 400.5H447.5V448ZM487.5 360C487.5 372.956 476.956 383.5 464 383.5H368C360.877 383.5 355.07 381.822 351.003 376.155C346.9 370.438 344.5 360.574 344.5 344C344.5 327.426 346.9 317.562 351.003 311.844C355.07 306.178 360.877 304.5 368 304.5H464C476.956 304.5 487.5 315.044 487.5 328V360Z" fill="#0098AD" stroke="#0098AD"/>
<path d="M392 311.5C374.076 311.5 359.5 326.076 359.5 344C359.5 361.924 374.076 376.5 392 376.5C409.924 376.5 424.5 361.924 424.5 344C424.5 326.076 409.924 311.5 392 311.5ZM392 359.5C383.452 359.5 376.5 352.548 376.5 344C376.5 335.452 383.452 328.5 392 328.5C400.548 328.5 407.5 335.452 407.5 344C407.5 352.548 400.548 359.5 392 359.5Z" fill="#0098AD" stroke="#0098AD"/>
<path d="M387.621 136.716L387.621 136.716C385.191 138.177 383.652 140.744 383.507 143.567L384.007 143.592L383.507 143.567C383.363 146.396 384.629 149.108 386.89 150.808L386.891 150.808L418.89 174.808C420.395 175.939 422.197 176.508 423.991 176.508C425.632 176.508 427.272 176.032 428.707 175.081L428.707 175.081L430.115 174.145L430.116 174.144C459.29 154.689 477.595 123.136 480.176 88.5083H490.239C495.977 88.5083 501.103 85.0826 503.293 79.7833C505.387 74.7169 504.39 68.9696 500.754 64.931L464.24 15.814C460.345 10.575 454.365 7.57227 447.847 7.57227L447.846 7.57227C441.32 7.58046 435.339 10.5829 431.453 15.8307L395.163 64.691C391.495 68.761 390.474 74.5642 392.593 79.6873C394.806 85.0427 399.989 88.5003 405.783 88.5003H416.418C417.525 106.615 408.49 124.191 392.621 133.716C392.621 133.716 392.621 133.716 392.621 133.716L387.621 136.716ZM424.203 157.538L406.916 144.563C426.821 129.694 436.884 104.66 432.488 79.9283C432.443 79.0124 432.248 78.0792 431.877 77.1781L431.877 77.1774L431.734 76.8317C431.73 76.8195 431.725 76.8075 431.72 76.7959C431.715 76.7856 431.711 76.7758 431.706 76.7664C430.944 74.9 429.58 73.449 427.935 72.5436C427.925 72.5364 427.917 72.5317 427.916 72.5309L427.916 72.5308C427.906 72.5245 427.897 72.5195 427.895 72.5182L427.875 72.5067L427.825 72.4791C427.785 72.457 427.729 72.4267 427.668 72.3936C427.545 72.3271 427.398 72.2475 427.299 72.1945C427.251 72.1688 427.21 72.1474 427.191 72.1375L427.182 72.1325L427.181 72.1324C427.18 72.1317 427.17 72.1265 427.157 72.121C427.154 72.1194 427.145 72.1155 427.133 72.111C427.13 72.1097 427.124 72.1075 427.117 72.1053C427.112 72.1036 427.107 72.1018 427.103 72.1005C427.088 72.096 427.043 72.0858 427.013 72.0813C427.001 72.0808 426.983 72.0831 426.961 72.0881C426.775 72.0147 426.585 71.948 426.393 71.8903C425.514 71.6148 424.589 71.5331 423.713 71.5006L423.704 71.5003H423.695H411.281L445.104 25.9544L445.105 25.9533C445.99 24.7547 447.195 24.5723 447.847 24.5723C448.497 24.5723 449.704 24.7541 450.606 25.9551C450.606 25.9555 450.606 25.9559 450.607 25.9563L484.476 71.5003H471.999C467.307 71.5003 463.499 75.2998 463.499 80.0003C463.499 110.78 448.885 139.451 424.203 157.538ZM431.614 76.6404C431.615 76.6412 431.616 76.6424 431.617 76.6436L431.614 76.6405L431.614 76.6404ZM427.875 72.511L427.877 72.5083C427.84 72.4893 427.803 72.4704 427.766 72.4516C427.456 72.2832 427.295 72.1955 427.231 72.1602C427.211 72.1489 427.207 72.1464 427.209 72.1479L427.216 72.1523C427.217 72.1524 427.23 72.1605 427.246 72.1719C427.251 72.1755 427.263 72.1849 427.27 72.1906C427.28 72.1987 427.304 72.221 427.322 72.2402L427.875 72.511Z" fill="#0098AD" stroke="#0098AD"/>
</svg>
