<svg width="95" height="95" viewBox="0 0 95 95" fill="none" xmlns="http://www.w3.org/2000/svg">
<g filter="url(#filter0_d_958_5201)">
<circle cx="47.5201" cy="47.1734" r="23.1734" fill="white"/>
</g>
<g clip-path="url(#clip0_958_5201)">
<path d="M52.7093 47.1736C52.7093 47.4999 52.5847 47.8262 52.336 48.075L44.507 55.9038C44.009 56.4018 43.2016 56.4018 42.7038 55.9038C42.2059 55.406 42.2059 54.5987 42.7038 54.1007L49.6313 47.1736L42.704 40.2464C42.2062 39.7484 42.2062 38.9412 42.704 38.4434C43.2018 37.9452 44.0093 37.9452 44.5073 38.4434L52.3362 46.2722C52.585 46.5211 52.7093 46.8474 52.7093 47.1736Z" fill="#212121"/>
</g>
<defs>
<filter id="filter0_d_958_5201" x="0.34668" y="0" width="94.3467" height="94.3477" filterUnits="userSpaceOnUse" color-interpolation-filters="sRGB">
<feFlood flood-opacity="0" result="BackgroundImageFix"/>
<feColorMatrix in="SourceAlpha" type="matrix" values="0 0 0 0 0 0 0 0 0 0 0 0 0 0 0 0 0 0 127 0" result="hardAlpha"/>
<feOffset/>
<feGaussianBlur stdDeviation="12"/>
<feComposite in2="hardAlpha" operator="out"/>
<feColorMatrix type="matrix" values="0 0 0 0 0 0 0 0 0 0 0 0 0 0 0 0 0 0 0.15 0"/>
<feBlend mode="normal" in2="BackgroundImageFix" result="effect1_dropShadow_958_5201"/>
<feBlend mode="normal" in="SourceGraphic" in2="effect1_dropShadow_958_5201" result="shape"/>
</filter>
<clipPath id="clip0_958_5201">
<rect width="18.2076" height="18.2076" fill="white" transform="matrix(0 -1 1 0 38.4162 56.2773)"/>
</clipPath>
</defs>
</svg>
