<svg width="95" height="95" viewBox="0 0 95 95" fill="none" xmlns="http://www.w3.org/2000/svg">
<g filter="url(#filter0_d_958_5206)">
<circle cx="47.1734" cy="47.1734" r="23.1734" fill="white"/>
</g>
<g clip-path="url(#clip0_958_5206)">
<path d="M41.9842 47.1736C41.9842 47.4999 42.1088 47.8262 42.3575 48.075L50.1864 55.9038C50.6845 56.4018 51.4919 56.4018 51.9897 55.9038C52.4876 55.406 52.4876 54.5987 51.9897 54.1007L45.0622 47.1736L51.9895 40.2464C52.4873 39.7484 52.4873 38.9412 51.9895 38.4434C51.4917 37.9452 50.6842 37.9452 50.1862 38.4434L42.3573 46.2722C42.1085 46.5211 41.9842 46.8474 41.9842 47.1736Z" fill="#212121"/>
</g>
<defs>
<filter id="filter0_d_958_5206" x="0" y="0" width="94.3467" height="94.3477" filterUnits="userSpaceOnUse" color-interpolation-filters="sRGB">
<feFlood flood-opacity="0" result="BackgroundImageFix"/>
<feColorMatrix in="SourceAlpha" type="matrix" values="0 0 0 0 0 0 0 0 0 0 0 0 0 0 0 0 0 0 127 0" result="hardAlpha"/>
<feOffset/>
<feGaussianBlur stdDeviation="12"/>
<feComposite in2="hardAlpha" operator="out"/>
<feColorMatrix type="matrix" values="0 0 0 0 0 0 0 0 0 0 0 0 0 0 0 0 0 0 0.15 0"/>
<feBlend mode="normal" in2="BackgroundImageFix" result="effect1_dropShadow_958_5206"/>
<feBlend mode="normal" in="SourceGraphic" in2="effect1_dropShadow_958_5206" result="shape"/>
</filter>
<clipPath id="clip0_958_5206">
<rect width="18.2076" height="18.2076" fill="white" transform="matrix(0 -1 -1 0 56.2773 56.2773)"/>
</clipPath>
</defs>
</svg>
