<svg width="644" height="644" viewBox="0 0 644 644" fill="none" xmlns="http://www.w3.org/2000/svg">
<g clip-path="url(#clip0_173_233)">
<path d="M363.646 288.049L363.646 288.049C365.075 291.01 363.834 294.569 360.873 295.998L360.221 294.648L360.873 295.998L330.922 310.458V459.061L457.042 398.177V249.573L418.974 267.951V320.74C418.974 323.025 417.666 325.108 415.609 326.101L415.609 326.101M363.646 288.049L414.957 324.751L415.609 326.101M363.646 288.049C362.216 285.09 358.658 283.846 355.696 285.276C355.696 285.276 355.696 285.276 355.696 285.277L324.968 300.111L313.274 294.465C313.273 294.465 313.273 294.465 313.273 294.465C310.311 293.034 306.753 294.277 305.324 297.237C303.894 300.198 305.136 303.757 308.096 305.187L308.096 305.187M363.646 288.049L308.096 305.187M415.609 326.101L382.292 342.185L415.609 326.101ZM373.75 284.281V336.824C373.75 338.873 374.804 340.777 376.538 341.867L376.539 341.867C377.503 342.472 378.603 342.777 379.704 342.777C380.587 342.777 381.472 342.581 382.292 342.185L375.25 283.388L375.094 283.506L374.537 284.66L373.75 284.281ZM373.75 284.281V283.388H375.079L297.016 293.227C298.445 290.267 297.204 286.708 294.243 285.278L294.243 285.278L200.634 240.088L241.421 220.397L373.75 284.281ZM308.096 305.187L319.015 310.458M308.096 305.187L319.015 310.458M319.015 310.458V459.061L192.894 398.176V249.572L289.066 296C289.898 296.402 290.782 296.593 291.652 296.593C293.861 296.593 295.988 295.356 297.015 293.228L319.015 310.458ZM465.584 234.727L465.584 234.727L327.557 168.093L327.556 168.093C325.921 167.304 324.016 167.304 322.381 168.093L322.381 168.093L184.353 234.727C184.353 234.727 184.353 234.727 184.353 234.727C182.295 235.72 180.988 237.803 180.988 240.088V401.913C180.988 404.197 182.295 406.28 184.353 407.274C184.353 407.274 184.353 407.274 184.353 407.274L322.38 473.907L322.38 473.908C323.198 474.302 324.083 474.5 324.968 474.5C325.854 474.5 326.739 474.302 327.556 473.908L327.557 473.907L465.584 407.274C467.641 406.281 468.949 404.197 468.949 401.913V240.088C468.949 237.802 467.64 235.72 465.584 234.727ZM291.491 196.226L324.968 180.065L449.303 240.088L415.819 256.252C415.751 256.215 415.681 256.179 415.609 256.144L291.491 196.226ZM379.448 273.811L255.347 213.9L277.985 202.928L402.132 262.86L379.448 273.811ZM385.657 284.034L407.067 273.698V317.003L385.657 327.339V284.034Z" fill="#17A2B8" stroke="#17A2B8" stroke-width="3"/>
<path d="M2.28907 435.61C2.27867 451.654 10.8492 466.486 24.7555 474.485C38.6671 482.483 55.7925 482.431 69.6573 474.355L171.053 575.771C161.832 590.873 162.363 609.996 172.405 624.568C182.452 639.145 200.129 646.441 217.53 643.201C234.931 639.956 248.791 626.778 252.915 609.564H394.703C398.822 626.84 412.749 640.06 430.218 643.264C447.687 646.467 465.4 639.062 475.385 624.37C485.37 609.684 485.744 590.488 476.337 575.422L576.734 474.417C591.898 483.175 610.777 482.306 625.068 472.186C639.359 462.066 646.447 444.55 643.218 427.336C639.993 410.127 627.039 396.372 610.048 392.118V250.111C627.096 245.862 640.087 232.044 643.285 214.768C646.478 197.492 639.291 179.94 624.891 169.872C610.496 159.803 591.545 159.075 576.411 168.005L476.581 68.19C485.796 53.0824 485.256 33.9651 475.208 19.3931C465.155 4.82627 447.479 -2.46493 430.078 0.785427C412.682 4.03058 398.822 17.2088 394.708 34.4227H252.92C248.822 17.266 235.046 4.10339 217.723 0.795827C200.394 -2.51174 182.738 4.64945 172.608 19.0914C162.482 33.5334 161.765 52.5727 170.777 67.7324L69.9901 168.067C55.0177 159.19 36.2644 159.777 21.8796 169.586C7.49484 179.389 0.0892305 196.634 2.88194 213.816C5.67464 230.994 18.1612 245.004 34.907 249.752V392.492C15.6753 398.041 2.39828 415.593 2.28907 435.61ZM23.5906 435.61C23.653 422.822 33.8721 412.395 46.6603 412.078H47.1284C60.1298 412.078 70.6662 422.619 70.6662 435.615C70.6662 448.617 60.1246 459.153 47.1232 459.153C34.127 459.148 23.5906 448.612 23.5906 435.61ZM209.313 622.664C196.317 622.664 185.776 612.128 185.776 599.127C185.781 586.125 196.317 575.589 209.313 575.589C222.315 575.589 232.851 586.13 232.851 599.127C232.836 612.123 222.31 622.649 209.313 622.664ZM438.305 622.664C425.309 622.664 414.767 612.128 414.767 599.127C414.772 586.125 425.309 575.589 438.305 575.589C451.306 575.589 461.843 586.13 461.843 599.127C461.827 612.123 451.301 622.649 438.305 622.664ZM622.696 435.61C622.696 448.612 612.16 459.148 599.164 459.148C586.162 459.148 575.626 448.612 575.626 435.61C575.626 422.614 586.162 412.072 599.158 412.072C612.155 412.088 622.681 422.619 622.696 435.61ZM622.696 206.619C622.696 219.62 612.16 230.157 599.164 230.157C586.162 230.157 575.626 219.62 575.626 206.619C575.626 193.623 586.162 183.081 599.158 183.081C612.155 183.097 622.681 193.628 622.696 206.619ZM438.305 21.3225C451.306 21.3225 461.843 31.864 461.843 44.8603C461.843 57.8617 451.306 68.398 438.305 68.398C425.309 68.398 414.767 57.8617 414.767 44.8603C414.788 31.8692 425.314 21.3381 438.305 21.3225ZM252.816 55.7242H394.807C398.25 69.537 408.048 80.8898 421.205 86.314C434.363 91.7434 449.314 90.5941 461.494 83.2249L561.153 182.868C553.492 195.1 552.192 210.275 557.668 223.63C563.139 236.985 574.711 246.882 588.747 250.226V392.003C574.643 395.358 563.035 405.338 557.596 418.776C552.156 432.214 553.555 447.457 561.361 459.679L461.104 560.538C448.924 553.325 434.051 552.295 420.992 557.756C407.934 563.217 398.224 574.528 394.807 588.263H252.816C249.373 574.46 239.586 563.107 226.434 557.683C213.287 552.254 198.34 553.388 186.16 560.746L85.0041 459.564C92.883 447.135 94.1519 431.627 88.4053 418.079C82.6587 404.532 70.6246 394.671 56.2086 391.697V250.532C70.5622 247.573 82.5547 237.786 88.3377 224.322C94.1155 210.857 92.9454 195.417 85.2018 182.977L185.687 82.944C197.851 90.5109 212.902 91.8006 226.179 86.418C239.451 81.0354 249.353 69.6254 252.816 55.7242ZM209.313 21.3225C222.315 21.3225 232.851 31.864 232.851 44.8603C232.851 57.8617 222.315 68.398 209.313 68.398C196.317 68.398 185.776 57.8617 185.776 44.8603C185.796 31.8692 196.322 21.3381 209.313 21.3225ZM23.5906 206.619C23.5906 193.617 34.1322 183.081 47.1284 183.081C60.1298 183.086 70.6662 193.623 70.6662 206.619C70.6662 219.62 60.1298 230.157 47.1284 230.157C34.1374 230.141 23.6062 219.61 23.5906 206.619Z" fill="#17A2B8"/>
</g>
<defs>
<clipPath id="clip0_173_233">
<rect width="644" height="644" fill="white"/>
</clipPath>
</defs>
</svg>
