<svg width="682" height="682" viewBox="0 0 682 682" fill="none" xmlns="http://www.w3.org/2000/svg">
<g clip-path="url(#clip0_179_36)">
<path d="M664.298 295.017C664.278 295.001 664.262 294.98 664.246 294.965L386.316 17.0445C374.469 5.19265 358.719 -1.33105 341.965 -1.33105C325.211 -1.33105 309.461 5.19265 297.609 17.0445L19.8239 294.824C19.7303 294.918 19.6316 295.017 19.5432 295.11C-4.78422 319.578 -4.74264 359.276 19.6628 383.682C30.8128 394.837 45.5341 401.293 61.2793 401.974C61.9239 402.037 62.5685 402.068 63.2182 402.068H74.2904V606.595C74.2904 647.073 107.226 680.004 147.704 680.004H256.439C267.465 680.004 276.4 671.063 276.4 660.043V499.689C276.4 481.22 291.428 466.198 309.897 466.198H374.032C392.502 466.198 407.524 481.22 407.524 499.689V660.043C407.524 671.063 416.46 680.004 427.485 680.004H536.221C576.704 680.004 609.634 647.073 609.634 606.595V402.068H619.906C636.654 402.068 652.405 395.544 664.262 383.687C688.693 359.245 688.704 319.474 664.298 295.017ZM636.031 355.461C631.721 359.77 625.993 362.146 619.906 362.146H589.673C578.648 362.146 569.712 371.082 569.712 382.107V606.595C569.712 625.059 554.69 640.082 536.221 640.082H447.446V499.689C447.446 459.211 414.516 426.276 374.032 426.276H309.897C269.414 426.276 236.478 459.211 236.478 499.689V640.082H147.704C129.24 640.082 114.212 625.059 114.212 606.595V382.107C114.212 371.082 105.277 362.146 94.2513 362.146H64.5386C64.2267 362.125 63.92 362.109 63.6029 362.104C57.6562 362 52.0786 359.64 47.8992 355.456C39.0104 346.567 39.0104 332.1 47.8992 323.206C47.9044 323.206 47.9044 323.201 47.9096 323.196L47.9252 323.18L325.845 45.2705C330.15 40.9613 335.873 38.5909 341.965 38.5909C348.052 38.5909 353.775 40.9613 358.084 45.2705L635.942 323.123C635.984 323.165 636.031 323.206 636.072 323.248C644.914 332.152 644.899 346.588 636.031 355.461Z" fill="#F8F9FA"/>
</g>
<defs>
<clipPath id="clip0_179_36">
<rect width="681.333" height="681.333" fill="white"/>
</clipPath>
</defs>
</svg>
