<svg width="21" height="21" viewBox="0 0 21 21" fill="none" xmlns="http://www.w3.org/2000/svg">
<path d="M11.1127 1.0084L11.1126 1.00832C10.8585 0.754144 10.5233 0.615234 10.1642 0.615234C9.80498 0.615234 9.46976 0.754056 9.21558 1.00824L8.86239 0.655052L9.21557 1.00824L1.06225 9.1614L1.06128 9.16239L1.06064 9.16302L1.05337 9.17044C0.533373 9.69344 0.534382 10.5431 1.05587 11.0646L1.05595 11.0646C1.29458 11.3034 1.60829 11.4411 1.94565 11.4556L1.95923 11.4562L1.97276 11.4575C1.97521 11.4577 1.97793 11.4579 1.98098 11.4579H2.30618H2.80618V11.9579V17.9624C2.80618 18.8743 3.54902 19.6173 4.4614 19.6173H7.65355C7.70102 19.6173 7.73955 19.5787 7.73955 19.5313V14.8238C7.73955 14.0054 8.40443 13.3405 9.22278 13.3405H11.1056C11.9239 13.3405 12.5888 14.0054 12.5888 14.8238V19.5313C12.5888 19.5788 12.6273 19.6173 12.6748 19.6173H15.867C16.7794 19.6173 17.5222 18.8743 17.5222 17.9624V11.9579V11.4579H18.0222H18.3237C18.6827 11.4579 19.0179 11.3191 19.2722 11.065C19.2723 11.0649 19.2724 11.0649 19.2724 11.0648M11.1127 1.0084L19.6268 8.81516C20.3434 9.53331 20.3431 10.7007 19.6259 11.4184L19.2724 11.0648M11.1127 1.0084L19.2719 9.16734L19.2719 9.16735L19.2719 9.16736L19.2719 9.16738L19.2719 9.16739L19.272 9.1674L19.272 9.16741L19.272 9.16742L19.272 9.16743L19.272 9.16745L19.272 9.16746L19.272 9.16747L19.272 9.16749L19.2721 9.1675L19.2721 9.16751L19.2721 9.16752L19.2721 9.16753L19.2721 9.16755L19.2721 9.16756L19.2721 9.16757L19.2721 9.16758L19.2722 9.16759L19.2722 9.16761L19.2722 9.16762L19.2722 9.16763L19.2722 9.16764L19.2722 9.16766L19.2722 9.16767L19.2722 9.16768L19.2722 9.16769L19.2723 9.16771L19.2723 9.16772L19.2723 9.16773L19.2723 9.16774L19.2723 9.16775L19.2723 9.16776L19.2723 9.16778L19.2723 9.16779L19.2724 9.1678L19.2724 9.16782L19.2724 9.16783L19.2724 9.16784L19.2724 9.16785L19.2724 9.16786L19.2724 9.16788L19.2724 9.16789L19.2725 9.1679L19.2725 9.16791L19.2725 9.16793L19.2725 9.16794L19.2725 9.16795L19.2725 9.16796L19.2725 9.16798L19.2725 9.16799L19.2726 9.168L19.2726 9.16801L19.2726 9.16802L19.2726 9.16804L19.2726 9.16805L19.2726 9.16806L19.2726 9.16807L19.2726 9.16809L19.2727 9.1681L19.2727 9.16811L19.2727 9.16812L19.2727 9.16813L19.2727 9.16815L19.2727 9.16816L19.2727 9.16817L19.2727 9.16818L19.2728 9.16819L19.2728 9.16821L19.2728 9.16822L19.2728 9.16823L19.2728 9.16824L19.2728 9.16826L19.2728 9.16827L19.2728 9.16828L19.2729 9.16829L19.2729 9.16831L19.2729 9.16832L19.2729 9.16833M11.1127 1.0084L19.2733 9.1687M19.2724 11.0648C19.7943 10.5424 19.7946 9.69158 19.2733 9.1687M19.2724 11.0648L19.2733 9.1687M19.2733 9.1687L19.2733 9.16871L19.6257 8.81628L19.2729 9.16833M19.2733 9.1687C19.2732 9.16867 19.2732 9.16863 19.2732 9.1686L19.2732 9.16862L19.2732 9.16864L19.2732 9.16865L19.2732 9.16866L19.2732 9.16867L19.2732 9.16869L19.2733 9.1687ZM19.2729 9.16833L19.2729 9.16835L19.2729 9.16837M19.2729 9.16833L19.2729 9.16837M19.2729 9.16837C19.2729 9.16839 19.273 9.16841 19.273 9.16843L19.273 9.16842L19.273 9.16841L19.2729 9.16839L19.2729 9.16838L19.2729 9.16837Z" stroke="white"/>
</svg>
