<svg width="85" height="85" viewBox="0 0 85 85" fill="none" xmlns="http://www.w3.org/2000/svg">
<rect width="85" height="85" rx="42.5" fill="#F2F4F5"/>
<mask id="mask0_7_1643" style="mask-type:alpha" maskUnits="userSpaceOnUse" x="22" y="22" width="41" height="41">
<rect x="22.118" y="22.5081" width="40.0356" height="40.0356" fill="#D9D9D9"/>
</mask>
<g mask="url(#mask0_7_1643)">
<path d="M30.8449 55.871C30.1038 55.871 29.4694 55.6072 28.9417 55.0794C28.414 54.5517 28.1501 53.9174 28.1501 53.1763V31.8753C28.1501 31.1343 28.414 30.4999 28.9417 29.9722C29.4694 29.4445 30.1038 29.1806 30.8449 29.1806H44.8316V30.8488H30.8449C30.5455 30.8488 30.2995 30.945 30.1071 31.1375C29.9145 31.33 29.8183 31.5759 29.8183 31.8753V53.1763C29.8183 53.4757 29.9145 53.7217 30.1071 53.9141C30.2995 54.1066 30.5455 54.2029 30.8449 54.2029H52.1458C52.4452 54.2029 52.6912 54.1066 52.8837 53.9141C53.0761 53.7217 53.1724 53.4757 53.1724 53.1763V39.1895H54.8406V53.1763C54.8406 53.9174 54.5767 54.5517 54.049 55.0794C53.5213 55.6072 52.8869 55.871 52.1458 55.871H30.8449ZM51.1193 36.2382V32.9019H47.783V31.2338H51.1193V27.8975H52.7874V31.2338H56.1237V32.9019H52.7874V36.2382H51.1193ZM33.9887 50.0325H49.2587L44.543 43.7449L40.1801 49.2626L37.2608 45.7338L33.9887 50.0325Z" fill="#C5C5C5"/>
</g>
</svg>
