<svg width="100" height="100" viewBox="0 0 100 100" fill="none" xmlns="http://www.w3.org/2000/svg">
<path opacity="0.2" d="M12.6982 65.5254L32.1376 46.0861C32.4244 45.7992 32.765 45.5717 33.1398 45.4165C33.5145 45.2612 33.9162 45.1813 34.3219 45.1813C34.7276 45.1813 35.1293 45.2612 35.504 45.4165C35.8788 45.5717 36.2194 45.7992 36.5062 46.0861L53.7613 63.3412C54.0481 63.628 54.3887 63.8556 54.7635 64.0108C55.1383 64.166 55.5399 64.2459 55.9456 64.2459C56.3513 64.2459 56.753 64.166 57.1278 64.0108C57.5026 63.8556 57.8431 63.628 58.1299 63.3412L66.1177 55.3534C66.4045 55.0665 66.7451 54.839 67.1199 54.6838C67.4947 54.5285 67.8964 54.4486 68.302 54.4486C68.7077 54.4486 69.1094 54.5285 69.4842 54.6838C69.859 54.839 70.1995 55.0665 70.4863 55.3534L86.8366 71.7037L86.8367 22.2781C86.8367 21.4588 86.5112 20.6731 85.9319 20.0937C85.3526 19.5144 84.5669 19.189 83.7476 19.189H15.7873C14.9681 19.189 14.1823 19.5144 13.603 20.0937C13.0237 20.6731 12.6982 21.4588 12.6982 22.2781V65.5254Z" fill="#B7BAC7"/>
<path d="M83.7476 19.189H15.7873C14.0813 19.189 12.6982 20.572 12.6982 22.2781V77.8819C12.6982 79.588 14.0813 80.971 15.7873 80.971H83.7476C85.4537 80.971 86.8367 79.588 86.8367 77.8819V22.2781C86.8367 20.572 85.4537 19.189 83.7476 19.189Z" stroke="#B7BAC7" stroke-width="4.78313" stroke-linecap="round" stroke-linejoin="round"/>
<path d="M12.6982 65.5256L32.1376 46.0862C32.4244 45.7994 32.765 45.5718 33.1397 45.4166C33.5145 45.2614 33.9162 45.1815 34.3219 45.1815C34.7276 45.1815 35.1293 45.2614 35.504 45.4166C35.8788 45.5718 36.2194 45.7994 36.5062 46.0862L53.7613 63.3413C54.0481 63.6282 54.3887 63.8557 54.7635 64.0109C55.1382 64.1662 55.5399 64.2461 55.9456 64.2461C56.3513 64.2461 56.753 64.1662 57.1278 64.0109C57.5025 63.8557 57.8431 63.6282 58.1299 63.3413L66.1177 55.3535C66.4045 55.0667 66.7451 54.8391 67.1199 54.6839C67.4947 54.5287 67.8963 54.4488 68.302 54.4488C68.7077 54.4488 69.1094 54.5287 69.4842 54.6839C69.859 54.8391 70.1995 55.0667 70.4863 55.3535L86.8366 71.7038" stroke="#B7BAC7" stroke-width="4.78313" stroke-linecap="round" stroke-linejoin="round"/>
<path d="M60.579 43.9019C63.1381 43.9019 65.2126 41.8273 65.2126 39.2682C65.2126 36.7091 63.1381 34.6346 60.579 34.6346C58.0199 34.6346 55.9453 36.7091 55.9453 39.2682C55.9453 41.8273 58.0199 43.9019 60.579 43.9019Z" fill="#B7BAC7"/>
</svg>
