<svg width="24" height="24" viewBox="0 0 24 24" fill="none" xmlns="http://www.w3.org/2000/svg">
<path d="M11.1711 10.3906H4.32405C4.27493 10.3906 4.22637 10.3801 4.18159 10.3598C4.13682 10.3396 4.09686 10.3099 4.06436 10.273C4.03186 10.236 4.00758 10.1925 3.99312 10.1454C3.97866 10.0982 3.97436 10.0485 3.9805 9.99962L4.60292 4.93297C4.61346 4.84898 4.65418 4.77173 4.71744 4.71574C4.7807 4.65976 4.86214 4.62888 4.94647 4.62891H11.2449C11.2908 4.6289 11.3362 4.63805 11.3785 4.65583C11.4208 4.6736 11.4592 4.69965 11.4914 4.73245C11.5236 4.76525 11.549 4.80415 11.5661 4.84689C11.5832 4.88963 11.5917 4.93535 11.591 4.98141L11.5173 10.0481C11.5159 10.1394 11.4789 10.2265 11.4141 10.2906C11.3493 10.3547 11.2621 10.3906 11.1711 10.3906ZM4.71542 9.69556H10.8301L10.8937 5.32392H5.25238L4.71542 9.69556Z" fill="#A1A5B3"/>
<path d="M19.86 10.3904H18.8051C18.7133 10.3904 18.6253 10.3537 18.5603 10.2886C18.4954 10.2234 18.459 10.135 18.459 10.0428C18.459 9.95068 18.4954 9.86229 18.5603 9.79712C18.6253 9.73195 18.7133 9.69534 18.8051 9.69534H19.4684L18.9315 5.32392H13.2903L13.3539 9.69534H13.9597C14.0515 9.69534 14.1395 9.73195 14.2044 9.79712C14.2693 9.86229 14.3058 9.95068 14.3058 10.0428C14.3058 10.135 14.2693 10.2234 14.2044 10.2886C14.1395 10.3537 14.0515 10.3904 13.9597 10.3904H13.0129C12.922 10.3904 12.8348 10.3545 12.77 10.2904C12.7052 10.2264 12.6682 10.1393 12.6668 10.0481L12.5928 4.98141C12.5921 4.93535 12.6006 4.88963 12.6177 4.84689C12.6348 4.80415 12.6602 4.76525 12.6924 4.73245C12.7246 4.69965 12.763 4.6736 12.8053 4.65583C12.8477 4.63805 12.8931 4.6289 12.939 4.62891H19.2376C19.3219 4.62888 19.4034 4.65976 19.4666 4.71574C19.5299 4.77173 19.5706 4.84898 19.5811 4.93297L20.2036 10.0014C20.2097 10.0503 20.2054 10.1 20.1909 10.1471C20.1765 10.1942 20.1522 10.2377 20.1197 10.2747C20.0872 10.3117 20.0472 10.3413 20.0025 10.3616C19.9577 10.3818 19.9091 10.3923 19.86 10.3923V10.3904Z" fill="#A1A5B3"/>
<path d="M20.6538 18.3695H12.9446C12.8537 18.3695 12.7664 18.3336 12.7016 18.2695C12.6368 18.2054 12.5998 18.1183 12.5985 18.027L12.5059 11.6689C12.5052 11.6229 12.5137 11.5771 12.5308 11.5344C12.5479 11.4916 12.5733 11.4527 12.6055 11.4199C12.6377 11.3871 12.6761 11.3611 12.7184 11.3433C12.7607 11.3256 12.8062 11.3164 12.852 11.3164H13.5035C13.5953 11.3164 13.6833 11.353 13.7482 11.4182C13.8131 11.4834 13.8496 11.5717 13.8496 11.6639C13.8496 11.7561 13.8131 11.8445 13.7482 11.9096C13.6833 11.9748 13.5953 12.0114 13.5035 12.0114H13.2034L13.2856 17.6745H20.2625L19.5667 12.0114H19.2608C19.169 12.0114 19.0809 11.9748 19.016 11.9096C18.9511 11.8445 18.9146 11.7561 18.9146 11.6639C18.9146 11.5717 18.9511 11.4834 19.016 11.4182C19.0809 11.353 19.169 11.3164 19.2608 11.3164H19.8728C19.9571 11.3164 20.0386 11.3473 20.1018 11.4032C20.1651 11.4592 20.2058 11.5365 20.2164 11.6205L20.9974 17.9785C21.0035 18.0275 20.9992 18.0771 20.9847 18.1243C20.9703 18.1714 20.946 18.2149 20.9135 18.2519C20.881 18.2889 20.841 18.3185 20.7963 18.3388C20.7515 18.359 20.7029 18.3695 20.6538 18.3695Z" fill="#A1A5B3"/>
<path d="M11.0554 18.3504H3.34627C3.29715 18.3504 3.24859 18.3399 3.20381 18.3197C3.15904 18.2994 3.11907 18.2698 3.08658 18.2328C3.05408 18.1958 3.0298 18.1523 3.01534 18.1052C3.00088 18.0581 2.99657 18.0084 3.00271 17.9594L3.78371 11.6012C3.79421 11.5171 3.83491 11.4398 3.89817 11.3838C3.96144 11.3278 4.0429 11.2969 4.12727 11.2969H11.148C11.1939 11.2969 11.2394 11.306 11.2817 11.3238C11.3241 11.3416 11.3624 11.3677 11.3947 11.4005C11.4269 11.4333 11.4523 11.4722 11.4693 11.515C11.4864 11.5578 11.4949 11.6035 11.4942 11.6496L11.4016 18.0079C11.4003 18.0992 11.3632 18.1863 11.2985 18.2504C11.2337 18.3145 11.1464 18.3504 11.0554 18.3504ZM3.73763 17.6554H10.7143L10.7967 11.9919H4.43339L3.73763 17.6554Z" fill="#A1A5B3"/>
<path d="M16.3821 17.1708C16.3302 17.1709 16.2789 17.1592 16.2321 17.1366C16.1853 17.1141 16.1441 17.0812 16.1117 17.0405C16.0818 17.0029 15.3731 16.1096 14.6525 15.0039C13.6594 13.4803 13.156 12.337 13.156 11.606C13.156 9.8202 14.6031 8.36719 16.3821 8.36719C18.1611 8.36719 19.6084 9.8202 19.6084 11.606C19.6084 12.337 19.1048 13.4803 18.1118 15.0039C17.3911 16.1096 16.6824 17.0021 16.6528 17.0405C16.6203 17.0812 16.5791 17.1141 16.5322 17.1367C16.4854 17.1592 16.4341 17.1709 16.3821 17.1708ZM16.3821 9.06198C15.7103 9.06273 15.0663 9.33097 14.5913 9.80786C14.1162 10.2847 13.849 10.9313 13.8483 11.6057C13.8483 12.6932 15.4849 15.0752 16.3821 16.2575C17.2789 15.0752 18.9161 12.6941 18.9161 11.6057C18.9153 10.9313 18.6481 10.2847 18.173 9.80784C17.698 9.33097 17.0539 9.06273 16.3821 9.06198Z" fill="#A1A5B3"/>
<path d="M16.382 13.1059C16.0691 13.1059 15.7632 13.0128 15.5031 12.8383C15.243 12.6638 15.0402 12.4157 14.9205 12.1255C14.8007 11.8353 14.7694 11.516 14.8304 11.208C14.8915 10.8999 15.0421 10.6169 15.2634 10.3948C15.4846 10.1727 15.7665 10.0215 16.0733 9.9602C16.3802 9.89893 16.6983 9.93038 16.9873 10.0506C17.2764 10.1708 17.5234 10.3743 17.6973 10.6355C17.8711 10.8967 17.9639 11.2037 17.9639 11.5178C17.9633 11.9388 17.7965 12.3425 17.5 12.6402C17.2034 12.9379 16.8013 13.1054 16.382 13.1059ZM16.382 10.6247C16.206 10.6247 16.034 10.6771 15.8877 10.7752C15.7414 10.8733 15.6274 11.0128 15.5601 11.176C15.4927 11.3392 15.4751 11.5188 15.5094 11.692C15.5438 11.8653 15.6285 12.0244 15.7529 12.1493C15.8773 12.2742 16.0358 12.3593 16.2084 12.3937C16.381 12.4282 16.5598 12.4105 16.7224 12.3429C16.8849 12.2753 17.0239 12.1608 17.1216 12.014C17.2194 11.8671 17.2716 11.6944 17.2716 11.5178C17.2713 11.281 17.1774 11.0541 17.0107 10.8867C16.8439 10.7193 16.6178 10.6251 16.382 10.6249V10.6247Z" fill="#A1A5B3"/>
</svg>
