<svg width="24" height="24" viewBox="0 0 24 24" fill="none" xmlns="http://www.w3.org/2000/svg">
<path d="M12.2124 15.533L9.68543 18.0533C9.1818 18.5533 8.51616 18.8282 7.81167 18.8282C7.11599 18.8282 6.43496 18.5467 5.94452 18.0555C4.91381 17.0248 4.91381 15.3475 5.94452 14.3168L8.47298 11.7949C8.70317 11.5662 8.70317 11.1953 8.47445 10.9658C8.24498 10.7356 7.87479 10.7356 7.64533 10.9643L5.11612 13.4868C3.62796 14.9749 3.62796 17.3963 5.11612 18.8845C5.825 19.5934 6.80879 20.0003 7.81235 20.0003C8.82841 20.0003 9.78719 19.6044 10.5131 18.8845L13.0415 16.3626C13.2717 16.1339 13.2717 15.763 13.043 15.5335C12.8143 15.304 12.4434 15.3033 12.2139 15.532L12.2124 15.533Z" fill="#A1A5B3"/>
<path d="M16.1835 4C15.1638 4 14.2057 4.39733 13.4843 5.11794L10.9624 7.64565C10.7337 7.87511 10.7337 8.24604 10.9638 8.4755C11.1933 8.70423 11.5635 8.70348 11.793 8.47477L14.3141 5.94781C14.8133 5.44858 15.4768 5.17368 16.1835 5.17368C16.8909 5.17368 17.5543 5.44858 18.0528 5.94781C19.0835 6.97852 19.0835 8.65587 18.0528 9.6873L15.5309 12.215C15.3022 12.4445 15.3022 12.8154 15.5324 13.0441C15.6467 13.1585 15.7963 13.2157 15.9466 13.2157C16.0968 13.2157 16.2471 13.1585 16.3615 13.0434L18.8826 10.5164C20.3708 9.02828 20.3708 6.60692 18.8826 5.11871C18.162 4.3981 17.2039 4.00077 16.1834 4.00077L16.1835 4Z" fill="#A1A5B3"/>
<path d="M13.4755 9.69553L9.69358 13.4782C9.46412 13.7076 9.46412 14.0786 9.69358 14.3073C9.80794 14.4217 9.95823 14.4788 10.1085 14.4788C10.2588 14.4788 10.4091 14.4217 10.5234 14.3073L14.3053 10.5247C14.5348 10.2952 14.5348 9.92426 14.3053 9.69553C14.0758 9.46607 13.7057 9.46607 13.4762 9.69553H13.4755Z" fill="#A1A5B3"/>
</svg>
