<svg viewBox="0 0 40 40" fill="#909090" xmlns="http://www.w3.org/2000/svg"><rect width="40" height="40" rx="5" fill="#909090"></rect><path d="M13.2674 26.5602C11.8567 25.1495 11.8567 22.8561 13.2674 21.4454L16.5672 18.1456L14.9998 16.5782L11.7 19.878C9.4231 22.1549 9.4231 25.8507 11.7 28.1276C13.9769 30.4045 17.6727 30.4045 19.9496 28.1276L23.2494 24.8278L21.682 23.2603L18.3821 26.5602C16.9715 27.9709 14.6781 27.9709 13.2674 26.5602ZM17.4747 24.0028L24.0744 17.4031L22.4244 15.7532L15.8248 22.3529L17.4747 24.0028ZM19.9496 11.6284L16.6497 14.9283L18.2172 16.4957L21.517 13.1959C22.9277 11.7852 25.221 11.7852 26.6317 13.1959C28.0424 14.6065 28.0424 16.8999 26.6317 18.3106L23.3319 21.6104L24.8993 23.1778L28.1991 19.878C30.476 17.6011 30.476 13.9053 28.1991 11.6284C25.9223 9.35156 22.2264 9.35156 19.9496 11.6284Z" fill="#FFFFFF"></path></svg>