<svg width="512" height="512" viewBox="0 0 512 512" fill="none" xmlns="http://www.w3.org/2000/svg">
<path d="M267.328 102.846C267.918 102.163 268.49 101.21 268.259 99.3119C268.04 97.5099 267.528 93.2889 254.762 91.1929C233.82 87.7539 230.139 75.8249 229.809 69.0209C229.273 57.9919 236.529 48.7089 248 45.5239V43.4599C248 39.0419 251.582 35.4599 256 35.4599C260.418 35.4599 264 39.0419 264 43.4599V45.4509C271.396 47.4259 278.309 52.3639 282.016 61.1949C283.726 65.2679 281.811 69.9579 277.737 71.6679C273.662 73.3799 268.974 71.4629 267.264 67.3889C264.279 60.2799 256.875 59.8819 252.97 60.7669C251.22 61.1639 245.53 62.8759 245.791 68.2449C245.861 69.6959 246.048 73.5479 257.354 75.4039C273.684 78.0859 282.697 85.4799 284.142 97.3829C284.872 103.396 283.242 108.904 279.429 113.313C275.84 117.462 270.331 120.449 264 121.814V123.592C264 128.01 260.418 131.592 256 131.592C251.582 131.592 248 128.01 248 123.592V121.675C237.97 119.2 230.334 112.153 227.926 102.493C226.857 98.2059 229.466 93.8639 233.753 92.7949C238.041 91.7329 242.382 94.3359 243.451 98.6219C244.976 104.736 251.502 106.776 256.636 106.638C261.092 106.533 265.488 104.973 267.328 102.846ZM80.67 381.43C69.363 379.574 69.176 375.722 69.106 374.272C68.845 368.903 74.535 367.191 76.285 366.793C80.19 365.906 87.595 366.306 90.58 373.415C92.29 377.488 96.977 379.404 101.053 377.694C105.127 375.984 107.042 371.295 105.332 367.221C101.624 358.39 94.711 353.451 87.315 351.477V349.486C87.315 345.068 83.733 341.486 79.315 341.486C74.897 341.486 71.315 345.068 71.315 349.486V351.549C59.845 354.735 52.589 364.017 53.124 375.046C53.455 381.851 57.135 393.778 78.077 397.218C90.843 399.314 91.355 403.534 91.574 405.336C91.805 407.235 91.233 408.189 90.643 408.871C88.803 410.998 84.407 412.558 79.951 412.663C74.817 412.82 68.29 410.761 66.765 404.647C65.697 400.36 61.353 397.757 57.067 398.82C52.78 399.889 50.171 404.231 51.24 408.518C53.648 418.176 61.284 425.224 71.314 427.7V429.617C71.314 434.035 74.896 437.617 79.314 437.617C83.732 437.617 87.314 434.035 87.314 429.617V427.839C93.645 426.474 99.153 423.487 102.743 419.338C106.557 414.93 108.187 409.421 107.457 403.407C106.013 391.506 97 384.112 80.67 381.43ZM504 389.552C504 428.875 472.008 460.867 432.685 460.867C418.253 460.867 404.818 456.545 393.58 449.146C355.21 481.845 306.615 499.79 256 499.79C205.389 499.79 156.794 481.846 118.422 449.146C107.184 456.545 93.748 460.868 79.316 460.868C39.992 460.868 8 428.875 8 389.552C8 361.764 23.986 337.654 47.235 325.89C44.93 313.266 43.754 300.397 43.754 287.543C43.754 241.712 58.132 198.076 85.333 161.354C110.698 127.111 144.991 101.705 184.805 87.5609C184.73 86.2249 184.684 84.8809 184.684 83.5259C184.684 44.2029 216.676 12.2109 255.999 12.2109C295.322 12.2109 327.314 44.2029 327.314 83.5259C327.314 84.8809 327.268 86.2239 327.193 87.5609C367.007 101.706 401.301 127.112 426.665 161.354C453.866 198.077 468.244 241.712 468.244 287.543C468.244 300.397 467.068 313.265 464.763 325.89C488.014 337.654 504 361.764 504 389.552ZM200.684 83.5259C200.684 114.027 225.498 138.841 255.999 138.841C286.5 138.841 311.314 114.027 311.314 83.5259C311.314 53.0249 286.501 28.2099 256 28.2099C225.499 28.2099 200.684 53.0249 200.684 83.5259ZM79.316 444.868C109.817 444.868 134.631 420.054 134.631 389.553C134.631 359.052 109.817 334.238 79.316 334.238C48.815 334.238 24 359.051 24 389.552C24 420.053 48.815 444.868 79.316 444.868ZM256 483.79C301.884 483.79 345.974 467.849 381.114 438.733C368.896 425.927 361.369 408.608 361.369 389.553C361.369 350.23 393.361 318.238 432.684 318.238C438.478 318.238 444.106 318.949 449.502 320.259C451.314 309.467 452.245 298.501 452.245 287.544C452.245 204.908 401.237 132.057 324.427 103.573C315.742 133.165 288.363 154.842 256 154.842C223.637 154.842 196.257 133.165 187.573 103.573C110.763 132.057 59.755 204.908 59.755 287.544C59.755 298.502 60.685 309.468 62.498 320.259C67.894 318.949 73.523 318.238 79.317 318.238C118.64 318.238 150.632 350.23 150.632 389.553C150.632 408.608 143.105 425.927 130.887 438.733C166.03 467.848 210.12 483.79 256 483.79ZM488 389.552C488 359.051 463.186 334.237 432.685 334.237C402.184 334.237 377.37 359.051 377.37 389.552C377.37 420.053 402.184 444.867 432.685 444.867C463.186 444.867 488 420.053 488 389.552ZM434.039 381.43C422.732 379.574 422.546 375.722 422.476 374.271C422.215 368.903 427.904 367.191 429.654 366.793C433.561 365.909 440.964 366.306 443.949 373.415C445.659 377.488 450.348 379.404 454.422 377.694C458.496 375.984 460.411 371.295 458.701 367.221C454.993 358.389 448.08 353.451 440.684 351.477V349.486C440.684 345.068 437.102 341.486 432.684 341.486C428.266 341.486 424.684 345.068 424.684 349.486V351.549C413.214 354.735 405.957 364.017 406.494 375.046C406.824 381.85 410.504 393.778 431.447 397.218C444.213 399.314 444.725 403.534 444.944 405.336C445.175 407.235 444.603 408.189 444.013 408.871C442.173 410.998 437.777 412.558 433.321 412.663C428.196 412.82 421.659 410.761 420.135 404.647C419.067 400.36 414.724 397.757 410.437 398.82C406.15 399.889 403.541 404.231 404.61 408.518C407.018 418.176 414.654 425.224 424.684 427.7V429.617C424.684 434.035 428.266 437.617 432.684 437.617C437.102 437.617 440.684 434.035 440.684 429.617V427.839C447.015 426.474 452.523 423.487 456.113 419.338C459.927 414.93 461.557 409.421 460.827 403.407C459.381 391.506 450.368 384.112 434.039 381.43ZM358.797 232.813V342.275C358.797 345.133 357.272 347.774 354.797 349.203L260 403.933C258.762 404.648 257.381 405.005 256 405.005C254.619 405.005 253.238 404.648 252 403.933L157.204 349.203C154.729 347.774 153.204 345.134 153.204 342.275V232.813C153.204 229.955 154.729 227.314 157.204 225.885L252 171.155C254.476 169.725 257.524 169.725 260 171.155L354.796 225.885C357.272 227.314 358.797 229.955 358.797 232.813ZM334.797 232.813L317.143 222.621L238.347 268.115L256 278.307L334.797 232.813ZM222.348 258.877L301.144 213.383L289.653 206.748L210.856 252.241L222.348 258.877ZM202.857 290.727L214.348 297.362V272.733L202.857 266.099V290.727ZM177.204 232.813L194.857 243.005L273.654 197.512L256 187.32L177.204 232.813ZM169.204 337.656L248 383.149V292.162L230.347 281.97V311.218C230.347 314.076 228.822 316.717 226.347 318.146C225.11 318.861 223.728 319.218 222.347 319.218C220.966 319.218 219.585 318.861 218.347 318.146L190.856 302.274C188.381 300.845 186.856 298.205 186.856 295.346V256.861L169.203 246.669L169.204 337.656ZM342.797 337.656V246.669L264 292.163V383.15L342.797 337.656Z" fill="#0098AD"/>
</svg>
