<svg width="17" height="17" viewBox="0 0 17 17" fill="none" xmlns="http://www.w3.org/2000/svg">
<path d="M6.41118 14.0391H3.42328C3.2912 14.0391 3.16454 13.9866 3.07115 13.8933C2.97776 13.7999 2.92529 13.6732 2.92529 13.5411V10.7595C2.92529 10.6941 2.93817 10.6293 2.9632 10.5689C2.98823 10.5085 3.02491 10.4536 3.07115 10.4074L10.5409 2.9376C10.6343 2.84421 10.761 2.79175 10.893 2.79175C11.0251 2.79175 11.1518 2.84421 11.2452 2.9376L14.0268 5.71924C14.1202 5.81263 14.1727 5.93929 14.1727 6.07136C14.1727 6.20344 14.1202 6.3301 14.0268 6.42349L6.41118 14.0391Z" stroke="#8C94A3" stroke-width="1.03581" stroke-linecap="round" stroke-linejoin="round"/>
<path d="M8.90137 4.57739L12.3873 8.06328" stroke="#8C94A3" stroke-width="1.03581" stroke-linecap="round" stroke-linejoin="round"/>
<path d="M13.8815 14.039H6.41172L2.95752 10.5848" stroke="#8C94A3" stroke-width="1.03581" stroke-linecap="round" stroke-linejoin="round"/>
</svg>
