<svg width="17" height="17" viewBox="0 0 17 17" fill="none" xmlns="http://www.w3.org/2000/svg">
<path d="M3.69873 11H4.69873V9H5.69873C5.98206 9 6.21956 8.90417 6.41123 8.7125C6.6029 8.52083 6.69873 8.28333 6.69873 8V7C6.69873 6.71667 6.6029 6.47917 6.41123 6.2875C6.21956 6.09583 5.98206 6 5.69873 6H3.69873V11ZM4.69873 8V7H5.69873V8H4.69873ZM7.69873 11H9.69873C9.98206 11 10.2196 10.9042 10.4112 10.7125C10.6029 10.5208 10.6987 10.2833 10.6987 10V7C10.6987 6.71667 10.6029 6.47917 10.4112 6.2875C10.2196 6.09583 9.98206 6 9.69873 6H7.69873V11ZM8.69873 10V7H9.69873V10H8.69873ZM11.6987 11H12.6987V9H13.6987V8H12.6987V7H13.6987V6H11.6987V11ZM2.69873 16.5C2.14873 16.5 1.6779 16.3042 1.28623 15.9125C0.894564 15.5208 0.69873 15.05 0.69873 14.5V2.5C0.69873 1.95 0.894564 1.47917 1.28623 1.0875C1.6779 0.695833 2.14873 0.5 2.69873 0.5H14.6987C15.2487 0.5 15.7196 0.695833 16.1112 1.0875C16.5029 1.47917 16.6987 1.95 16.6987 2.5V14.5C16.6987 15.05 16.5029 15.5208 16.1112 15.9125C15.7196 16.3042 15.2487 16.5 14.6987 16.5H2.69873ZM2.69873 14.5H14.6987V2.5H2.69873V14.5Z" fill="white"/>
</svg>
