<svg width="57" height="57" viewBox="0 0 57 57" fill="none" xmlns="http://www.w3.org/2000/svg">
<path opacity="0.2" d="M28.5 7.125C24.2724 7.125 20.1398 8.37862 16.6247 10.7273C13.1096 13.0761 10.3699 16.4144 8.75208 20.3201C7.13426 24.2259 6.71097 28.5237 7.53572 32.6701C8.36048 36.8164 10.3963 40.6251 13.3856 43.6144C16.3749 46.6038 20.1836 48.6395 24.33 49.4643C28.4763 50.289 32.7741 49.8658 36.6799 48.2479C40.5856 46.6301 43.924 43.8904 46.2727 40.3753C48.6214 36.8602 49.875 32.7276 49.875 28.5C49.875 25.693 49.3221 22.9135 48.248 20.3201C47.1738 17.7268 45.5993 15.3704 43.6144 13.3856C41.6296 11.4007 39.2732 9.82625 36.6799 8.75206C34.0865 7.67787 31.307 7.12499 28.5 7.125ZM24.9375 35.625V21.375L35.625 28.5L24.9375 35.625Z" fill="#B7BAC7"/>
<path d="M28.5 49.875C40.3051 49.875 49.875 40.3051 49.875 28.5C49.875 16.6949 40.3051 7.125 28.5 7.125C16.6949 7.125 7.125 16.6949 7.125 28.5C7.125 40.3051 16.6949 49.875 28.5 49.875Z" stroke="#B7BAC7" stroke-width="3.5" stroke-miterlimit="10"/>
<path d="M35.625 28.5L24.9375 21.375V35.625L35.625 28.5Z" stroke="#B7BAC7" stroke-width="3.5" stroke-linecap="round" stroke-linejoin="round"/>
</svg>
