<svg width="182" height="129" viewBox="0 0 182 129" fill="none" xmlns="http://www.w3.org/2000/svg">
<rect y="0.650024" width="181.759" height="127.55" rx="10" fill="#F5F7FA"/>
<path opacity="0.2" d="M53.8105 79.8704L73.2499 60.4311C73.5367 60.1442 73.8773 59.9167 74.2521 59.7614C74.6268 59.6062 75.0285 59.5263 75.4342 59.5263C75.8399 59.5263 76.2416 59.6062 76.6164 59.7614C76.9911 59.9167 77.3317 60.1442 77.6185 60.4311L94.8736 77.6861C95.1604 77.973 95.501 78.2005 95.8758 78.3558C96.2506 78.511 96.6522 78.5909 97.0579 78.5909C97.4636 78.5909 97.8653 78.511 98.2401 78.3558C98.6149 78.2005 98.9554 77.973 99.2422 77.6861L107.23 69.6984C107.517 69.4115 107.857 69.184 108.232 69.0287C108.607 68.8735 109.009 68.7936 109.414 68.7936C109.82 68.7936 110.222 68.8735 110.596 69.0287C110.971 69.184 111.312 69.4115 111.599 69.6984L127.949 86.0487L127.949 36.623C127.949 35.8038 127.624 35.018 127.044 34.4387C126.465 33.8594 125.679 33.5339 124.86 33.5339H56.8996C56.0804 33.5339 55.2946 33.8594 54.7153 34.4387C54.136 35.018 53.8105 35.8038 53.8105 36.623V79.8704Z" fill="#B7BAC7"/>
<path d="M124.86 33.5339H56.8996C55.1936 33.5339 53.8105 34.917 53.8105 36.623V92.2269C53.8105 93.9329 55.1936 95.316 56.8996 95.316H124.86C126.566 95.316 127.949 93.9329 127.949 92.2269V36.623C127.949 34.917 126.566 33.5339 124.86 33.5339Z" stroke="#B7BAC7" stroke-width="4.78313" stroke-linecap="round" stroke-linejoin="round"/>
<path d="M53.8105 79.8702L73.2499 60.4309C73.5367 60.1441 73.8773 59.9165 74.2521 59.7613C74.6268 59.606 75.0285 59.5261 75.4342 59.5261C75.8399 59.5261 76.2416 59.606 76.6164 59.7613C76.9911 59.9165 77.3317 60.1441 77.6185 60.4309L94.8736 77.686C95.1604 77.9728 95.501 78.2004 95.8758 78.3556C96.2506 78.5108 96.6522 78.5907 97.0579 78.5907C97.4636 78.5907 97.8653 78.5108 98.2401 78.3556C98.6149 78.2004 98.9554 77.9728 99.2422 77.686L107.23 69.6982C107.517 69.4114 107.857 69.1838 108.232 69.0286C108.607 68.8733 109.009 68.7934 109.414 68.7934C109.82 68.7934 110.222 68.8733 110.596 69.0286C110.971 69.1838 111.312 69.4114 111.599 69.6982L127.949 86.0485" stroke="#B7BAC7" stroke-width="4.78313" stroke-linecap="round" stroke-linejoin="round"/>
<path d="M101.692 58.2466C104.251 58.2466 106.325 56.172 106.325 53.6129C106.325 51.0538 104.251 48.9792 101.692 48.9792C99.1327 48.9792 97.0581 51.0538 97.0581 53.6129C97.0581 56.172 99.1327 58.2466 101.692 58.2466Z" fill="#B7BAC7"/>
</svg>
