<svg width="512" height="512" viewBox="0 0 512 512" fill="none" xmlns="http://www.w3.org/2000/svg">
<g clip-path="url(#clip0_173_157)">
<path d="M492.163 111.07L492.163 111.07L259.695 -1.15603L259.695 -1.15619C257.359 -2.28254 254.639 -2.28263 252.305 -1.15611L252.305 -1.15603L19.8356 111.07C16.8978 112.488 15.0312 115.463 15.0312 118.725V391.273C15.0312 394.535 16.8978 397.51 19.8356 398.928L252.303 511.154C253.471 511.717 254.735 512 255.999 512C257.263 512 258.527 511.717 259.694 511.154L259.695 511.154L492.163 398.928C495.101 397.51 496.967 394.535 496.967 391.273V118.726C496.967 115.462 495.099 112.489 492.163 111.07ZM319.766 200.166L318.865 200.601L319.766 200.166C317.725 195.94 312.644 194.165 308.415 196.207L255.999 221.512L235.638 211.682C235.638 211.682 235.638 211.682 235.638 211.682C231.409 209.639 226.329 211.414 224.288 215.641C222.247 219.868 224.019 224.95 228.246 226.991L228.681 226.091L228.247 226.991L247.499 236.285V489.956L32.0312 385.938V132.267L196.196 211.519C196.196 211.519 196.196 211.519 196.197 211.519C197.386 212.094 198.646 212.367 199.886 212.367C203.043 212.367 206.08 210.598 207.546 207.56C209.587 203.333 207.814 198.251 203.587 196.21L43.0824 118.725L115.287 83.867L339.685 192.197V281.651C339.685 284.576 341.189 287.294 343.666 288.85L343.667 288.85C345.043 289.714 346.613 290.151 348.186 290.151C349.446 290.151 350.71 289.871 351.881 289.305L407.994 262.216C410.932 260.798 412.798 257.824 412.798 254.562V164.694L479.967 132.268V385.94L264.499 489.956V236.285L315.807 211.516L315.372 210.616L315.807 211.516C320.034 209.475 321.807 204.394 319.766 200.166ZM407.994 147.142L196.104 44.8525L255.999 15.938L468.916 118.725L408.93 147.684C408.64 147.489 408.329 147.304 407.994 147.142ZM347.755 177.217L135.237 74.6217L176.867 54.4434L389.47 157.079L347.755 177.217ZM395.798 172.9V249.225L356.685 268.107V191.782L395.798 172.9Z" fill="#17A2B8" stroke="#17A2B8" stroke-width="2"/>
<path d="M92.9246 358.479L58.8096 342.01C55.0776 340.207 50.5956 341.773 48.7946 345.503C46.9936 349.233 48.5576 353.717 52.2876 355.518L86.4026 371.987C87.4536 372.495 88.5646 372.735 89.6576 372.735C92.4456 372.735 95.1236 371.173 96.4166 368.494C98.2186 364.763 96.6546 360.281 92.9246 358.479Z" fill="#17A2B8"/>
<path d="M124.325 338.042L58.8598 306.438C55.1288 304.637 50.6458 306.201 48.8448 309.932C47.0448 313.662 48.6088 318.146 52.3388 319.947L117.804 351.551C118.855 352.058 119.966 352.299 121.059 352.299C123.847 352.299 126.525 350.737 127.818 348.058C129.619 344.326 128.055 339.842 124.325 338.042Z" fill="#17A2B8"/>
</g>
<defs>
<clipPath id="clip0_173_157">
<rect width="512" height="512" fill="white"/>
</clipPath>
</defs>
</svg>
