<svg width="512" height="512" viewBox="0 0 512 512" fill="none" xmlns="http://www.w3.org/2000/svg">
<g clip-path="url(#clip0_173_182)">
<path d="M492.163 112.07L492.163 112.07L259.695 -0.156028L259.695 -0.156193C257.359 -1.28254 254.639 -1.28263 252.305 -0.156111L252.305 -0.156029L19.8356 112.07C16.8978 113.488 15.0312 116.463 15.0312 119.725V392.273C15.0312 395.535 16.8978 398.51 19.8356 399.928L252.303 512.154C253.471 512.717 254.735 513 255.999 513C257.263 513 258.527 512.717 259.694 512.154L259.695 512.154L492.163 399.928C495.101 398.51 496.967 395.535 496.967 392.273V119.726C496.967 116.462 495.099 113.489 492.163 112.07ZM319.766 201.166L318.865 201.601L319.766 201.166C317.725 196.94 312.644 195.165 308.415 197.207L255.999 222.512L235.638 212.682C235.638 212.682 235.638 212.682 235.638 212.682C231.409 210.639 226.329 212.414 224.288 216.641C222.247 220.868 224.019 225.95 228.246 227.991L228.681 227.091L228.247 227.991L247.499 237.285V490.956L32.0312 386.938V133.267L196.196 212.519C196.196 212.519 196.196 212.519 196.197 212.519C197.386 213.094 198.646 213.367 199.886 213.367C203.043 213.367 206.08 211.598 207.546 208.56C209.587 204.333 207.814 199.251 203.587 197.21L43.0824 119.725L115.287 84.867L339.685 193.197V282.651C339.685 285.576 341.189 288.294 343.666 289.85L343.667 289.85C345.043 290.714 346.613 291.151 348.186 291.151C349.446 291.151 350.71 290.871 351.881 290.305L407.994 263.216C410.932 261.798 412.798 258.824 412.798 255.562V165.694L479.967 133.268V386.94L264.499 490.956V237.285L315.807 212.516L315.372 211.616L315.807 212.516C320.034 210.475 321.807 205.394 319.766 201.166ZM407.994 148.142L196.104 45.8525L255.999 16.938L468.916 119.725L408.93 148.684C408.64 148.489 408.329 148.304 407.994 148.142ZM347.755 178.217L135.237 75.6217L176.867 55.4434L389.47 158.079L347.755 178.217ZM395.798 173.9V250.225L356.685 269.107V192.782L395.798 173.9Z" fill="#F8F9FA" stroke="#F8F9FA" stroke-width="2"/>
<path d="M92.9246 358.479L58.8096 342.01C55.0776 340.207 50.5956 341.773 48.7946 345.503C46.9936 349.233 48.5576 353.717 52.2876 355.518L86.4026 371.987C87.4536 372.495 88.5646 372.735 89.6576 372.735C92.4456 372.735 95.1236 371.173 96.4166 368.494C98.2186 364.763 96.6546 360.281 92.9246 358.479Z" fill="#F8F9FA"/>
<path d="M124.325 338.042L58.8598 306.438C55.1288 304.637 50.6458 306.201 48.8448 309.932C47.0448 313.662 48.6088 318.146 52.3388 319.947L117.804 351.551C118.855 352.058 119.966 352.299 121.059 352.299C123.847 352.299 126.525 350.737 127.818 348.058C129.619 344.326 128.055 339.842 124.325 338.042Z" fill="#F8F9FA"/>
</g>
<defs>
<clipPath id="clip0_173_182">
<rect width="512" height="512" fill="white"/>
</clipPath>
</defs>
</svg>
