<svg width="24" height="24" viewBox="0 0 24 24" fill="none" xmlns="http://www.w3.org/2000/svg">
<path d="M19.5616 4.81821C19.729 4.98564 19.729 5.25711 19.5616 5.42454L18.2479 6.73827L19.3791 7.86946C19.6861 8.17645 19.8369 8.60635 19.7889 9.03785L19.5159 11.4949C19.4801 11.8175 19.3355 12.1182 19.1061 12.3477L10.3655 21.0882C9.80741 21.6463 8.90253 21.6463 8.34441 21.0882L3.29161 16.0354C2.7335 15.4773 2.7335 14.5724 3.29161 14.0143L12.0322 5.27375C12.2616 5.04428 12.5624 4.89974 12.8849 4.8639L15.342 4.59089C15.7735 4.54295 16.2034 4.69375 16.5104 5.00074L17.6416 6.13193L18.9553 4.81821C19.1227 4.65077 19.3942 4.65077 19.5616 4.81821ZM17.0352 6.73827L15.904 5.60707C15.7935 5.49656 15.6432 5.43665 15.4884 5.43975L15.4367 5.44314L12.9796 5.71614C12.8667 5.72869 12.7605 5.77452 12.6742 5.84727L12.6385 5.88008L3.89795 14.6206C3.68485 14.8337 3.67516 15.1732 3.86889 15.3978L3.89795 15.4291L8.95074 20.4819C9.16384 20.695 9.50333 20.7047 9.72792 20.5109L9.75919 20.4819L18.4997 11.7413C18.5801 11.661 18.6344 11.5589 18.6563 11.4482L18.6637 11.4002L18.9367 8.94315C18.9539 8.78781 18.9068 8.63299 18.8077 8.51406L18.7727 8.4758L17.6416 7.3446L16.185 8.80128C16.5195 9.39981 16.4324 10.1706 15.9236 10.6794C15.3097 11.2934 14.3143 11.2934 13.7004 10.6794C13.0864 10.0655 13.0864 9.07015 13.7004 8.45622C14.2093 7.94733 14.9802 7.86026 15.5788 8.19502L17.0352 6.73827ZM10.0624 17.5513C10.2298 17.7187 10.2298 17.9902 10.0624 18.1576C9.89492 18.325 9.62346 18.325 9.45602 18.1576L6.22223 14.9238C6.0548 14.7564 6.0548 14.4849 6.22223 14.3175C6.38967 14.15 6.66114 14.15 6.82857 14.3175L10.0624 17.5513ZM11.4771 16.1365C11.6446 16.3039 11.6446 16.5754 11.4771 16.7428C11.3097 16.9102 11.0382 16.9102 10.8708 16.7428L7.63702 13.509C7.46958 13.3416 7.46958 13.0701 7.63702 12.9027C7.80445 12.7352 8.07592 12.7352 8.24335 12.9027L11.4771 16.1365ZM15.3173 9.06255C15.0382 8.7835 14.5858 8.7835 14.3067 9.06256C14.0276 9.34161 14.0276 9.79406 14.3067 10.0731C14.5858 10.3522 15.0382 10.3522 15.3173 10.0731C15.5963 9.79406 15.5963 9.34161 15.3173 9.06255Z" fill="#A1A5B3"/>
</svg>
