<svg width="76" height="76" viewBox="0 0 76 76" fill="none" xmlns="http://www.w3.org/2000/svg">
<rect x="0.404175" y="0.40625" width="75.1593" height="75.1593" rx="37.5797" fill="white"/>
<path opacity="0.2" d="M28.5889 28.5908V35.78C28.5889 40.9603 32.7324 45.2542 37.9126 45.2926C39.1523 45.302 40.3816 45.0659 41.5296 44.598C42.6777 44.1301 43.7218 43.4396 44.6018 42.5663C45.4817 41.693 46.1801 40.6541 46.6567 39.5096C47.1333 38.3652 47.3787 37.1377 47.3787 35.8979V28.5908C47.3787 28.3139 47.2687 28.0484 47.073 27.8526C46.8772 27.6569 46.6117 27.5469 46.3348 27.5469H29.6327C29.3559 27.5469 29.0904 27.6569 28.8946 27.8526C28.6988 28.0484 28.5889 28.3139 28.5889 28.5908Z" fill="#1D2026"/>
<path d="M28.5889 28.5908V35.78C28.5889 40.9603 32.7324 45.2542 37.9126 45.2926C39.1523 45.302 40.3816 45.0659 41.5296 44.598C42.6777 44.1301 43.7218 43.4396 44.6018 42.5663C45.4817 41.693 46.1801 40.6541 46.6567 39.5096C47.1333 38.3652 47.3787 37.1377 47.3787 35.8979V28.5908C47.3787 28.3139 47.2687 28.0484 47.073 27.8526C46.8772 27.6569 46.6117 27.5469 46.3348 27.5469H29.6327C29.3559 27.5469 29.0904 27.6569 28.8946 27.8526C28.6988 28.0484 28.5889 28.3139 28.5889 28.5908Z" stroke="#1D2026" stroke-width="2.08776" stroke-linecap="round" stroke-linejoin="round"/>
<path d="M33.8083 50.5156H42.1594" stroke="#1D2026" stroke-width="2.08776" stroke-linecap="round" stroke-linejoin="round"/>
<path d="M37.9838 45.293V50.5124" stroke="#1D2026" stroke-width="2.08776" stroke-linecap="round" stroke-linejoin="round"/>
<path d="M47.1459 37.9868H48.4226C49.53 37.9868 50.5921 37.5469 51.3751 36.7639C52.1582 35.9808 52.5981 34.9187 52.5981 33.8113V31.7236C52.5981 31.4467 52.4881 31.1812 52.2924 30.9854C52.0966 30.7897 51.8311 30.6797 51.5542 30.6797H47.3787" stroke="#1D2026" stroke-width="2.08776" stroke-linecap="round" stroke-linejoin="round"/>
<path d="M28.8452 37.9868H27.5284C26.421 37.9868 25.3589 37.5469 24.5759 36.7639C23.7928 35.9808 23.3529 34.9187 23.3529 33.8113V31.7236C23.3529 31.4467 23.4629 31.1812 23.6587 30.9854C23.8544 30.7897 24.1199 30.6797 24.3968 30.6797H28.5723" stroke="#1D2026" stroke-width="1.56582" stroke-linecap="round" stroke-linejoin="round"/>
</svg>
