<svg width="24" height="24" viewBox="0 0 24 24" fill="none" xmlns="http://www.w3.org/2000/svg">
<path d="M9.09976 6.68722L8.69046 6.6841L8.69677 5.87513L9.10607 5.87825C10.3456 5.89024 11.466 6.39453 12.2749 7.2023C13.0847 8.01056 13.5851 9.12205 13.5851 10.347V10.7532H12.7631V10.347C12.7631 9.34253 12.3545 8.4328 11.6937 7.77329C11.0302 7.11066 10.1128 6.69706 9.09976 6.68722ZM17.7415 13.7928L20.9617 13.7924V14.6013L17.7415 14.6018V17.462C17.7415 17.5755 17.6944 17.6779 17.6186 17.7516L15.4638 19.881C15.3837 19.9604 15.2784 20 15.1733 20H8.70017V19.1877H14.7622V18.2743C14.7622 17.9409 14.9006 17.6359 15.124 17.415L15.1264 17.4126C15.35 17.1923 15.6581 17.0558 15.9953 17.0558H16.9195V9.44977V8.63744V7.73154V6.91921V4.81233H13.9048V4H17.3305C17.5574 4 17.7415 4.18185 17.7415 4.40617V6.91921H22.1399V7.73154H17.7415V8.63744H19.8122V9.44977H17.7415V10.3573L21.3897 10.3569V11.1658L17.7415 11.1663V12.0749L19.7574 12.0746V12.8836L17.7415 12.8841V13.7928ZM15.5843 18.2743V18.6133L16.3383 17.8682H15.9953C15.8814 17.8682 15.7785 17.9135 15.7051 17.986C15.6301 18.0601 15.5843 18.1618 15.5843 18.2743ZM13.0153 4.81233H12.1525V4H13.0153V4.81233ZM7.72328 20H6.35821V19.1877H7.72328V20ZM6.41769 15.6807C6.60996 15.8433 6.74203 16.0578 6.80466 16.2896C6.88623 16.5902 6.85176 16.9229 6.68182 17.2137L5.40973 19.3897C5.24028 19.6814 4.96596 19.8767 4.66129 19.9575C4.35662 20.0379 4.02039 20.0041 3.7264 19.8361L3.41348 19.6567C3.11852 19.4892 2.92042 19.2181 2.83861 18.9171C2.75753 18.6162 2.79151 18.2839 2.96145 17.9929L4.23354 15.8172C4.40299 15.5255 4.67755 15.3297 4.98198 15.2493C5.21673 15.1872 5.47018 15.1929 5.70906 15.276L5.94236 14.8763C5.65493 14.6827 5.38667 14.4629 5.14148 14.2206C4.13837 13.2293 3.51787 11.8597 3.51787 10.347C3.51787 8.8344 4.13837 7.46476 5.14148 6.47346C6.14458 5.48216 7.53053 4.86895 9.06116 4.86895C10.5918 4.86895 11.9777 5.48216 12.9808 6.47346C13.9839 7.46476 14.6045 8.8344 14.6045 10.347C14.6045 11.8597 13.9839 13.2293 12.9808 14.2206C11.9777 15.2119 10.5918 15.8251 9.06116 15.8251C8.1974 15.8251 7.37977 15.6298 6.65099 15.2815L6.41769 15.6807ZM5.82073 16.2509L5.50587 16.072C5.40876 16.0166 5.29612 16.0058 5.19367 16.0329C5.09171 16.0597 4.9997 16.1255 4.94338 16.2219L3.67129 18.3993C3.61521 18.4953 3.60429 18.6066 3.63148 18.7079C3.65867 18.8084 3.72494 18.8993 3.82302 18.9552L4.13764 19.1346C4.23451 19.1898 4.34715 19.2009 4.4496 19.174C4.55156 19.1471 4.64357 19.0814 4.69989 18.9849L5.97198 16.8073C6.02805 16.7113 6.03922 16.5998 6.01179 16.4988C5.9846 16.398 5.91808 16.3071 5.82073 16.2509ZM12.3997 7.0478C11.5454 6.20356 10.3648 5.68128 9.06116 5.68128C7.75751 5.68128 6.57695 6.20356 5.72266 7.0478C4.86837 7.89204 4.33987 9.05872 4.33987 10.347C4.33987 11.6353 4.86837 12.802 5.72266 13.6463C6.57695 14.4905 7.75751 15.0128 9.06116 15.0128C10.3648 15.0128 11.5454 14.4905 12.3997 13.6463C13.254 12.802 13.7825 11.6353 13.7825 10.347C13.7825 9.05872 13.254 7.89204 12.3997 7.0478Z" fill="#A1A5B3"/>
</svg>
