<svg width="20" height="20" viewBox="0 0 20 20" fill="none" xmlns="http://www.w3.org/2000/svg">
<g clip-path="url(#clip0_401_5591)">
<path fill-rule="evenodd" clip-rule="evenodd" d="M10 0C9.36079 0 8.74124 0.220982 8.24631 0.625504C7.82896 0.966624 7.52188 1.42057 7.3596 1.93011H0V3.61685H7.3596C7.52188 4.1264 7.82896 4.58034 8.24631 4.92146C8.74124 5.32598 9.36079 5.54696 10 5.54696C10.6392 5.54696 11.2588 5.32598 11.7537 4.92146C12.171 4.58034 12.4781 4.1264 12.6404 3.61685H15.3012C15.9722 3.61685 16.6158 3.88341 17.0903 4.3579C17.5648 4.83239 17.8313 5.47593 17.8313 6.14695C17.8313 6.81798 17.5648 7.46152 17.0903 7.93601C16.6158 8.41049 15.9722 8.67706 15.3012 8.67706H12.6404C12.4781 8.16751 12.171 7.71357 11.7537 7.37245C11.2588 6.96793 10.6392 6.74694 10 6.74694C9.36079 6.74694 8.74124 6.96793 8.24631 7.37245C7.82896 7.71357 7.52188 8.16751 7.3596 8.67706H4.69879C3.58041 8.67706 2.50784 9.12133 1.71702 9.91214C0.926204 10.703 0.481928 11.7755 0.481928 12.8939C0.481928 14.0123 0.926204 15.0848 1.71702 15.8757C2.50784 16.6665 3.58041 17.1107 4.69879 17.1107H7.3596C7.52188 17.6203 7.82896 18.0742 8.24631 18.4153C8.74124 18.8199 9.36079 19.0408 10 19.0408C10.6392 19.0408 11.2588 18.8199 11.7537 18.4153C12.171 18.0742 12.4781 17.6203 12.6404 17.1107H20V15.424H12.6404C12.4781 14.9145 12.171 14.4605 11.7537 14.1194C11.2588 13.7149 10.6392 13.4939 10 13.4939C9.36079 13.4939 8.74124 13.7149 8.24631 14.1194C7.82896 14.4605 7.52188 14.9145 7.3596 15.424H4.69879C4.02776 15.424 3.38422 15.1574 2.90973 14.683C2.43524 14.2085 2.16867 13.5649 2.16867 12.8939C2.16867 12.2229 2.43524 11.5793 2.90973 11.1048C3.38422 10.6304 4.02776 10.3638 4.69879 10.3638H7.3596C7.52188 10.8733 7.82896 11.3273 8.24631 11.6684C8.74124 12.0729 9.36079 12.2939 10 12.2939C10.6392 12.2939 11.2588 12.0729 11.7537 11.6684C12.171 11.3273 12.4781 10.8733 12.6404 10.3638H15.3012C16.4196 10.3638 17.4922 9.91952 18.283 9.12871C19.0738 8.3379 19.5181 7.26533 19.5181 6.14695C19.5181 5.02858 19.0738 3.95601 18.283 3.1652C17.4922 2.37439 16.4196 1.93011 15.3012 1.93011H12.6404C12.4781 1.42057 12.171 0.966624 11.7537 0.625504C11.2588 0.220982 10.6392 0 10 0ZM9.78846 1.70999C9.9988 1.66815 10.2168 1.68962 10.415 1.77169C10.6131 1.85376 10.7824 1.99274 10.9016 2.17106C11.0207 2.34938 11.0843 2.55902 11.0843 2.77348C11.0843 3.06106 10.9701 3.33687 10.7667 3.54022C10.5634 3.74357 10.2876 3.85781 10 3.85781C9.78554 3.85781 9.57589 3.79422 9.39757 3.67507C9.21926 3.55592 9.08027 3.38657 8.9982 3.18844C8.91613 2.9903 8.89466 2.77228 8.9365 2.56194C8.97834 2.3516 9.08161 2.15839 9.23326 2.00674C9.3849 1.8551 9.57811 1.75183 9.78846 1.70999ZM9.23326 8.75369C9.43661 8.55034 9.71241 8.43609 10 8.43609C10.2145 8.43609 10.4241 8.49969 10.6024 8.61884C10.7807 8.73798 10.9197 8.90733 11.0018 9.10547C11.0839 9.30361 11.1053 9.52163 11.0635 9.73197C11.0217 9.94231 10.9184 10.1355 10.7667 10.2872C10.6151 10.4388 10.4219 10.5421 10.2115 10.5839C10.0012 10.6258 9.78318 10.6043 9.58504 10.5222C9.3869 10.4401 9.21755 10.3012 9.0984 10.1228C8.97926 9.94453 8.91566 9.73489 8.91566 9.52042C8.91566 9.23284 9.0299 8.95704 9.23326 8.75369ZM9.78846 15.2039C9.99879 15.162 10.2168 15.1835 10.415 15.2656C10.6131 15.3476 10.7824 15.4866 10.9016 15.6649C11.0207 15.8433 11.0843 16.0529 11.0843 16.2674C11.0843 16.555 10.9701 16.8308 10.7667 17.0341C10.5634 17.2375 10.2876 17.3517 10 17.3517C9.78554 17.3517 9.57589 17.2881 9.39757 17.169C9.21926 17.0498 9.08027 16.8805 8.9982 16.6823C8.91613 16.4842 8.89466 16.2662 8.9365 16.0558C8.97834 15.8455 9.08161 15.6523 9.23326 15.5006C9.3849 15.349 9.57811 15.2457 9.78846 15.2039Z" fill="white"/>
</g>
<defs>
<clipPath id="clip0_401_5591">
<rect width="20" height="20" fill="white"/>
</clipPath>
</defs>
</svg>
