<svg width="23" height="23" viewBox="0 0 23 23" fill="none" xmlns="http://www.w3.org/2000/svg">
<path d="M9.2459 22.375L8.80905 18.8801C8.42331 18.764 8.00621 18.5812 7.55773 18.3317C7.10926 18.0823 6.72778 17.8151 6.41329 17.5301L3.1903 18.901L0.936279 14.974L3.72242 12.8733C3.6868 12.6549 3.65737 12.4299 3.63413 12.1983C3.61089 11.9667 3.59926 11.7417 3.59926 11.5232C3.59926 11.3203 3.61089 11.1069 3.63413 10.8831C3.65737 10.6592 3.6868 10.4071 3.72242 10.1267L0.936279 8.02604L3.1903 4.14542L6.39006 5.49319C6.75101 5.19266 7.14139 4.92156 7.56121 4.6799C7.98102 4.43823 8.38923 4.25155 8.78582 4.11986L9.2459 0.625H13.7539L14.1908 4.14309C14.654 4.30575 15.0633 4.49243 15.4189 4.70312C15.7744 4.9138 16.1404 5.17715 16.5168 5.49319L19.8095 4.14542L22.0636 8.02604L19.1845 10.1964C19.2511 10.4458 19.2883 10.6747 19.296 10.8831C19.3038 11.0914 19.3076 11.2971 19.3076 11.5C19.3076 11.6875 19.2999 11.8854 19.2844 12.0937C19.2689 12.3021 19.2333 12.5542 19.1775 12.8501L22.0101 14.974L19.7561 18.901L16.5168 17.5068C16.1404 17.8228 15.7616 18.0939 15.3805 18.3201C14.9995 18.5463 14.6029 18.7252 14.1908 18.8569L13.7539 22.375H9.2459ZM10.2916 21.1667H12.6548L13.101 17.8949C13.7098 17.7338 14.2578 17.5126 14.745 17.2315C15.2322 16.9503 15.7283 16.5649 16.2333 16.0754L19.2472 17.3604L20.4486 15.3063L17.8042 13.3195C17.9049 12.9756 17.9715 12.6592 18.004 12.3702C18.0365 12.0813 18.0528 11.7912 18.0528 11.5C18.0528 11.1933 18.0365 10.9032 18.004 10.6298C17.9715 10.3563 17.9049 10.0554 17.8042 9.72701L20.495 7.69375L19.2937 5.63958L16.2101 6.93156C15.8445 6.53034 15.3639 6.15428 14.7682 5.8034C14.1726 5.45252 13.6091 5.21977 13.0777 5.10514L12.7083 1.83333H10.2986L9.92211 5.08188C9.31329 5.21202 8.75366 5.42154 8.24322 5.71045C7.73278 5.99936 7.22505 6.39633 6.72003 6.90136L3.70617 5.63958L2.50482 7.69375L5.12596 9.65031C5.02527 9.92142 4.95478 10.2158 4.91451 10.5333C4.87423 10.8509 4.85409 11.1809 4.85409 11.5232C4.85409 11.83 4.87423 12.1344 4.91451 12.4365C4.95478 12.7385 5.01753 13.0329 5.10273 13.3195L2.50482 15.3063L3.70617 17.3604L6.6968 16.0917C7.17083 16.5703 7.66307 16.9541 8.17353 17.2431C8.68397 17.532 9.25909 17.757 9.89888 17.9181L10.2916 21.1667ZM11.4674 14.5208C12.3101 14.5208 13.0243 14.228 13.6099 13.6425C14.1954 13.0569 14.4882 12.3427 14.4882 11.5C14.4882 10.6573 14.1954 9.94311 13.6099 9.35754C13.0243 8.77196 12.3101 8.47917 11.4674 8.47917C10.62 8.47917 9.90468 8.77196 9.32142 9.35754C8.73818 9.94311 8.44655 10.6573 8.44655 11.5C8.44655 12.3427 8.73818 13.0569 9.32142 13.6425C9.90468 14.228 10.62 14.5208 11.4674 14.5208Z" fill="white"/>
</svg>
