<svg width="49" height="49" viewBox="0 0 49 49" fill="none" xmlns="http://www.w3.org/2000/svg">
<path d="M18.4425 21.9934C18.7057 21.8415 18.9242 21.623 19.0761 21.3598C19.228 21.0967 19.3079 20.7982 19.3079 20.4944V4.92017C19.3063 4.64428 19.2388 4.37275 19.111 4.12824C18.9832 3.88373 18.7987 3.67333 18.5731 3.51457C18.3474 3.35582 18.087 3.25332 17.8136 3.21562C17.5403 3.17792 17.2619 3.20611 17.0016 3.29785C11.95 5.08546 7.70168 8.61611 5.02052 13.2551C2.33936 17.8941 1.40117 23.3372 2.37459 28.606C2.42505 28.8784 2.5402 29.1348 2.71037 29.3535C2.88054 29.5722 3.10075 29.7468 3.35247 29.8627C3.57932 29.9688 3.8268 30.0234 4.07722 30.0228C4.381 30.0229 4.67946 29.9431 4.9426 29.7913L18.4425 21.9934ZM15.8464 7.54183V19.495L5.48779 25.4717C5.46183 25.145 5.46183 24.8162 5.46183 24.4961C5.4649 20.9884 6.43601 17.5495 8.26824 14.5581C10.1005 11.5667 12.7227 9.13886 15.8464 7.54183ZM47 24.4961C47.0017 29.4347 45.378 34.2366 42.3793 38.161C39.3806 42.0854 35.1737 44.9141 30.4075 46.2108C25.6414 47.5074 20.581 47.1999 16.007 45.3357C11.433 43.4715 7.59962 40.1542 5.09837 35.8956C4.98177 35.6989 4.90532 35.481 4.87343 35.2546C4.84154 35.0282 4.85485 34.7977 4.91258 34.5764C4.97032 34.3552 5.07134 34.1476 5.2098 33.9656C5.34826 33.7836 5.52143 33.6308 5.71928 33.5162L22.7694 23.5941V3.73047C22.7694 3.27152 22.9517 2.83137 23.2763 2.50684C23.6009 2.18232 24.0411 2 24.5002 2C28.4265 2.002 32.2841 3.03079 35.6899 4.98421C39.0956 6.93763 41.9312 9.74775 43.9149 13.1356C43.9387 13.1702 43.9603 13.2048 43.982 13.2416C44.0036 13.2783 44.0252 13.3216 44.0447 13.3605C45.986 16.7505 47.005 20.5898 47 24.4961Z" fill="#F1F1F4" stroke="#B7BAC7" stroke-width="2.25"/>
</svg>
