<svg width="24" height="24" viewBox="0 0 24 24" fill="none" xmlns="http://www.w3.org/2000/svg">
<path d="M13.8912 10.2902L11.5896 12.5918C11.4288 12.7526 11.1288 12.7526 10.968 12.5918L10.1088 11.7326C9.96961 11.5934 9.78481 11.5214 9.60001 11.5214C9.41521 11.5214 9.23042 11.591 9.09122 11.7326C8.81042 12.0134 8.81042 12.4694 9.09122 12.7502L9.95282 13.6118C10.308 13.967 10.7784 14.1614 11.2824 14.1614C11.7864 14.1614 12.2568 13.967 12.612 13.6118L14.9136 11.3102C15.1944 11.0294 15.1944 10.5734 14.9136 10.2926C14.6328 10.0118 14.1768 10.0118 13.896 10.2926L13.8912 10.2902Z" fill="#A1A5B3"/>
<path d="M8.09751 5.98017C8.06391 6.20817 8.13831 6.43377 8.30151 6.59697C8.52471 6.82017 8.87031 6.87297 9.14631 6.72417C9.96951 6.27777 10.9007 6.02817 11.8415 6.00417C12.1607 5.99457 12.4295 5.78097 12.5135 5.47377C12.5735 5.25057 12.5255 5.02017 12.3815 4.83777C12.2423 4.66017 12.0335 4.56177 11.8079 4.56657C10.6415 4.59777 9.48471 4.90497 8.46471 5.45697C8.26551 5.56497 8.13351 5.75697 8.09991 5.98257L8.09751 5.98017Z" fill="#A1A5B3"/>
<path d="M18.4007 8.73798C18.4847 8.52918 18.4655 8.29878 18.3479 8.10918C18.0431 7.61238 17.6783 7.15158 17.2655 6.73638C16.8503 6.32118 16.3895 5.95638 15.8927 5.65398C15.7799 5.58438 15.6551 5.55078 15.5279 5.55078C15.4391 5.55078 15.3479 5.56758 15.2615 5.60358C15.0455 5.68998 14.8895 5.86518 14.8295 6.08838C14.7455 6.40038 14.8727 6.71958 15.1463 6.88758C15.5447 7.13238 15.9143 7.42518 16.2479 7.75638C16.5815 8.08998 16.8719 8.45958 17.1167 8.85798C17.2847 9.12918 17.6039 9.25638 17.9135 9.17478C18.1415 9.11238 18.3167 8.95638 18.4007 8.74278V8.73798Z" fill="#A1A5B3"/>
<path d="M18.0192 15.9037C18.2448 15.8701 18.4368 15.7381 18.5448 15.5389C19.0968 14.5189 19.4064 13.3621 19.4352 12.1957C19.44 11.9725 19.3416 11.7637 19.164 11.6221C18.9816 11.4781 18.7512 11.4301 18.528 11.4901C18.2232 11.5717 18.0048 11.8477 17.9976 12.1621C17.9712 13.1029 17.7216 14.0341 17.2776 14.8573C17.1312 15.1285 17.1816 15.4717 17.4 15.6949L17.4048 15.6997C17.568 15.8629 17.7912 15.9373 18.0216 15.9037H18.0192Z" fill="#A1A5B3"/>
<path d="M15.5377 18.5296C15.7369 18.4192 15.8689 18.2272 15.9025 18.0016C15.9337 17.7736 15.8617 17.5528 15.6985 17.3896C15.4753 17.1664 15.1273 17.116 14.8513 17.2672C14.1409 17.6584 13.3753 17.8936 12.5761 17.9704C11.7217 18.052 10.8817 17.9536 10.0825 17.68C9.53045 17.4904 8.91605 17.4784 8.31845 17.6488L7.22405 17.9608C6.80405 18.0808 6.35285 17.8984 6.12965 17.5168C6.00005 17.296 5.97125 17.008 6.05285 16.7224L6.36725 15.6184C6.52565 15.0664 6.50645 14.4688 6.31205 13.8952C6.04325 13.0936 5.94725 12.2632 6.02645 11.4232C6.10325 10.6264 6.33845 9.86082 6.72965 9.14802C6.88085 8.87202 6.83045 8.52402 6.60725 8.30082C6.44645 8.14002 6.22325 8.06562 5.99525 8.09682C5.76965 8.12802 5.57765 8.26242 5.46725 8.46162C4.98245 9.34482 4.68725 10.2952 4.59365 11.2864C4.49285 12.328 4.61285 13.3624 4.94885 14.356C5.04965 14.6536 5.06165 14.9536 4.98245 15.2248L4.66805 16.3264C4.47845 16.9888 4.55765 17.6896 4.88885 18.2488C5.32085 18.9832 6.11525 19.4368 6.96245 19.4368C7.18565 19.4368 7.40645 19.4056 7.62245 19.3456L8.71445 19.0336C8.86565 18.9904 9.01925 18.9688 9.16565 18.9688C9.32165 18.9688 9.47285 18.9928 9.61445 19.0408C10.6033 19.3816 11.6689 19.504 12.7129 19.4032C13.7041 19.3096 14.6545 19.0144 15.5377 18.5296Z" fill="#A1A5B3"/>
</svg>
