<svg width="21" height="21" viewBox="0 0 21 21" fill="none" xmlns="http://www.w3.org/2000/svg">
<path d="M9.28846 17.7267H11.7115V12.9656H13.2631V8.26397C13.2631 7.83037 13.0414 7.49242 12.5979 7.2501C12.1544 7.00779 11.4551 6.88664 10.5 6.88664C9.54494 6.88664 8.84565 7.00779 8.40212 7.2501C7.95862 7.49242 7.73686 7.83037 7.73686 8.26397V12.9656H9.28846V17.7267ZM10.4966 21C9.05919 21 7.70227 20.7246 6.42585 20.1738C5.14943 19.623 4.03475 18.8712 3.08179 17.9182C2.12884 16.9653 1.37698 15.8506 0.826186 14.5742C0.275396 13.2977 0 11.9408 0 10.5034C0 9.0484 0.275966 7.68546 0.8279 6.41455C1.37981 5.14366 2.13117 4.0328 3.08198 3.08198C4.0328 2.13117 5.14732 1.37982 6.42552 0.827901C7.70374 0.275968 9.06075 0 10.4965 0C11.9499 0 13.3124 0.275968 14.5842 0.827901C15.8559 1.37982 16.9672 2.13117 17.918 3.08198C18.8688 4.0328 19.6202 5.14366 20.1721 6.41455C20.724 7.68546 21 9.0484 21 10.5034C21 11.9408 20.724 13.2982 20.1721 14.5756C19.6202 15.8531 18.8688 16.9672 17.918 17.918C16.9672 18.8688 15.8563 19.6202 14.5855 20.1721C13.3145 20.724 11.9516 21 10.4966 21ZM10.5 19.3421C12.95 19.3421 15.0362 18.4809 16.7586 16.7586C18.4809 15.0362 19.3421 12.95 19.3421 10.5C19.3421 8.04999 18.4809 5.9638 16.7586 4.24143C15.0362 2.51906 12.95 1.65787 10.5 1.65787C8.04999 1.65787 5.9638 2.51906 4.24143 4.24143C2.51906 5.9638 1.65787 8.04999 1.65787 10.5C1.65787 12.95 2.51906 15.0362 4.24143 16.7586C5.9638 18.4809 8.04999 19.3421 10.5 19.3421ZM10.5 6.24898C10.9223 6.24898 11.2758 6.10658 11.5606 5.82177C11.8454 5.53694 11.9879 5.1834 11.9879 4.76116C11.9879 4.33889 11.8454 3.98534 11.5606 3.70051C11.2758 3.41571 10.9223 3.2733 10.5 3.2733C10.0777 3.2733 9.7242 3.41571 9.43939 3.70051C9.15456 3.98534 9.01215 4.33889 9.01215 4.76116C9.01215 5.1834 9.15456 5.53694 9.43939 5.82177C9.7242 6.10658 10.0777 6.24898 10.5 6.24898Z" fill="white"/>
</svg>
