<svg width="20" height="19" viewBox="0 0 20 19" fill="none" xmlns="http://www.w3.org/2000/svg">
<mask id="mask0_309_3617" style="mask-type:alpha" maskUnits="userSpaceOnUse" x="0" y="0" width="20" height="20">
<rect x="0.416992" y="0.0050354" width="19" height="19" fill="#D9D9D9"/>
</mask>
<g mask="url(#mask0_309_3617)">
<path d="M9.91814 17.0258C8.87794 17.0258 7.9002 16.8284 6.98493 16.4337C6.06965 16.0389 5.27348 15.5031 4.59643 14.8264C3.91937 14.1496 3.38337 13.3538 2.98842 12.4389C2.59347 11.5241 2.396 10.5465 2.396 9.50633C2.396 8.46614 2.59342 7.4884 2.98826 6.57313C3.38311 5.65784 3.91896 4.86168 4.59584 4.18463C5.27272 3.50757 6.06867 2.97157 6.9837 2.57662C7.89873 2.18167 8.87643 1.98419 9.91681 1.98419C10.7508 1.98419 11.5398 2.10954 12.2839 2.36023C13.0281 2.61093 13.7107 2.96058 14.3319 3.40919L13.4732 4.28763C12.9617 3.93544 12.4076 3.6614 11.8109 3.4655C11.2142 3.26962 10.5829 3.17167 9.91681 3.17167C8.16195 3.17167 6.66768 3.78851 5.434 5.02219C4.20032 6.25587 3.58348 7.75015 3.58348 9.50501C3.58348 11.2599 4.20032 12.7541 5.434 13.9878C6.66768 15.2215 8.16195 15.8383 9.91681 15.8383C11.6717 15.8383 13.1659 15.2215 14.3996 13.9878C15.6333 12.7541 16.2501 11.2599 16.2501 9.50501C16.2501 9.22691 16.2319 8.95187 16.1953 8.67989C16.1588 8.40793 16.104 8.14351 16.0309 7.88664L16.99 6.91992C17.1352 7.32691 17.246 7.74559 17.3227 8.17596C17.3993 8.60632 17.4376 9.04934 17.4376 9.50501C17.4376 10.5454 17.2402 11.5231 16.8455 12.4381C16.4507 13.3531 15.9149 14.1491 15.2382 14.826C14.5614 15.5029 13.7656 16.0387 12.8507 16.4336C11.9359 16.8284 10.9583 17.0258 9.91814 17.0258ZM8.79326 12.8726L5.70273 9.78209L6.53701 8.94781L8.79326 11.2041L16.6033 3.3818L17.4376 4.21608L8.79326 12.8726Z" fill="#6E7484"/>
</g>
</svg>
