<svg width="183" height="128" viewBox="0 0 183 128" fill="none" xmlns="http://www.w3.org/2000/svg">
<rect x="0.887695" y="0.305054" width="181.759" height="127.55" rx="10" fill="#F5F7FA"/>
<path opacity="0.2" d="M54.6982 79.5254L74.1376 60.0861C74.4244 59.7992 74.765 59.5717 75.1398 59.4165C75.5145 59.2612 75.9162 59.1813 76.3219 59.1813C76.7276 59.1813 77.1293 59.2612 77.504 59.4165C77.8788 59.5717 78.2194 59.7992 78.5062 60.0861L95.7613 77.3412C96.0481 77.628 96.3887 77.8556 96.7635 78.0108C97.1383 78.166 97.5399 78.2459 97.9456 78.2459C98.3513 78.2459 98.753 78.166 99.1278 78.0108C99.5026 77.8556 99.8431 77.628 100.13 77.3412L108.118 69.3534C108.405 69.0665 108.745 68.839 109.12 68.6838C109.495 68.5285 109.896 68.4486 110.302 68.4486C110.708 68.4486 111.109 68.5285 111.484 68.6838C111.859 68.839 112.199 69.0665 112.486 69.3534L128.837 85.7037L128.837 36.2781C128.837 35.4588 128.511 34.6731 127.932 34.0937C127.353 33.5144 126.567 33.189 125.748 33.189H57.7873C56.9681 33.189 56.1823 33.5144 55.603 34.0937C55.0237 34.6731 54.6982 35.4588 54.6982 36.2781V79.5254Z" fill="#B7BAC7"/>
<path d="M125.748 33.189H57.7873C56.0813 33.189 54.6982 34.572 54.6982 36.2781V91.8819C54.6982 93.588 56.0813 94.971 57.7873 94.971H125.748C127.454 94.971 128.837 93.588 128.837 91.8819V36.2781C128.837 34.572 127.454 33.189 125.748 33.189Z" stroke="#B7BAC7" stroke-width="4.78313" stroke-linecap="round" stroke-linejoin="round"/>
<path d="M54.6982 79.5256L74.1376 60.0862C74.4244 59.7994 74.765 59.5718 75.1397 59.4166C75.5145 59.2614 75.9162 59.1815 76.3219 59.1815C76.7276 59.1815 77.1293 59.2614 77.504 59.4166C77.8788 59.5718 78.2194 59.7994 78.5062 60.0862L95.7613 77.3413C96.0481 77.6282 96.3887 77.8557 96.7635 78.0109C97.1382 78.1662 97.5399 78.2461 97.9456 78.2461C98.3513 78.2461 98.753 78.1662 99.1278 78.0109C99.5025 77.8557 99.8431 77.6282 100.13 77.3413L108.118 69.3535C108.405 69.0667 108.745 68.8391 109.12 68.6839C109.495 68.5287 109.896 68.4488 110.302 68.4488C110.708 68.4488 111.109 68.5287 111.484 68.6839C111.859 68.8391 112.199 69.0667 112.486 69.3535L128.837 85.7038" stroke="#B7BAC7" stroke-width="4.78313" stroke-linecap="round" stroke-linejoin="round"/>
<path d="M102.579 57.9019C105.138 57.9019 107.213 55.8273 107.213 53.2682C107.213 50.7091 105.138 48.6346 102.579 48.6346C100.02 48.6346 97.9453 50.7091 97.9453 53.2682C97.9453 55.8273 100.02 57.9019 102.579 57.9019Z" fill="#B7BAC7"/>
</svg>
