<svg width="17" height="17" viewBox="0 0 17 17" fill="none" xmlns="http://www.w3.org/2000/svg">
<path d="M14.3775 4.07935L3.42188 4.07935" stroke="#E34545" stroke-width="1.03581" stroke-linecap="round" stroke-linejoin="round"/>
<path d="M7.40576 7.06726V11.0511" stroke="#E34545" stroke-width="1.03581" stroke-linecap="round" stroke-linejoin="round"/>
<path d="M10.394 7.06726V11.0511" stroke="#E34545" stroke-width="1.03581" stroke-linecap="round" stroke-linejoin="round"/>
<path d="M13.3817 4.07935V13.541C13.3817 13.6731 13.3292 13.7998 13.2358 13.8932C13.1424 13.9866 13.0158 14.039 12.8837 14.039H4.91595C4.78388 14.039 4.65722 13.9866 4.56382 13.8932C4.47043 13.7998 4.41797 13.6731 4.41797 13.541V4.07935" stroke="#E34545" stroke-width="1.03581" stroke-linecap="round" stroke-linejoin="round"/>
<path d="M11.39 4.07934V3.08337C11.39 2.81922 11.2851 2.56589 11.0983 2.37911C10.9115 2.19233 10.6582 2.0874 10.394 2.0874H7.40612C7.14198 2.0874 6.88865 2.19233 6.70187 2.37911C6.51509 2.56589 6.41016 2.81922 6.41016 3.08337V4.07934" stroke="#E34545" stroke-width="1.03581" stroke-linecap="round" stroke-linejoin="round"/>
</svg>
