<svg width="16" height="15" viewBox="0 0 16 15" fill="none" xmlns="http://www.w3.org/2000/svg">
<path d="M2.75343 3.573H3.94441H13.4722" stroke="#FF6464" stroke-width="1.78646" stroke-linecap="round" stroke-linejoin="round"/>
<path d="M5.73295 3.57286V2.38189C5.73295 2.06602 5.85842 1.7631 6.08177 1.53975C6.30512 1.31639 6.60805 1.19092 6.92392 1.19092H9.30586C9.62173 1.19092 9.92466 1.31639 10.148 1.53975C10.3714 1.7631 10.4968 2.06602 10.4968 2.38189V3.57286M12.2833 3.57286V11.9097C12.2833 12.2255 12.1578 12.5285 11.9345 12.7518C11.7111 12.9752 11.4082 13.1006 11.0923 13.1006H5.13746C4.82159 13.1006 4.51867 12.9752 4.29532 12.7518C4.07196 12.5285 3.94649 12.2255 3.94649 11.9097V3.57286H12.2833Z" stroke="#FF6464" stroke-width="1.78646" stroke-linecap="round" stroke-linejoin="round"/>
<path d="M6.92509 6.55029V10.1232" stroke="#FF6464" stroke-width="1.78646" stroke-linecap="round" stroke-linejoin="round"/>
<path d="M9.30319 6.55029V10.1232" stroke="#FF6464" stroke-width="1.78646" stroke-linecap="round" stroke-linejoin="round"/>
</svg>
