<svg width="20" height="20" viewBox="0 0 20 20" fill="none" xmlns="http://www.w3.org/2000/svg">
<path d="M16.8895 4.95068L3.74268 4.95069" stroke="#8C94A3" stroke-width="1.19516" stroke-linecap="round" stroke-linejoin="round"/>
<path d="M8.52344 8.53613V13.3168" stroke="#8C94A3" stroke-width="1.19516" stroke-linecap="round" stroke-linejoin="round"/>
<path d="M12.1089 8.53613V13.3168" stroke="#8C94A3" stroke-width="1.19516" stroke-linecap="round" stroke-linejoin="round"/>
<path d="M15.6944 4.95068V16.3047C15.6944 16.4632 15.6315 16.6152 15.5194 16.7273C15.4073 16.8393 15.2553 16.9023 15.0969 16.9023H5.53557C5.37708 16.9023 5.22508 16.8393 5.11302 16.7273C5.00095 16.6152 4.93799 16.4632 4.93799 16.3047V4.95068" stroke="#8C94A3" stroke-width="1.19516" stroke-linecap="round" stroke-linejoin="round"/>
<path d="M13.3039 4.95063V3.75546C13.3039 3.43849 13.178 3.13449 12.9539 2.91036C12.7297 2.68622 12.4257 2.5603 12.1088 2.5603H8.52329C8.20631 2.5603 7.90232 2.68622 7.67818 2.91036C7.45404 3.13449 7.32812 3.43849 7.32812 3.75546V4.95063" stroke="#8C94A3" stroke-width="1.19516" stroke-linecap="round" stroke-linejoin="round"/>
</svg>
