<svg width="24" height="24" viewBox="0 0 24 24" fill="none" xmlns="http://www.w3.org/2000/svg">
<path d="M11.4286 21.9982C9.45945 21.9982 7.85718 20.3959 7.85718 18.4268V16.9983C7.85718 16.6035 8.17703 16.284 8.57146 16.284C8.96588 16.284 9.28574 16.6035 9.28574 16.9983V18.4268C9.28574 19.6085 10.2469 20.5697 11.4286 20.5697C12.6102 20.5697 13.5714 19.6085 13.5714 18.4268V13.4269C13.5714 12.2452 12.6102 11.284 11.4286 11.284C10.4503 11.284 9.59681 11.9446 9.35302 12.8904C9.25467 13.272 8.86717 13.5022 8.48317 13.4045C8.10125 13.3062 7.87146 12.9162 7.96975 12.5347C8.37582 10.9569 9.79809 9.85547 11.4286 9.85547C13.3977 9.85547 15 11.4577 15 13.4269V18.4268C15 20.3959 13.3977 21.9982 11.4286 21.9982Z" fill="#A1A5B3" stroke="white" stroke-width="0.5"/>
<path d="M5.71428 17C5.58907 17 5.46385 16.9672 5.35193 16.9017C5.13393 16.7733 5 16.539 5 16.2857V2.71443C5 2.46679 5.12836 2.23729 5.33864 2.10686C5.55 1.97572 5.81264 1.96529 6.03378 2.07551L18.8908 8.50402C19.1276 8.62259 19.2797 8.86259 19.2856 9.12759C19.2912 9.39266 19.1499 9.63887 18.9183 9.76723L16.0608 11.3549C15.7152 11.5474 15.281 11.4219 15.0895 11.0772C14.8976 10.7326 15.0222 10.2981 15.3668 10.1062L17.0405 9.17637L6.42856 3.87028V15.072L11.0815 12.487C11.4272 12.2938 11.8621 12.42 12.0529 12.7646C12.2447 13.1092 12.1202 13.5438 11.7756 13.7356L6.06135 16.9101C5.95321 16.97 5.83356 17 5.71428 17Z" fill="#A1A5B3" stroke="white" stroke-width="0.5"/>
</svg>
