<svg width="183" height="128" viewBox="0 0 183 128" fill="none" xmlns="http://www.w3.org/2000/svg">
<rect x="0.276367" y="0.305054" width="181.759" height="127.55" rx="10" fill="#F5F7FA"/>
<path opacity="0.2" d="M91.1532 27.0112C83.8216 27.0112 76.6547 29.1853 70.5587 33.2585C64.4627 37.3317 59.7114 43.1212 56.9057 49.8947C54.1 56.6682 53.366 64.1216 54.7963 71.3123C56.2266 78.503 59.7571 85.1081 64.9413 90.2924C70.1255 95.4766 76.7307 99.0071 83.9214 100.437C91.1121 101.868 98.5655 101.134 105.339 98.328C112.113 95.5223 117.902 90.771 121.975 84.675C126.048 78.579 128.222 71.4121 128.222 64.0805C128.222 59.2125 127.264 54.3921 125.401 49.8947C123.538 45.3972 120.807 41.3107 117.365 37.8685C113.923 34.4263 109.836 31.6958 105.339 29.8329C100.842 27.97 96.0212 27.0112 91.1532 27.0112ZM84.975 76.4369V51.724L103.51 64.0805L84.975 76.4369Z" fill="#B7BAC7"/>
<path d="M91.1532 101.15C111.626 101.15 128.222 84.5532 128.222 64.0805C128.222 43.6077 111.626 27.0112 91.1532 27.0112C70.6804 27.0112 54.084 43.6077 54.084 64.0805C54.084 84.5532 70.6804 101.15 91.1532 101.15Z" stroke="#B7BAC7" stroke-width="4.78313" stroke-miterlimit="10"/>
<path d="M103.512 64.0799L84.9775 51.7234V76.4363L103.512 64.0799Z" stroke="#B7BAC7" stroke-width="4.78313" stroke-linecap="round" stroke-linejoin="round"/>
</svg>
