<svg width="30" height="30" viewBox="0 0 30 30" fill="none" xmlns="http://www.w3.org/2000/svg">
<rect width="30" height="30" rx="5" fill="#909090"/>
<path d="M16.1067 5C16.5528 5.00011 16.9846 5.15716 17.3265 5.44365L17.45 5.5567L21.6433 9.75C21.9587 10.0654 22.1531 10.4818 22.1924 10.9261L22.2 11.0933V22.1C22.2002 22.5793 22.0191 23.041 21.6932 23.3925C21.3672 23.744 20.9205 23.9593 20.4425 23.9953L20.3 24H8.9C8.42065 24.0002 7.95896 23.8191 7.60748 23.4932C7.256 23.1672 7.0407 22.7205 7.00475 22.2425L7 22.1V6.9C6.99985 6.42065 7.18089 5.95896 7.50682 5.60748C7.83276 5.256 8.2795 5.0407 8.7575 5.00475L8.9 5H16.1067ZM14.6 6.9H8.9V22.1H20.3V12.6H16.025C15.6471 12.6 15.2846 12.4499 15.0174 12.1826C14.7501 11.9154 14.6 11.5529 14.6 11.175V6.9ZM16.5 7.2933V10.7H19.9067L16.5 7.2933Z" fill="white"/>
</svg>
